<?xml version="1.0" standalone="no"?>
 <!DOCTYPE svg PUBLIC "-//W3C//DTD SVG 1.1//EN" 
 "http://www.w3.org/Graphics/SVG/1.1/DTD/svg11.dtd"> 
<svg
  xmlns:svg="http://www.w3.org/2000/svg"
  xmlns="http://www.w3.org/2000/svg"
  xmlns:xlink="http://www.w3.org/1999/xlink"
  version="1.1"
  width="29.700220cm" height="21.000720cm" viewBox="0 0 116930 82680">
<title>SVG Picture created as prueba-F_Paste.svg date 2021/07/20 22:51:36 </title>
  <desc>Picture generated by PCBNEW </desc>
<g style="fill:#000000; fill-opacity:1;stroke:#000000; stroke-opacity:1;
stroke-linecap:round; stroke-linejoin:round;"
 transform="translate(0 0) scale(1 1)">
</g>
<g style="fill:#000000; fill-opacity:0.0; 
stroke:#000000; stroke-width:-0.000393701; stroke-opacity:1; 
stroke-linecap:round; stroke-linejoin:round;">
</g>
<g style="fill:#000000; fill-opacity:0.0; 
stroke:#000000; stroke-width:59.0551; stroke-opacity:1; 
stroke-linecap:round; stroke-linejoin:round;">
<path d="M11417 31102
L11417 48818
" />
<path d="M48425 31102
L11417 31102
" />
<path d="M48425 48818
L48425 31102
" />
<path d="M11417 48818
L48425 48818
" />
<g >
</g>
<g >
</g>
<g >
</g>
<g >
</g>
<g >
</g>
<g >
</g>
<g >
</g>
<g style="fill:#000000; fill-opacity:0.0; 
stroke:#000000; stroke-width:59.0551; stroke-opacity:1; 
stroke-linecap:round; stroke-linejoin:round;">
</g>
<g style="fill:#000000; fill-opacity:0.0; 
stroke:#000000; stroke-width:0; stroke-opacity:1; 
stroke-linecap:round; stroke-linejoin:round;">
</g>
<g style="fill:#000000; fill-opacity:1.0; 
stroke:#000000; stroke-width:0; stroke-opacity:1; 
stroke-linecap:round; stroke-linejoin:round;">
<path style="fill:#000000; fill-opacity:1.0; 
stroke:#000000; stroke-width:0; stroke-opacity:1; 
stroke-linecap:round; stroke-linejoin:round;fill-rule:evenodd;"
d="M 42586.6,37153.5
42586.6,35657.5
43374,35657.5
43374,37153.5
Z" /> 
<path style="fill:#000000; fill-opacity:1.0; 
stroke:#000000; stroke-width:0; stroke-opacity:1; 
stroke-linecap:round; stroke-linejoin:round;fill-rule:evenodd;"
d="M 40106.3,36700.8
40106.3,36110.2
40893.7,36110.2
40893.7,36700.8
Z" /> 
<path style="fill:#000000; fill-opacity:1.0; 
stroke:#000000; stroke-width:0; stroke-opacity:1; 
stroke-linecap:round; stroke-linejoin:round;fill-rule:evenodd;"
d="M 40106.3,37606.3
40106.3,37015.7
40893.7,37015.7
40893.7,37606.3
Z" /> 
<path style="fill:#000000; fill-opacity:1.0; 
stroke:#000000; stroke-width:0; stroke-opacity:1; 
stroke-linecap:round; stroke-linejoin:round;fill-rule:evenodd;"
d="M 40106.3,35795.3
40106.3,35204.7
40893.7,35204.7
40893.7,35795.3
Z" /> 
</g>
<g >
</g>
<g style="fill:#000000; fill-opacity:1.0; 
stroke:#000000; stroke-width:0; stroke-opacity:1; 
stroke-linecap:round; stroke-linejoin:round;">
<path style="fill:#000000; fill-opacity:1.0; 
stroke:#000000; stroke-width:0; stroke-opacity:1; 
stroke-linecap:round; stroke-linejoin:round;fill-rule:evenodd;"
d="M 20580.7,41175.2
18612.2,41175.2
18612.2,39206.7
20580.7,39206.7
Z" /> 
<path style="fill:#000000; fill-opacity:1.0; 
stroke:#000000; stroke-width:0; stroke-opacity:1; 
stroke-linecap:round; stroke-linejoin:round;fill-rule:evenodd;"
d="M 16820.9,43537.4
16466.5,43537.4
16466.5,42750
16820.9,42750
Z" /> 
<path style="fill:#000000; fill-opacity:1.0; 
stroke:#000000; stroke-width:0; stroke-opacity:1; 
stroke-linecap:round; stroke-linejoin:round;fill-rule:evenodd;"
d="M 17320.9,43537.4
16966.5,43537.4
16966.5,42750
17320.9,42750
Z" /> 
<path style="fill:#000000; fill-opacity:1.0; 
stroke:#000000; stroke-width:0; stroke-opacity:1; 
stroke-linecap:round; stroke-linejoin:round;fill-rule:evenodd;"
d="M 17820.9,43537.4
17466.5,43537.4
17466.5,42750
17820.9,42750
Z" /> 
<path style="fill:#000000; fill-opacity:1.0; 
stroke:#000000; stroke-width:0; stroke-opacity:1; 
stroke-linecap:round; stroke-linejoin:round;fill-rule:evenodd;"
d="M 18320.9,43537.4
17966.5,43537.4
17966.5,42750
18320.9,42750
Z" /> 
<path style="fill:#000000; fill-opacity:1.0; 
stroke:#000000; stroke-width:0; stroke-opacity:1; 
stroke-linecap:round; stroke-linejoin:round;fill-rule:evenodd;"
d="M 18820.9,43537.4
18466.5,43537.4
18466.5,42750
18820.9,42750
Z" /> 
<path style="fill:#000000; fill-opacity:1.0; 
stroke:#000000; stroke-width:0; stroke-opacity:1; 
stroke-linecap:round; stroke-linejoin:round;fill-rule:evenodd;"
d="M 19320.9,43537.4
18966.5,43537.4
18966.5,42750
19320.9,42750
Z" /> 
<path style="fill:#000000; fill-opacity:1.0; 
stroke:#000000; stroke-width:0; stroke-opacity:1; 
stroke-linecap:round; stroke-linejoin:round;fill-rule:evenodd;"
d="M 19820.9,43537.4
19466.5,43537.4
19466.5,42750
19820.9,42750
Z" /> 
<path style="fill:#000000; fill-opacity:1.0; 
stroke:#000000; stroke-width:0; stroke-opacity:1; 
stroke-linecap:round; stroke-linejoin:round;fill-rule:evenodd;"
d="M 20320.9,43537.4
19966.5,43537.4
19966.5,42750
20320.9,42750
Z" /> 
<path style="fill:#000000; fill-opacity:1.0; 
stroke:#000000; stroke-width:0; stroke-opacity:1; 
stroke-linecap:round; stroke-linejoin:round;fill-rule:evenodd;"
d="M 20820.9,43537.4
20466.5,43537.4
20466.5,42750
20820.9,42750
Z" /> 
<path style="fill:#000000; fill-opacity:1.0; 
stroke:#000000; stroke-width:0; stroke-opacity:1; 
stroke-linecap:round; stroke-linejoin:round;fill-rule:evenodd;"
d="M 21320.9,43537.4
20966.5,43537.4
20966.5,42750
21320.9,42750
Z" /> 
<path style="fill:#000000; fill-opacity:1.0; 
stroke:#000000; stroke-width:0; stroke-opacity:1; 
stroke-linecap:round; stroke-linejoin:round;fill-rule:evenodd;"
d="M 21820.9,43537.4
21466.5,43537.4
21466.5,42750
21820.9,42750
Z" /> 
<path style="fill:#000000; fill-opacity:1.0; 
stroke:#000000; stroke-width:0; stroke-opacity:1; 
stroke-linecap:round; stroke-linejoin:round;fill-rule:evenodd;"
d="M 22320.9,43537.4
21966.5,43537.4
21966.5,42750
22320.9,42750
Z" /> 
<path style="fill:#000000; fill-opacity:1.0; 
stroke:#000000; stroke-width:0; stroke-opacity:1; 
stroke-linecap:round; stroke-linejoin:round;fill-rule:evenodd;"
d="M 22820.9,43537.4
22466.5,43537.4
22466.5,42750
22820.9,42750
Z" /> 
<path style="fill:#000000; fill-opacity:1.0; 
stroke:#000000; stroke-width:0; stroke-opacity:1; 
stroke-linecap:round; stroke-linejoin:round;fill-rule:evenodd;"
d="M 23320.9,43537.4
22966.5,43537.4
22966.5,42750
23320.9,42750
Z" /> 
<path style="fill:#000000; fill-opacity:1.0; 
stroke:#000000; stroke-width:0; stroke-opacity:1; 
stroke-linecap:round; stroke-linejoin:round;fill-rule:evenodd;"
d="M 23931.1,41870.1
23931.1,42224.4
23143.7,42224.4
23143.7,41870.1
Z" /> 
<path style="fill:#000000; fill-opacity:1.0; 
stroke:#000000; stroke-width:0; stroke-opacity:1; 
stroke-linecap:round; stroke-linejoin:round;fill-rule:evenodd;"
d="M 23931.1,41370.1
23931.1,41724.4
23143.7,41724.4
23143.7,41370.1
Z" /> 
<path style="fill:#000000; fill-opacity:1.0; 
stroke:#000000; stroke-width:0; stroke-opacity:1; 
stroke-linecap:round; stroke-linejoin:round;fill-rule:evenodd;"
d="M 23931.1,40870.1
23931.1,41224.4
23143.7,41224.4
23143.7,40870.1
Z" /> 
<path style="fill:#000000; fill-opacity:1.0; 
stroke:#000000; stroke-width:0; stroke-opacity:1; 
stroke-linecap:round; stroke-linejoin:round;fill-rule:evenodd;"
d="M 23931.1,40370.1
23931.1,40724.4
23143.7,40724.4
23143.7,40370.1
Z" /> 
<path style="fill:#000000; fill-opacity:1.0; 
stroke:#000000; stroke-width:0; stroke-opacity:1; 
stroke-linecap:round; stroke-linejoin:round;fill-rule:evenodd;"
d="M 23931.1,39870.1
23931.1,40224.4
23143.7,40224.4
23143.7,39870.1
Z" /> 
<path style="fill:#000000; fill-opacity:1.0; 
stroke:#000000; stroke-width:0; stroke-opacity:1; 
stroke-linecap:round; stroke-linejoin:round;fill-rule:evenodd;"
d="M 23931.1,39370.1
23931.1,39724.4
23143.7,39724.4
23143.7,39370.1
Z" /> 
<path style="fill:#000000; fill-opacity:1.0; 
stroke:#000000; stroke-width:0; stroke-opacity:1; 
stroke-linecap:round; stroke-linejoin:round;fill-rule:evenodd;"
d="M 23931.1,38870.1
23931.1,39224.4
23143.7,39224.4
23143.7,38870.1
Z" /> 
<path style="fill:#000000; fill-opacity:1.0; 
stroke:#000000; stroke-width:0; stroke-opacity:1; 
stroke-linecap:round; stroke-linejoin:round;fill-rule:evenodd;"
d="M 23931.1,38370.1
23931.1,38724.4
23143.7,38724.4
23143.7,38370.1
Z" /> 
<path style="fill:#000000; fill-opacity:1.0; 
stroke:#000000; stroke-width:0; stroke-opacity:1; 
stroke-linecap:round; stroke-linejoin:round;fill-rule:evenodd;"
d="M 23931.1,37870.1
23931.1,38224.4
23143.7,38224.4
23143.7,37870.1
Z" /> 
<path style="fill:#000000; fill-opacity:1.0; 
stroke:#000000; stroke-width:0; stroke-opacity:1; 
stroke-linecap:round; stroke-linejoin:round;fill-rule:evenodd;"
d="M 23931.1,37370.1
23931.1,37724.4
23143.7,37724.4
23143.7,37370.1
Z" /> 
<path style="fill:#000000; fill-opacity:1.0; 
stroke:#000000; stroke-width:0; stroke-opacity:1; 
stroke-linecap:round; stroke-linejoin:round;fill-rule:evenodd;"
d="M 23320.9,36844.5
22966.5,36844.5
22966.5,36057.1
23320.9,36057.1
Z" /> 
<path style="fill:#000000; fill-opacity:1.0; 
stroke:#000000; stroke-width:0; stroke-opacity:1; 
stroke-linecap:round; stroke-linejoin:round;fill-rule:evenodd;"
d="M 22820.9,36844.5
22466.5,36844.5
22466.5,36057.1
22820.9,36057.1
Z" /> 
<path style="fill:#000000; fill-opacity:1.0; 
stroke:#000000; stroke-width:0; stroke-opacity:1; 
stroke-linecap:round; stroke-linejoin:round;fill-rule:evenodd;"
d="M 22320.9,36844.5
21966.5,36844.5
21966.5,36057.1
22320.9,36057.1
Z" /> 
<path style="fill:#000000; fill-opacity:1.0; 
stroke:#000000; stroke-width:0; stroke-opacity:1; 
stroke-linecap:round; stroke-linejoin:round;fill-rule:evenodd;"
d="M 21820.9,36844.5
21466.5,36844.5
21466.5,36057.1
21820.9,36057.1
Z" /> 
<path style="fill:#000000; fill-opacity:1.0; 
stroke:#000000; stroke-width:0; stroke-opacity:1; 
stroke-linecap:round; stroke-linejoin:round;fill-rule:evenodd;"
d="M 21320.9,36844.5
20966.5,36844.5
20966.5,36057.1
21320.9,36057.1
Z" /> 
<path style="fill:#000000; fill-opacity:1.0; 
stroke:#000000; stroke-width:0; stroke-opacity:1; 
stroke-linecap:round; stroke-linejoin:round;fill-rule:evenodd;"
d="M 20820.9,36844.5
20466.5,36844.5
20466.5,36057.1
20820.9,36057.1
Z" /> 
<path style="fill:#000000; fill-opacity:1.0; 
stroke:#000000; stroke-width:0; stroke-opacity:1; 
stroke-linecap:round; stroke-linejoin:round;fill-rule:evenodd;"
d="M 20320.9,36844.5
19966.5,36844.5
19966.5,36057.1
20320.9,36057.1
Z" /> 
<path style="fill:#000000; fill-opacity:1.0; 
stroke:#000000; stroke-width:0; stroke-opacity:1; 
stroke-linecap:round; stroke-linejoin:round;fill-rule:evenodd;"
d="M 19820.9,36844.5
19466.5,36844.5
19466.5,36057.1
19820.9,36057.1
Z" /> 
<path style="fill:#000000; fill-opacity:1.0; 
stroke:#000000; stroke-width:0; stroke-opacity:1; 
stroke-linecap:round; stroke-linejoin:round;fill-rule:evenodd;"
d="M 19320.9,36844.5
18966.5,36844.5
18966.5,36057.1
19320.9,36057.1
Z" /> 
<path style="fill:#000000; fill-opacity:1.0; 
stroke:#000000; stroke-width:0; stroke-opacity:1; 
stroke-linecap:round; stroke-linejoin:round;fill-rule:evenodd;"
d="M 18820.9,36844.5
18466.5,36844.5
18466.5,36057.1
18820.9,36057.1
Z" /> 
<path style="fill:#000000; fill-opacity:1.0; 
stroke:#000000; stroke-width:0; stroke-opacity:1; 
stroke-linecap:round; stroke-linejoin:round;fill-rule:evenodd;"
d="M 18320.9,36844.5
17966.5,36844.5
17966.5,36057.1
18320.9,36057.1
Z" /> 
<path style="fill:#000000; fill-opacity:1.0; 
stroke:#000000; stroke-width:0; stroke-opacity:1; 
stroke-linecap:round; stroke-linejoin:round;fill-rule:evenodd;"
d="M 17820.9,36844.5
17466.5,36844.5
17466.5,36057.1
17820.9,36057.1
Z" /> 
<path style="fill:#000000; fill-opacity:1.0; 
stroke:#000000; stroke-width:0; stroke-opacity:1; 
stroke-linecap:round; stroke-linejoin:round;fill-rule:evenodd;"
d="M 17320.9,36844.5
16966.5,36844.5
16966.5,36057.1
17320.9,36057.1
Z" /> 
<path style="fill:#000000; fill-opacity:1.0; 
stroke:#000000; stroke-width:0; stroke-opacity:1; 
stroke-linecap:round; stroke-linejoin:round;fill-rule:evenodd;"
d="M 16820.9,36844.5
16466.5,36844.5
16466.5,36057.1
16820.9,36057.1
Z" /> 
</g>
<g >
</g>
<g style="fill:#000000; fill-opacity:1.0; 
stroke:#000000; stroke-width:0; stroke-opacity:1; 
stroke-linecap:round; stroke-linejoin:round;">
<path style="fill:#000000; fill-opacity:1.0; 
stroke:#000000; stroke-width:0; stroke-opacity:1; 
stroke-linecap:round; stroke-linejoin:round;fill-rule:evenodd;"
d="M 26331.5,37224.9
26341.1,37226.3
26350.4,37228.6
26359.5,37231.9
26368.2,37236
26376.5,37241
26384.3,37246.8
26391.4,37253.2
26397.9,37260.4
26403.7,37268.2
26408.7,37276.4
26412.8,37285.2
26416,37294.3
26418.4,37303.6
26419.8,37313.2
26420.3,37322.8
26420.3,37677.2
26419.8,37686.8
26418.4,37696.4
26416,37705.7
26412.8,37714.8
26408.7,37723.6
26403.7,37731.8
26397.9,37739.6
26391.4,37746.8
26384.3,37753.2
26376.5,37759
26368.2,37764
26359.5,37768.1
26350.4,37771.4
26341.1,37773.7
26331.5,37775.1
26321.9,37775.6
26115.2,37775.6
26105.5,37775.1
26096,37773.7
26086.6,37771.4
26077.5,37768.1
26068.8,37764
26060.5,37759
26052.7,37753.2
26045.6,37746.8
26039.1,37739.6
26033.3,37731.8
26028.4,37723.6
26024.2,37714.8
26021,37705.7
26018.6,37696.4
26017.2,37686.8
26016.7,37677.2
26016.7,37322.8
26017.2,37313.2
26018.6,37303.6
26021,37294.3
26024.2,37285.2
26028.4,37276.4
26033.3,37268.2
26039.1,37260.4
26045.6,37253.2
26052.7,37246.8
26060.5,37241
26068.8,37236
26077.5,37231.9
26086.6,37228.6
26096,37226.3
26105.5,37224.9
26115.2,37224.4
26321.9,37224.4
Z" /> 
<path style="fill:#000000; fill-opacity:1.0; 
stroke:#000000; stroke-width:0; stroke-opacity:1; 
stroke-linecap:round; stroke-linejoin:round;fill-rule:evenodd;"
d="M 25613,37224.9
25622.5,37226.3
25631.9,37228.6
25641,37231.9
25649.7,37236
25658,37241
25665.8,37246.8
25672.9,37253.2
25679.4,37260.4
25685.2,37268.2
25690.2,37276.4
25694.3,37285.2
25697.5,37294.3
25699.9,37303.6
25701.3,37313.2
25701.8,37322.8
25701.8,37677.2
25701.3,37686.8
25699.9,37696.4
25697.5,37705.7
25694.3,37714.8
25690.2,37723.6
25685.2,37731.8
25679.4,37739.6
25672.9,37746.8
25665.8,37753.2
25658,37759
25649.7,37764
25641,37768.1
25631.9,37771.4
25622.5,37773.7
25613,37775.1
25603.3,37775.6
25396.7,37775.6
25387,37775.1
25377.5,37773.7
25368.1,37771.4
25359,37768.1
25350.3,37764
25342,37759
25334.2,37753.2
25327.1,37746.8
25320.6,37739.6
25314.8,37731.8
25309.8,37723.6
25305.7,37714.8
25302.5,37705.7
25300.1,37696.4
25298.7,37686.8
25298.2,37677.2
25298.2,37322.8
25298.7,37313.2
25300.1,37303.6
25302.5,37294.3
25305.7,37285.2
25309.8,37276.4
25314.8,37268.2
25320.6,37260.4
25327.1,37253.2
25334.2,37246.8
25342,37241
25350.3,37236
25359,37231.9
25368.1,37228.6
25377.5,37226.3
25387,37224.9
25396.7,37224.4
25603.3,37224.4
Z" /> 
</g>
<g >
</g>
<g style="fill:#000000; fill-opacity:1.0; 
stroke:#000000; stroke-width:0; stroke-opacity:1; 
stroke-linecap:round; stroke-linejoin:round;">
<path style="fill:#000000; fill-opacity:1.0; 
stroke:#000000; stroke-width:0; stroke-opacity:1; 
stroke-linecap:round; stroke-linejoin:round;fill-rule:evenodd;"
d="M 26331.5,35724.9
26341.1,35726.3
26350.4,35728.6
26359.5,35731.9
26368.2,35736
26376.5,35741
26384.3,35746.8
26391.4,35753.2
26397.9,35760.4
26403.7,35768.2
26408.7,35776.4
26412.8,35785.2
26416,35794.3
26418.4,35803.6
26419.8,35813.2
26420.3,35822.8
26420.3,36177.2
26419.8,36186.8
26418.4,36196.4
26416,36205.7
26412.8,36214.8
26408.7,36223.6
26403.7,36231.8
26397.9,36239.6
26391.4,36246.8
26384.3,36253.2
26376.5,36259
26368.2,36264
26359.5,36268.1
26350.4,36271.4
26341.1,36273.7
26331.5,36275.1
26321.9,36275.6
26115.2,36275.6
26105.5,36275.1
26096,36273.7
26086.6,36271.4
26077.5,36268.1
26068.8,36264
26060.5,36259
26052.7,36253.2
26045.6,36246.8
26039.1,36239.6
26033.3,36231.8
26028.4,36223.6
26024.2,36214.8
26021,36205.7
26018.6,36196.4
26017.2,36186.8
26016.7,36177.2
26016.7,35822.8
26017.2,35813.2
26018.6,35803.6
26021,35794.3
26024.2,35785.2
26028.4,35776.4
26033.3,35768.2
26039.1,35760.4
26045.6,35753.2
26052.7,35746.8
26060.5,35741
26068.8,35736
26077.5,35731.9
26086.6,35728.6
26096,35726.3
26105.5,35724.9
26115.2,35724.4
26321.9,35724.4
Z" /> 
<path style="fill:#000000; fill-opacity:1.0; 
stroke:#000000; stroke-width:0; stroke-opacity:1; 
stroke-linecap:round; stroke-linejoin:round;fill-rule:evenodd;"
d="M 25613,35724.9
25622.5,35726.3
25631.9,35728.6
25641,35731.9
25649.7,35736
25658,35741
25665.8,35746.8
25672.9,35753.2
25679.4,35760.4
25685.2,35768.2
25690.2,35776.4
25694.3,35785.2
25697.5,35794.3
25699.9,35803.6
25701.3,35813.2
25701.8,35822.8
25701.8,36177.2
25701.3,36186.8
25699.9,36196.4
25697.5,36205.7
25694.3,36214.8
25690.2,36223.6
25685.2,36231.8
25679.4,36239.6
25672.9,36246.8
25665.8,36253.2
25658,36259
25649.7,36264
25641,36268.1
25631.9,36271.4
25622.5,36273.7
25613,36275.1
25603.3,36275.6
25396.7,36275.6
25387,36275.1
25377.5,36273.7
25368.1,36271.4
25359,36268.1
25350.3,36264
25342,36259
25334.2,36253.2
25327.1,36246.8
25320.6,36239.6
25314.8,36231.8
25309.8,36223.6
25305.7,36214.8
25302.5,36205.7
25300.1,36196.4
25298.7,36186.8
25298.2,36177.2
25298.2,35822.8
25298.7,35813.2
25300.1,35803.6
25302.5,35794.3
25305.7,35785.2
25309.8,35776.4
25314.8,35768.2
25320.6,35760.4
25327.1,35753.2
25334.2,35746.8
25342,35741
25350.3,35736
25359,35731.9
25368.1,35728.6
25377.5,35726.3
25387,35724.9
25396.7,35724.4
25603.3,35724.4
Z" /> 
</g>
<g >
</g>
<g style="fill:#000000; fill-opacity:1.0; 
stroke:#000000; stroke-width:0; stroke-opacity:1; 
stroke-linecap:round; stroke-linejoin:round;">
<path style="fill:#000000; fill-opacity:1.0; 
stroke:#000000; stroke-width:0; stroke-opacity:1; 
stroke-linecap:round; stroke-linejoin:round;fill-rule:evenodd;"
d="M 25972.2,40724.9
25981.8,40726.3
25991.2,40728.6
26000.3,40731.9
26009,40736
26017.3,40741
26025,40746.8
26032.2,40753.2
26038.7,40760.4
26044.4,40768.2
26049.4,40776.4
26053.5,40785.2
26056.8,40794.3
26059.1,40803.6
26060.5,40813.2
26061,40822.8
26061,41177.2
26060.5,41186.8
26059.1,41196.4
26056.8,41205.7
26053.5,41214.8
26049.4,41223.6
26044.4,41231.8
26038.7,41239.6
26032.2,41246.8
26025,41253.2
26017.3,41259
26009,41264
26000.3,41268.1
25991.2,41271.4
25981.8,41273.7
25972.2,41275.1
25962.6,41275.6
25755.9,41275.6
25746.3,41275.1
25736.7,41273.7
25727.3,41271.4
25718.2,41268.1
25709.5,41264
25701.2,41259
25693.5,41253.2
25686.3,41246.8
25679.8,41239.6
25674.1,41231.8
25669.1,41223.6
25665,41214.8
25661.7,41205.7
25659.4,41196.4
25658,41186.8
25657.5,41177.2
25657.5,40822.8
25658,40813.2
25659.4,40803.6
25661.7,40794.3
25665,40785.2
25669.1,40776.4
25674.1,40768.2
25679.8,40760.4
25686.3,40753.2
25693.5,40746.8
25701.2,40741
25709.5,40736
25718.2,40731.9
25727.3,40728.6
25736.7,40726.3
25746.3,40724.9
25755.9,40724.4
25962.6,40724.4
Z" /> 
<path style="fill:#000000; fill-opacity:1.0; 
stroke:#000000; stroke-width:0; stroke-opacity:1; 
stroke-linecap:round; stroke-linejoin:round;fill-rule:evenodd;"
d="M 25253.7,40724.9
25263.3,40726.3
25272.7,40728.6
25281.8,40731.9
25290.5,40736
25298.8,40741
25306.5,40746.8
25313.7,40753.2
25320.2,40760.4
25325.9,40768.2
25330.9,40776.4
25335,40785.2
25338.3,40794.3
25340.6,40803.6
25342,40813.2
25342.5,40822.8
25342.5,41177.2
25342,41186.8
25340.6,41196.4
25338.3,41205.7
25335,41214.8
25330.9,41223.6
25325.9,41231.8
25320.2,41239.6
25313.7,41246.8
25306.5,41253.2
25298.8,41259
25290.5,41264
25281.8,41268.1
25272.7,41271.4
25263.3,41273.7
25253.7,41275.1
25244.1,41275.6
25037.4,41275.6
25027.8,41275.1
25018.2,41273.7
25008.8,41271.4
24999.7,41268.1
24991,41264
24982.7,41259
24975,41253.2
24967.8,41246.8
24961.3,41239.6
24955.6,41231.8
24950.6,41223.6
24946.5,41214.8
24943.2,41205.7
24940.9,41196.4
24939.5,41186.8
24939,41177.2
24939,40822.8
24939.5,40813.2
24940.9,40803.6
24943.2,40794.3
24946.5,40785.2
24950.6,40776.4
24955.6,40768.2
24961.3,40760.4
24967.8,40753.2
24975,40746.8
24982.7,40741
24991,40736
24999.7,40731.9
25008.8,40728.6
25018.2,40726.3
25027.8,40724.9
25037.4,40724.4
25244.1,40724.4
Z" /> 
</g>
<g >
</g>
<g >
</g>
<g style="fill:#000000; fill-opacity:1.0; 
stroke:#000000; stroke-width:0; stroke-opacity:1; 
stroke-linecap:round; stroke-linejoin:round;">
<path style="fill:#000000; fill-opacity:1.0; 
stroke:#000000; stroke-width:0; stroke-opacity:1; 
stroke-linecap:round; stroke-linejoin:round;fill-rule:evenodd;"
d="M 33689,46227.6
33698.3,46229
33707.5,46231.3
33716.3,46234.5
33724.9,46238.5
33732.9,46243.3
33740.5,46248.9
33747.5,46255.3
33753.8,46262.3
33759.4,46269.8
33764.3,46277.9
33768.3,46286.4
33771.5,46295.3
33773.7,46304.4
33775.1,46313.7
33775.6,46323.1
33775.6,46515.1
33775.1,46524.5
33773.7,46533.8
33771.5,46542.9
33768.3,46551.8
33764.3,46560.3
33759.4,46568.4
33753.8,46575.9
33747.5,46582.9
33740.5,46589.2
33732.9,46594.9
33724.9,46599.7
33716.3,46603.7
33707.5,46606.9
33698.3,46609.2
33689,46610.6
33679.6,46611
33320.4,46611
33311,46610.6
33301.7,46609.2
33292.5,46606.9
33283.7,46603.7
33275.1,46599.7
33267.1,46594.9
33259.5,46589.2
33252.5,46582.9
33246.2,46575.9
33240.6,46568.4
33235.7,46560.3
33231.7,46551.8
33228.5,46542.9
33226.3,46533.8
33224.9,46524.5
33224.4,46515.1
33224.4,46323.1
33224.9,46313.7
33226.3,46304.4
33228.5,46295.3
33231.7,46286.4
33235.7,46277.9
33240.6,46269.8
33246.2,46262.3
33252.5,46255.3
33259.5,46248.9
33267.1,46243.3
33275.1,46238.5
33283.7,46234.5
33292.5,46231.3
33301.7,46229
33311,46227.6
33320.4,46227.2
33679.6,46227.2
Z" /> 
<path style="fill:#000000; fill-opacity:1.0; 
stroke:#000000; stroke-width:0; stroke-opacity:1; 
stroke-linecap:round; stroke-linejoin:round;fill-rule:evenodd;"
d="M 33689,45489.4
33698.3,45490.8
33707.5,45493.1
33716.3,45496.3
33724.9,45500.3
33732.9,45505.1
33740.5,45510.8
33747.5,45517.1
33753.8,45524.1
33759.4,45531.6
33764.3,45539.7
33768.3,45548.2
33771.5,45557.1
33773.7,45566.2
33775.1,45575.5
33775.6,45584.9
33775.6,45776.9
33775.1,45786.3
33773.7,45795.6
33771.5,45804.7
33768.3,45813.6
33764.3,45822.1
33759.4,45830.2
33753.8,45837.7
33747.5,45844.7
33740.5,45851.1
33732.9,45856.7
33724.9,45861.5
33716.3,45865.5
33707.5,45868.7
33698.3,45871
33689,45872.4
33679.6,45872.8
33320.4,45872.8
33311,45872.4
33301.7,45871
33292.5,45868.7
33283.7,45865.5
33275.1,45861.5
33267.1,45856.7
33259.5,45851.1
33252.5,45844.7
33246.2,45837.7
33240.6,45830.2
33235.7,45822.1
33231.7,45813.6
33228.5,45804.7
33226.3,45795.6
33224.9,45786.3
33224.4,45776.9
33224.4,45584.9
33224.9,45575.5
33226.3,45566.2
33228.5,45557.1
33231.7,45548.2
33235.7,45539.7
33240.6,45531.6
33246.2,45524.1
33252.5,45517.1
33259.5,45510.8
33267.1,45505.1
33275.1,45500.3
33283.7,45496.3
33292.5,45493.1
33301.7,45490.8
33311,45489.4
33320.4,45489
33679.6,45489
Z" /> 
</g>
<g >
</g>
<g style="fill:#000000; fill-opacity:1.0; 
stroke:#000000; stroke-width:0; stroke-opacity:1; 
stroke-linecap:round; stroke-linejoin:round;">
<path style="fill:#000000; fill-opacity:1.0; 
stroke:#000000; stroke-width:0; stroke-opacity:1; 
stroke-linecap:round; stroke-linejoin:round;fill-rule:evenodd;"
d="M 28356.1,34215
28365.7,34216.5
28375,34218.8
28384.1,34222.1
28392.9,34226.2
28401.1,34231.2
28408.9,34236.9
28416.1,34243.4
28422.5,34250.6
28428.3,34258.3
28433.3,34266.6
28437.4,34275.3
28440.6,34284.4
28443,34293.8
28444.4,34303.3
28444.9,34313
28444.9,34687
28444.4,34696.7
28443,34706.2
28440.6,34715.6
28437.4,34724.7
28433.3,34733.4
28428.3,34741.7
28422.5,34749.4
28416.1,34756.6
28408.9,34763.1
28401.1,34768.8
28392.9,34773.8
28384.1,34777.9
28375,34781.2
28365.7,34783.5
28356.1,34785
28346.5,34785.4
28149.6,34785.4
28140,34785
28130.4,34783.5
28121,34781.2
28111.9,34777.9
28103.2,34773.8
28094.9,34768.8
28087.2,34763.1
28080,34756.6
28073.5,34749.4
28067.8,34741.7
28062.8,34733.4
28058.7,34724.7
28055.4,34715.6
28053.1,34706.2
28051.7,34696.7
28051.2,34687
28051.2,34313
28051.7,34303.3
28053.1,34293.8
28055.4,34284.4
28058.7,34275.3
28062.8,34266.6
28067.8,34258.3
28073.5,34250.6
28080,34243.4
28087.2,34236.9
28094.9,34231.2
28103.2,34226.2
28111.9,34222.1
28121,34218.8
28130.4,34216.5
28140,34215
28149.6,34214.6
28346.5,34214.6
Z" /> 
<path style="fill:#000000; fill-opacity:1.0; 
stroke:#000000; stroke-width:0; stroke-opacity:1; 
stroke-linecap:round; stroke-linejoin:round;fill-rule:evenodd;"
d="M 27608.1,34215
27617.6,34216.5
27627,34218.8
27636.1,34222.1
27644.8,34226.2
27653.1,34231.2
27660.9,34236.9
27668,34243.4
27674.5,34250.6
27680.3,34258.3
27685.2,34266.6
27689.4,34275.3
27692.6,34284.4
27695,34293.8
27696.4,34303.3
27696.9,34313
27696.9,34687
27696.4,34696.7
27695,34706.2
27692.6,34715.6
27689.4,34724.7
27685.2,34733.4
27680.3,34741.7
27674.5,34749.4
27668,34756.6
27660.9,34763.1
27653.1,34768.8
27644.8,34773.8
27636.1,34777.9
27627,34781.2
27617.6,34783.5
27608.1,34785
27598.4,34785.4
27401.6,34785.4
27391.9,34785
27382.4,34783.5
27373,34781.2
27363.9,34777.9
27355.2,34773.8
27346.9,34768.8
27339.1,34763.1
27332,34756.6
27325.5,34749.4
27319.7,34741.7
27314.8,34733.4
27310.6,34724.7
27307.4,34715.6
27305,34706.2
27303.6,34696.7
27303.1,34687
27303.1,34313
27303.6,34303.3
27305,34293.8
27307.4,34284.4
27310.6,34275.3
27314.8,34266.6
27319.7,34258.3
27325.5,34250.6
27332,34243.4
27339.1,34236.9
27346.9,34231.2
27355.2,34226.2
27363.9,34222.1
27373,34218.8
27382.4,34216.5
27391.9,34215
27401.6,34214.6
27598.4,34214.6
Z" /> 
</g>
<g >
</g>
<g style="fill:#000000; fill-opacity:1.0; 
stroke:#000000; stroke-width:0; stroke-opacity:1; 
stroke-linecap:round; stroke-linejoin:round;">
<path style="fill:#000000; fill-opacity:1.0; 
stroke:#000000; stroke-width:0; stroke-opacity:1; 
stroke-linecap:round; stroke-linejoin:round;fill-rule:evenodd;"
d="M 27702.4,35813.4
27711,35814.7
27719.4,35816.8
27727.6,35819.7
27735.5,35823.5
27742.9,35827.9
27749.9,35833.1
27756.3,35838.9
27762.2,35845.4
27767.4,35852.4
27771.8,35859.8
27775.5,35867.7
27778.5,35875.9
27780.6,35884.3
27781.9,35892.9
27782.3,35901.6
27782.3,36098.4
27781.9,36107.1
27780.6,36115.7
27778.5,36124.1
27775.5,36132.3
27771.8,36140.2
27767.4,36147.6
27762.2,36154.6
27756.3,36161.1
27749.9,36166.9
27742.9,36172.1
27735.5,36176.5
27727.6,36180.3
27719.4,36183.2
27711,36185.3
27702.4,36186.6
27693.7,36187
27516.5,36187
27507.9,36186.6
27499.3,36185.3
27490.8,36183.2
27482.6,36180.3
27474.8,36176.5
27467.3,36172.1
27460.3,36166.9
27453.9,36161.1
27448.1,36154.6
27442.9,36147.6
27438.4,36140.2
27434.7,36132.3
27431.8,36124.1
27429.7,36115.7
27428.4,36107.1
27428,36098.4
27428,35901.6
27428.4,35892.9
27429.7,35884.3
27431.8,35875.9
27434.7,35867.7
27438.4,35859.8
27442.9,35852.4
27448.1,35845.4
27453.9,35838.9
27460.3,35833.1
27467.3,35827.9
27474.8,35823.5
27482.6,35819.7
27490.8,35816.8
27499.3,35814.7
27507.9,35813.4
27516.5,35813
27693.7,35813
Z" /> 
<path style="fill:#000000; fill-opacity:1.0; 
stroke:#000000; stroke-width:0; stroke-opacity:1; 
stroke-linecap:round; stroke-linejoin:round;fill-rule:evenodd;"
d="M 27092.1,35813.4
27100.7,35814.7
27109.2,35816.8
27117.4,35819.7
27125.2,35823.5
27132.7,35827.9
27139.7,35833.1
27146.1,35838.9
27151.9,35845.4
27157.1,35852.4
27161.6,35859.8
27165.3,35867.7
27168.2,35875.9
27170.3,35884.3
27171.6,35892.9
27172,35901.6
27172,36098.4
27171.6,36107.1
27170.3,36115.7
27168.2,36124.1
27165.3,36132.3
27161.6,36140.2
27157.1,36147.6
27151.9,36154.6
27146.1,36161.1
27139.7,36166.9
27132.7,36172.1
27125.2,36176.5
27117.4,36180.3
27109.2,36183.2
27100.7,36185.3
27092.1,36186.6
27083.5,36187
26906.3,36187
26897.6,36186.6
26889,36185.3
26880.6,36183.2
26872.4,36180.3
26864.5,36176.5
26857.1,36172.1
26850.1,36166.9
26843.7,36161.1
26837.8,36154.6
26832.6,36147.6
26828.2,36140.2
26824.5,36132.3
26821.5,36124.1
26819.4,36115.7
26818.1,36107.1
26817.7,36098.4
26817.7,35901.6
26818.1,35892.9
26819.4,35884.3
26821.5,35875.9
26824.5,35867.7
26828.2,35859.8
26832.6,35852.4
26837.8,35845.4
26843.7,35838.9
26850.1,35833.1
26857.1,35827.9
26864.5,35823.5
26872.4,35819.7
26880.6,35816.8
26889,35814.7
26897.6,35813.4
26906.3,35813
27083.5,35813
Z" /> 
</g>
<g >
</g>
<g style="fill:#000000; fill-opacity:1.0; 
stroke:#000000; stroke-width:0; stroke-opacity:1; 
stroke-linecap:round; stroke-linejoin:round;">
<path style="fill:#000000; fill-opacity:1.0; 
stroke:#000000; stroke-width:0; stroke-opacity:1; 
stroke-linecap:round; stroke-linejoin:round;fill-rule:evenodd;"
d="M 25982.1,42215
25991.6,42216.5
26001,42218.8
26010.1,42222.1
26018.8,42226.2
26027.1,42231.2
26034.9,42236.9
26042,42243.4
26048.5,42250.6
26054.3,42258.3
26059.2,42266.6
26063.4,42275.3
26066.6,42284.4
26069,42293.8
26070.4,42303.3
26070.9,42313
26070.9,42687
26070.4,42696.7
26069,42706.2
26066.6,42715.6
26063.4,42724.7
26059.2,42733.4
26054.3,42741.7
26048.5,42749.4
26042,42756.6
26034.9,42763.1
26027.1,42768.8
26018.8,42773.8
26010.1,42777.9
26001,42781.2
25991.6,42783.5
25982.1,42785
25972.4,42785.4
25775.6,42785.4
25765.9,42785
25756.4,42783.5
25747,42781.2
25737.9,42777.9
25729.2,42773.8
25720.9,42768.8
25713.2,42763.1
25706,42756.6
25699.5,42749.4
25693.8,42741.7
25688.8,42733.4
25684.7,42724.7
25681.4,42715.6
25679.1,42706.2
25677.6,42696.7
25677.2,42687
25677.2,42313
25677.6,42303.3
25679.1,42293.8
25681.4,42284.4
25684.7,42275.3
25688.8,42266.6
25693.8,42258.3
25699.5,42250.6
25706,42243.4
25713.2,42236.9
25720.9,42231.2
25729.2,42226.2
25737.9,42222.1
25747,42218.8
25756.4,42216.5
25765.9,42215
25775.6,42214.6
25972.4,42214.6
Z" /> 
<path style="fill:#000000; fill-opacity:1.0; 
stroke:#000000; stroke-width:0; stroke-opacity:1; 
stroke-linecap:round; stroke-linejoin:round;fill-rule:evenodd;"
d="M 25234.1,42215
25243.6,42216.5
25253,42218.8
25262.1,42222.1
25270.8,42226.2
25279.1,42231.2
25286.8,42236.9
25294,42243.4
25300.5,42250.6
25306.2,42258.3
25311.2,42266.6
25315.3,42275.3
25318.6,42284.4
25320.9,42293.8
25322.4,42303.3
25322.8,42313
25322.8,42687
25322.4,42696.7
25320.9,42706.2
25318.6,42715.6
25315.3,42724.7
25311.2,42733.4
25306.2,42741.7
25300.5,42749.4
25294,42756.6
25286.8,42763.1
25279.1,42768.8
25270.8,42773.8
25262.1,42777.9
25253,42781.2
25243.6,42783.5
25234.1,42785
25224.4,42785.4
25027.6,42785.4
25017.9,42785
25008.4,42783.5
24999,42781.2
24989.9,42777.9
24981.2,42773.8
24972.9,42768.8
24965.1,42763.1
24958,42756.6
24951.5,42749.4
24945.7,42741.7
24940.8,42733.4
24936.6,42724.7
24933.4,42715.6
24931,42706.2
24929.6,42696.7
24929.1,42687
24929.1,42313
24929.6,42303.3
24931,42293.8
24933.4,42284.4
24936.6,42275.3
24940.8,42266.6
24945.7,42258.3
24951.5,42250.6
24958,42243.4
24965.1,42236.9
24972.9,42231.2
24981.2,42226.2
24989.9,42222.1
24999,42218.8
25008.4,42216.5
25017.9,42215
25027.6,42214.6
25224.4,42214.6
Z" /> 
</g>
<g >
</g>
<g style="fill:#000000; fill-opacity:1.0; 
stroke:#000000; stroke-width:0; stroke-opacity:1; 
stroke-linecap:round; stroke-linejoin:round;">
<path style="fill:#000000; fill-opacity:1.0; 
stroke:#000000; stroke-width:0; stroke-opacity:1; 
stroke-linecap:round; stroke-linejoin:round;fill-rule:evenodd;"
d="M 29196.7,41729.6
29206.2,41731
29215.6,41733.4
29224.7,41736.6
29233.4,41740.8
29241.7,41745.7
29249.4,41751.5
29256.6,41758
29263.1,41765.1
29268.8,41772.9
29273.8,41781.2
29277.9,41789.9
29281.2,41799
29283.5,41808.4
29285,41817.9
29285.4,41827.6
29285.4,42024.4
29285,42034.1
29283.5,42043.6
29281.2,42053
29277.9,42062.1
29273.8,42070.8
29268.8,42079.1
29263.1,42086.8
29256.6,42094
29249.4,42100.5
29241.7,42106.2
29233.4,42111.2
29224.7,42115.3
29215.6,42118.6
29206.2,42120.9
29196.7,42122.4
29187,42122.8
28813,42122.8
28803.3,42122.4
28793.8,42120.9
28784.4,42118.6
28775.3,42115.3
28766.6,42111.2
28758.3,42106.2
28750.6,42100.5
28743.4,42094
28736.9,42086.8
28731.2,42079.1
28726.2,42070.8
28722.1,42062.1
28718.8,42053
28716.5,42043.6
28715,42034.1
28714.6,42024.4
28714.6,41827.6
28715,41817.9
28716.5,41808.4
28718.8,41799
28722.1,41789.9
28726.2,41781.2
28731.2,41772.9
28736.9,41765.1
28743.4,41758
28750.6,41751.5
28758.3,41745.7
28766.6,41740.8
28775.3,41736.6
28784.4,41733.4
28793.8,41731
28803.3,41729.6
28813,41729.1
29187,41729.1
Z" /> 
<path style="fill:#000000; fill-opacity:1.0; 
stroke:#000000; stroke-width:0; stroke-opacity:1; 
stroke-linecap:round; stroke-linejoin:round;fill-rule:evenodd;"
d="M 29196.7,42477.6
29206.2,42479.1
29215.6,42481.4
29224.7,42484.7
29233.4,42488.8
29241.7,42493.8
29249.4,42499.5
29256.6,42506
29263.1,42513.2
29268.8,42520.9
29273.8,42529.2
29277.9,42537.9
29281.2,42547
29283.5,42556.4
29285,42565.9
29285.4,42575.6
29285.4,42772.4
29285,42782.1
29283.5,42791.6
29281.2,42801
29277.9,42810.1
29273.8,42818.8
29268.8,42827.1
29263.1,42834.9
29256.6,42842
29249.4,42848.5
29241.7,42854.3
29233.4,42859.2
29224.7,42863.4
29215.6,42866.6
29206.2,42869
29196.7,42870.4
29187,42870.9
28813,42870.9
28803.3,42870.4
28793.8,42869
28784.4,42866.6
28775.3,42863.4
28766.6,42859.2
28758.3,42854.3
28750.6,42848.5
28743.4,42842
28736.9,42834.9
28731.2,42827.1
28726.2,42818.8
28722.1,42810.1
28718.8,42801
28716.5,42791.6
28715,42782.1
28714.6,42772.4
28714.6,42575.6
28715,42565.9
28716.5,42556.4
28718.8,42547
28722.1,42537.9
28726.2,42529.2
28731.2,42520.9
28736.9,42513.2
28743.4,42506
28750.6,42499.5
28758.3,42493.8
28766.6,42488.8
28775.3,42484.7
28784.4,42481.4
28793.8,42479.1
28803.3,42477.6
28813,42477.2
29187,42477.2
Z" /> 
</g>
<g >
</g>
<g style="fill:#000000; fill-opacity:1.0; 
stroke:#000000; stroke-width:0; stroke-opacity:1; 
stroke-linecap:round; stroke-linejoin:round;">
<path style="fill:#000000; fill-opacity:1.0; 
stroke:#000000; stroke-width:0; stroke-opacity:1; 
stroke-linecap:round; stroke-linejoin:round;fill-rule:evenodd;"
d="M 27597.3,37313.4
27605.9,37314.7
27614.3,37316.8
27622.5,37319.7
27630.3,37323.5
27637.8,37327.9
27644.8,37333.1
27651.2,37338.9
27657.1,37345.4
27662.2,37352.4
27666.7,37359.8
27670.4,37367.7
27673.4,37375.9
27675.5,37384.3
27676.7,37392.9
27677.2,37401.6
27677.2,37598.4
27676.7,37607.1
27675.5,37615.7
27673.4,37624.1
27670.4,37632.3
27666.7,37640.2
27662.2,37647.6
27657.1,37654.6
27651.2,37661.1
27644.8,37666.9
27637.8,37672.1
27630.3,37676.5
27622.5,37680.3
27614.3,37683.2
27605.9,37685.3
27597.3,37686.6
27588.6,37687
27411.4,37687
27402.7,37686.6
27394.1,37685.3
27385.7,37683.2
27377.5,37680.3
27369.7,37676.5
27362.2,37672.1
27355.2,37666.9
27348.8,37661.1
27342.9,37654.6
27337.8,37647.6
27333.3,37640.2
27329.6,37632.3
27326.6,37624.1
27324.5,37615.7
27323.3,37607.1
27322.8,37598.4
27322.8,37401.6
27323.3,37392.9
27324.5,37384.3
27326.6,37375.9
27329.6,37367.7
27333.3,37359.8
27337.8,37352.4
27342.9,37345.4
27348.8,37338.9
27355.2,37333.1
27362.2,37327.9
27369.7,37323.5
27377.5,37319.7
27385.7,37316.8
27394.1,37314.7
27402.7,37313.4
27411.4,37313
27588.6,37313
Z" /> 
<path style="fill:#000000; fill-opacity:1.0; 
stroke:#000000; stroke-width:0; stroke-opacity:1; 
stroke-linecap:round; stroke-linejoin:round;fill-rule:evenodd;"
d="M 28207.5,37313.4
28216.1,37314.7
28224.5,37316.8
28232.7,37319.7
28240.6,37323.5
28248,37327.9
28255,37333.1
28261.5,37338.9
28267.3,37345.4
28272.5,37352.4
28276.9,37359.8
28280.7,37367.7
28283.6,37375.9
28285.7,37384.3
28287,37392.9
28287.4,37401.6
28287.4,37598.4
28287,37607.1
28285.7,37615.7
28283.6,37624.1
28280.7,37632.3
28276.9,37640.2
28272.5,37647.6
28267.3,37654.6
28261.5,37661.1
28255,37666.9
28248,37672.1
28240.6,37676.5
28232.7,37680.3
28224.5,37683.2
28216.1,37685.3
28207.5,37686.6
28198.8,37687
28021.7,37687
28013,37686.6
28004.4,37685.3
27995.9,37683.2
27987.8,37680.3
27979.9,37676.5
27972.4,37672.1
27965.5,37666.9
27959,37661.1
27953.2,37654.6
27948,37647.6
27943.5,37640.2
27939.8,37632.3
27936.9,37624.1
27934.8,37615.7
27933.5,37607.1
27933.1,37598.4
27933.1,37401.6
27933.5,37392.9
27934.8,37384.3
27936.9,37375.9
27939.8,37367.7
27943.5,37359.8
27948,37352.4
27953.2,37345.4
27959,37338.9
27965.5,37333.1
27972.4,37327.9
27979.9,37323.5
27987.8,37319.7
27995.9,37316.8
28004.4,37314.7
28013,37313.4
28021.7,37313
28198.8,37313
Z" /> 
</g>
<g >
</g>
<g style="fill:#000000; fill-opacity:1.0; 
stroke:#000000; stroke-width:0; stroke-opacity:1; 
stroke-linecap:round; stroke-linejoin:round;">
<path style="fill:#000000; fill-opacity:1.0; 
stroke:#000000; stroke-width:0; stroke-opacity:1; 
stroke-linecap:round; stroke-linejoin:round;fill-rule:evenodd;"
d="M 31634.1,35215
31643.6,35216.5
31653,35218.8
31662.1,35222.1
31670.8,35226.2
31679.1,35231.2
31686.8,35236.9
31694,35243.4
31700.5,35250.6
31706.2,35258.3
31711.2,35266.6
31715.3,35275.3
31718.6,35284.4
31720.9,35293.8
31722.4,35303.3
31722.8,35313
31722.8,35687
31722.4,35696.7
31720.9,35706.2
31718.6,35715.6
31715.3,35724.7
31711.2,35733.4
31706.2,35741.7
31700.5,35749.4
31694,35756.6
31686.8,35763.1
31679.1,35768.8
31670.8,35773.8
31662.1,35777.9
31653,35781.2
31643.6,35783.5
31634.1,35785
31624.4,35785.4
31427.6,35785.4
31417.9,35785
31408.4,35783.5
31399,35781.2
31389.9,35777.9
31381.2,35773.8
31372.9,35768.8
31365.1,35763.1
31358,35756.6
31351.5,35749.4
31345.7,35741.7
31340.8,35733.4
31336.6,35724.7
31333.4,35715.6
31331,35706.2
31329.6,35696.7
31329.1,35687
31329.1,35313
31329.6,35303.3
31331,35293.8
31333.4,35284.4
31336.6,35275.3
31340.8,35266.6
31345.7,35258.3
31351.5,35250.6
31358,35243.4
31365.1,35236.9
31372.9,35231.2
31381.2,35226.2
31389.9,35222.1
31399,35218.8
31408.4,35216.5
31417.9,35215
31427.6,35214.6
31624.4,35214.6
Z" /> 
<path style="fill:#000000; fill-opacity:1.0; 
stroke:#000000; stroke-width:0; stroke-opacity:1; 
stroke-linecap:round; stroke-linejoin:round;fill-rule:evenodd;"
d="M 32382.1,35215
32391.6,35216.5
32401,35218.8
32410.1,35222.1
32418.8,35226.2
32427.1,35231.2
32434.9,35236.9
32442,35243.4
32448.5,35250.6
32454.3,35258.3
32459.2,35266.6
32463.4,35275.3
32466.6,35284.4
32469,35293.8
32470.4,35303.3
32470.9,35313
32470.9,35687
32470.4,35696.7
32469,35706.2
32466.6,35715.6
32463.4,35724.7
32459.2,35733.4
32454.3,35741.7
32448.5,35749.4
32442,35756.6
32434.9,35763.1
32427.1,35768.8
32418.8,35773.8
32410.1,35777.9
32401,35781.2
32391.6,35783.5
32382.1,35785
32372.4,35785.4
32175.6,35785.4
32165.9,35785
32156.4,35783.5
32147,35781.2
32137.9,35777.9
32129.2,35773.8
32120.9,35768.8
32113.2,35763.1
32106,35756.6
32099.5,35749.4
32093.8,35741.7
32088.8,35733.4
32084.7,35724.7
32081.4,35715.6
32079.1,35706.2
32077.6,35696.7
32077.2,35687
32077.2,35313
32077.6,35303.3
32079.1,35293.8
32081.4,35284.4
32084.7,35275.3
32088.8,35266.6
32093.8,35258.3
32099.5,35250.6
32106,35243.4
32113.2,35236.9
32120.9,35231.2
32129.2,35226.2
32137.9,35222.1
32147,35218.8
32156.4,35216.5
32165.9,35215
32175.6,35214.6
32372.4,35214.6
Z" /> 
</g>
<g >
</g>
<g style="fill:#000000; fill-opacity:1.0; 
stroke:#000000; stroke-width:0; stroke-opacity:1; 
stroke-linecap:round; stroke-linejoin:round;">
<path style="fill:#000000; fill-opacity:1.0; 
stroke:#000000; stroke-width:0; stroke-opacity:1; 
stroke-linecap:round; stroke-linejoin:round;fill-rule:evenodd;"
d="M 44340.4,39085.5
44349.9,39086.9
44359.3,39089.3
44368.4,39092.5
44377.1,39096.7
44385.4,39101.6
44393.1,39107.4
44400.3,39113.9
44406.8,39121
44412.5,39128.8
44417.5,39137.1
44421.6,39145.8
44424.9,39154.9
44427.2,39164.3
44428.7,39173.8
44429.1,39183.5
44429.1,39616.5
44428.7,39626.2
44427.2,39635.7
44424.9,39645.1
44421.6,39654.2
44417.5,39662.9
44412.5,39671.2
44406.8,39679
44400.3,39686.1
44393.1,39692.6
44385.4,39698.4
44377.1,39703.3
44368.4,39707.5
44359.3,39710.7
44349.9,39713.1
44340.4,39714.5
44330.7,39715
43503.9,39715
43494.3,39714.5
43484.7,39713.1
43475.4,39710.7
43466.3,39707.5
43457.5,39703.3
43449.3,39698.4
43441.5,39692.6
43434.3,39686.1
43427.9,39679
43422.1,39671.2
43417.1,39662.9
43413,39654.2
43409.8,39645.1
43407.4,39635.7
43406,39626.2
43405.5,39616.5
43405.5,39183.5
43406,39173.8
43407.4,39164.3
43409.8,39154.9
43413,39145.8
43417.1,39137.1
43422.1,39128.8
43427.9,39121
43434.3,39113.9
43441.5,39107.4
43449.3,39101.6
43457.5,39096.7
43466.3,39092.5
43475.4,39089.3
43484.7,39086.9
43494.3,39085.5
43503.9,39085
44330.7,39085
Z" /> 
<path style="fill:#000000; fill-opacity:1.0; 
stroke:#000000; stroke-width:0; stroke-opacity:1; 
stroke-linecap:round; stroke-linejoin:round;fill-rule:evenodd;"
d="M 42923,39085.5
42932.6,39086.9
42942,39089.3
42951.1,39092.5
42959.8,39096.7
42968.1,39101.6
42975.8,39107.4
42983,39113.9
42989.5,39121
42995.2,39128.8
43000.2,39137.1
43004.3,39145.8
43007.6,39154.9
43009.9,39164.3
43011.3,39173.8
43011.8,39183.5
43011.8,39616.5
43011.3,39626.2
43009.9,39635.7
43007.6,39645.1
43004.3,39654.2
43000.2,39662.9
42995.2,39671.2
42989.5,39679
42983,39686.1
42975.8,39692.6
42968.1,39698.4
42959.8,39703.3
42951.1,39707.5
42942,39710.7
42932.6,39713.1
42923,39714.5
42913.4,39715
42086.6,39715
42077,39714.5
42067.4,39713.1
42058,39710.7
42048.9,39707.5
42040.2,39703.3
42031.9,39698.4
42024.2,39692.6
42017,39686.1
42010.5,39679
42004.8,39671.2
41999.8,39662.9
41995.7,39654.2
41992.4,39645.1
41990.1,39635.7
41988.7,39626.2
41988.2,39616.5
41988.2,39183.5
41988.7,39173.8
41990.1,39164.3
41992.4,39154.9
41995.7,39145.8
41999.8,39137.1
42004.8,39128.8
42010.5,39121
42017,39113.9
42024.2,39107.4
42031.9,39101.6
42040.2,39096.7
42048.9,39092.5
42058,39089.3
42067.4,39086.9
42077,39085.5
42086.6,39085
42913.4,39085
Z" /> 
</g>
<g >
</g>
<g style="fill:#000000; fill-opacity:1.0; 
stroke:#000000; stroke-width:0; stroke-opacity:1; 
stroke-linecap:round; stroke-linejoin:round;">
<path style="fill:#000000; fill-opacity:1.0; 
stroke:#000000; stroke-width:0; stroke-opacity:1; 
stroke-linecap:round; stroke-linejoin:round;fill-rule:evenodd;"
d="M 42914.4,41685.5
42923.9,41686.9
42933.3,41689.3
42942.4,41692.5
42951.1,41696.7
42959.4,41701.6
42967.2,41707.4
42974.3,41713.9
42980.8,41721
42986.6,41728.8
42991.5,41737.1
42995.7,41745.8
42998.9,41754.9
43001.3,41764.3
43002.7,41773.8
43003.1,41783.5
43003.1,42216.5
43002.7,42226.2
43001.3,42235.7
42998.9,42245.1
42995.7,42254.2
42991.5,42262.9
42986.6,42271.2
42980.8,42279
42974.3,42286.1
42967.2,42292.6
42959.4,42298.4
42951.1,42303.3
42942.4,42307.5
42933.3,42310.7
42923.9,42313.1
42914.4,42314.5
42904.7,42315
42078,42315
42068.3,42314.5
42058.8,42313.1
42049.4,42310.7
42040.3,42307.5
42031.6,42303.3
42023.3,42298.4
42015.5,42292.6
42008.4,42286.1
42001.9,42279
41996.1,42271.2
41991.1,42262.9
41987,42254.2
41983.8,42245.1
41981.4,42235.7
41980,42226.2
41979.5,42216.5
41979.5,41783.5
41980,41773.8
41981.4,41764.3
41983.8,41754.9
41987,41745.8
41991.1,41737.1
41996.1,41728.8
42001.9,41721
42008.4,41713.9
42015.5,41707.4
42023.3,41701.6
42031.6,41696.7
42040.3,41692.5
42049.4,41689.3
42058.8,41686.9
42068.3,41685.5
42078,41685
42904.7,41685
Z" /> 
<path style="fill:#000000; fill-opacity:1.0; 
stroke:#000000; stroke-width:0; stroke-opacity:1; 
stroke-linecap:round; stroke-linejoin:round;fill-rule:evenodd;"
d="M 44331.7,41685.5
44341.2,41686.9
44350.6,41689.3
44359.7,41692.5
44368.4,41696.7
44376.7,41701.6
44384.5,41707.4
44391.6,41713.9
44398.1,41721
44403.9,41728.8
44408.9,41737.1
44413,41745.8
44416.2,41754.9
44418.6,41764.3
44420,41773.8
44420.5,41783.5
44420.5,42216.5
44420,42226.2
44418.6,42235.7
44416.2,42245.1
44413,42254.2
44408.9,42262.9
44403.9,42271.2
44398.1,42279
44391.6,42286.1
44384.5,42292.6
44376.7,42298.4
44368.4,42303.3
44359.7,42307.5
44350.6,42310.7
44341.2,42313.1
44331.7,42314.5
44322,42315
43495.3,42315
43485.6,42314.5
43476.1,42313.1
43466.7,42310.7
43457.6,42307.5
43448.9,42303.3
43440.6,42298.4
43432.8,42292.6
43425.7,42286.1
43419.2,42279
43413.4,42271.2
43408.5,42262.9
43404.3,42254.2
43401.1,42245.1
43398.7,42235.7
43397.3,42226.2
43396.9,42216.5
43396.9,41783.5
43397.3,41773.8
43398.7,41764.3
43401.1,41754.9
43404.3,41745.8
43408.5,41737.1
43413.4,41728.8
43419.2,41721
43425.7,41713.9
43432.8,41707.4
43440.6,41701.6
43448.9,41696.7
43457.6,41692.5
43466.7,41689.3
43476.1,41686.9
43485.6,41685.5
43495.3,41685
44322,41685
Z" /> 
</g>
<g >
</g>
<g style="fill:#000000; fill-opacity:1.0; 
stroke:#000000; stroke-width:0; stroke-opacity:1; 
stroke-linecap:round; stroke-linejoin:round;">
<path style="fill:#000000; fill-opacity:1.0; 
stroke:#000000; stroke-width:0; stroke-opacity:1; 
stroke-linecap:round; stroke-linejoin:round;fill-rule:evenodd;"
d="M 39726.2,41913.9
39735.7,41915.3
39745.1,41917.6
39754.2,41920.9
39762.9,41925
39771.2,41930
39779,41935.7
39786.1,41942.2
39792.6,41949.4
39798.4,41957.1
39803.3,41965.4
39807.5,41974.1
39810.7,41983.2
39813.1,41992.6
39814.5,42002.2
39815,42011.8
39815,43192.9
39814.5,43202.6
39813.1,43212.1
39810.7,43221.5
39807.5,43230.6
39803.3,43239.3
39798.4,43247.6
39792.6,43255.4
39786.1,43262.5
39779,43269
39771.2,43274.8
39762.9,43279.7
39754.2,43283.8
39745.1,43287.1
39735.7,43289.4
39726.2,43290.9
39716.5,43291.3
39283.5,43291.3
39273.8,43290.9
39264.3,43289.4
39254.9,43287.1
39245.8,43283.8
39237.1,43279.7
39228.8,43274.8
39221,43269
39213.9,43262.5
39207.4,43255.4
39201.6,43247.6
39196.7,43239.3
39192.5,43230.6
39189.3,43221.5
39186.9,43212.1
39185.5,43202.6
39185,43192.9
39185,42011.8
39185.5,42002.2
39186.9,41992.6
39189.3,41983.2
39192.5,41974.1
39196.7,41965.4
39201.6,41957.1
39207.4,41949.4
39213.9,41942.2
39221,41935.7
39228.8,41930
39237.1,41925
39245.8,41920.9
39254.9,41917.6
39264.3,41915.3
39273.8,41913.9
39283.5,41913.4
39716.5,41913.4
Z" /> 
<path style="fill:#000000; fill-opacity:1.0; 
stroke:#000000; stroke-width:0; stroke-opacity:1; 
stroke-linecap:round; stroke-linejoin:round;fill-rule:evenodd;"
d="M 39726.2,39709.1
39735.7,39710.6
39745.1,39712.9
39754.2,39716.2
39762.9,39720.3
39771.2,39725.2
39779,39731
39786.1,39737.5
39792.6,39744.6
39798.4,39752.4
39803.3,39760.7
39807.5,39769.4
39810.7,39778.5
39813.1,39787.9
39814.5,39797.4
39815,39807.1
39815,40988.2
39814.5,40997.8
39813.1,41007.4
39810.7,41016.8
39807.5,41025.9
39803.3,41034.6
39798.4,41042.9
39792.6,41050.6
39786.1,41057.8
39779,41064.3
39771.2,41070
39762.9,41075
39754.2,41079.1
39745.1,41082.4
39735.7,41084.7
39726.2,41086.1
39716.5,41086.6
39283.5,41086.6
39273.8,41086.1
39264.3,41084.7
39254.9,41082.4
39245.8,41079.1
39237.1,41075
39228.8,41070
39221,41064.3
39213.9,41057.8
39207.4,41050.6
39201.6,41042.9
39196.7,41034.6
39192.5,41025.9
39189.3,41016.8
39186.9,41007.4
39185.5,40997.8
39185,40988.2
39185,39807.1
39185.5,39797.4
39186.9,39787.9
39189.3,39778.5
39192.5,39769.4
39196.7,39760.7
39201.6,39752.4
39207.4,39744.6
39213.9,39737.5
39221,39731
39228.8,39725.2
39237.1,39720.3
39245.8,39716.2
39254.9,39712.9
39264.3,39710.6
39273.8,39709.1
39283.5,39708.7
39716.5,39708.7
Z" /> 
</g>
<g >
</g>
<g style="fill:#000000; fill-opacity:1.0; 
stroke:#000000; stroke-width:0; stroke-opacity:1; 
stroke-linecap:round; stroke-linejoin:round;">
<path style="fill:#000000; fill-opacity:1.0; 
stroke:#000000; stroke-width:0; stroke-opacity:1; 
stroke-linecap:round; stroke-linejoin:round;fill-rule:evenodd;"
d="M 37802.6,45085.5
37812.1,45086.9
37821.5,45089.3
37830.6,45092.5
37839.3,45096.7
37847.6,45101.6
37855.4,45107.4
37862.5,45113.9
37869,45121
37874.8,45128.8
37879.7,45137.1
37883.8,45145.8
37887.1,45154.9
37889.4,45164.3
37890.9,45173.8
37891.3,45183.5
37891.3,45616.5
37890.9,45626.2
37889.4,45635.7
37887.1,45645.1
37883.8,45654.2
37879.7,45662.9
37874.8,45671.2
37869,45679
37862.5,45686.1
37855.4,45692.6
37847.6,45698.4
37839.3,45703.3
37830.6,45707.5
37821.5,45710.7
37812.1,45713.1
37802.6,45714.5
37792.9,45715
36611.8,45715
36602.2,45714.5
36592.6,45713.1
36583.2,45710.7
36574.1,45707.5
36565.4,45703.3
36557.1,45698.4
36549.4,45692.6
36542.2,45686.1
36535.7,45679
36530,45671.2
36525,45662.9
36520.9,45654.2
36517.6,45645.1
36515.3,45635.7
36513.9,45626.2
36513.4,45616.5
36513.4,45183.5
36513.9,45173.8
36515.3,45164.3
36517.6,45154.9
36520.9,45145.8
36525,45137.1
36530,45128.8
36535.7,45121
36542.2,45113.9
36549.4,45107.4
36557.1,45101.6
36565.4,45096.7
36574.1,45092.5
36583.2,45089.3
36592.6,45086.9
36602.2,45085.5
36611.8,45085
37792.9,45085
Z" /> 
<path style="fill:#000000; fill-opacity:1.0; 
stroke:#000000; stroke-width:0; stroke-opacity:1; 
stroke-linecap:round; stroke-linejoin:round;fill-rule:evenodd;"
d="M 35597.8,45085.5
35607.4,45086.9
35616.8,45089.3
35625.9,45092.5
35634.6,45096.7
35642.9,45101.6
35650.6,45107.4
35657.8,45113.9
35664.3,45121
35670,45128.8
35675,45137.1
35679.1,45145.8
35682.4,45154.9
35684.7,45164.3
35686.1,45173.8
35686.6,45183.5
35686.6,45616.5
35686.1,45626.2
35684.7,45635.7
35682.4,45645.1
35679.1,45654.2
35675,45662.9
35670,45671.2
35664.3,45679
35657.8,45686.1
35650.6,45692.6
35642.9,45698.4
35634.6,45703.3
35625.9,45707.5
35616.8,45710.7
35607.4,45713.1
35597.8,45714.5
35588.2,45715
34407.1,45715
34397.4,45714.5
34387.9,45713.1
34378.5,45710.7
34369.4,45707.5
34360.7,45703.3
34352.4,45698.4
34344.6,45692.6
34337.5,45686.1
34331,45679
34325.2,45671.2
34320.3,45662.9
34316.2,45654.2
34312.9,45645.1
34310.6,45635.7
34309.1,45626.2
34308.7,45616.5
34308.7,45183.5
34309.1,45173.8
34310.6,45164.3
34312.9,45154.9
34316.2,45145.8
34320.3,45137.1
34325.2,45128.8
34331,45121
34337.5,45113.9
34344.6,45107.4
34352.4,45101.6
34360.7,45096.7
34369.4,45092.5
34378.5,45089.3
34387.9,45086.9
34397.4,45085.5
34407.1,45085
35588.2,45085
Z" /> 
</g>
<g >
</g>
<g style="fill:#000000; fill-opacity:1.0; 
stroke:#000000; stroke-width:0; stroke-opacity:1; 
stroke-linecap:round; stroke-linejoin:round;">
<path style="fill:#000000; fill-opacity:1.0; 
stroke:#000000; stroke-width:0; stroke-opacity:1; 
stroke-linecap:round; stroke-linejoin:round;fill-rule:evenodd;"
d="M 31433.1,42606.3
30566.9,42606.3
30566.9,41503.9
31433.1,41503.9
Z" /> 
<path style="fill:#000000; fill-opacity:1.0; 
stroke:#000000; stroke-width:0; stroke-opacity:1; 
stroke-linecap:round; stroke-linejoin:round;fill-rule:evenodd;"
d="M 31433.1,44496.1
30566.9,44496.1
30566.9,43393.7
31433.1,43393.7
Z" /> 
</g>
<g >
</g>
<g style="fill:#000000; fill-opacity:1.0; 
stroke:#000000; stroke-width:0; stroke-opacity:1; 
stroke-linecap:round; stroke-linejoin:round;">
<path style="fill:#000000; fill-opacity:1.0; 
stroke:#000000; stroke-width:0; stroke-opacity:1; 
stroke-linecap:round; stroke-linejoin:round;fill-rule:evenodd;"
d="M 30489,46227.6
30498.3,46229
30507.5,46231.3
30516.3,46234.5
30524.9,46238.5
30532.9,46243.3
30540.5,46248.9
30547.5,46255.3
30553.8,46262.3
30559.4,46269.8
30564.3,46277.9
30568.3,46286.4
30571.5,46295.3
30573.7,46304.4
30575.1,46313.7
30575.6,46323.1
30575.6,46515.1
30575.1,46524.5
30573.7,46533.8
30571.5,46542.9
30568.3,46551.8
30564.3,46560.3
30559.4,46568.4
30553.8,46575.9
30547.5,46582.9
30540.5,46589.2
30532.9,46594.9
30524.9,46599.7
30516.3,46603.7
30507.5,46606.9
30498.3,46609.2
30489,46610.6
30479.6,46611
30120.4,46611
30111,46610.6
30101.7,46609.2
30092.5,46606.9
30083.6,46603.7
30075.1,46599.7
30067.1,46594.9
30059.5,46589.2
30052.5,46582.9
30046.2,46575.9
30040.6,46568.4
30035.7,46560.3
30031.7,46551.8
30028.5,46542.9
30026.3,46533.8
30024.9,46524.5
30024.4,46515.1
30024.4,46323.1
30024.9,46313.7
30026.3,46304.4
30028.5,46295.3
30031.7,46286.4
30035.7,46277.9
30040.6,46269.8
30046.2,46262.3
30052.5,46255.3
30059.5,46248.9
30067.1,46243.3
30075.1,46238.5
30083.6,46234.5
30092.5,46231.3
30101.7,46229
30111,46227.6
30120.4,46227.2
30479.6,46227.2
Z" /> 
<path style="fill:#000000; fill-opacity:1.0; 
stroke:#000000; stroke-width:0; stroke-opacity:1; 
stroke-linecap:round; stroke-linejoin:round;fill-rule:evenodd;"
d="M 30489,45489.4
30498.3,45490.8
30507.5,45493.1
30516.3,45496.3
30524.9,45500.3
30532.9,45505.1
30540.5,45510.8
30547.5,45517.1
30553.8,45524.1
30559.4,45531.6
30564.3,45539.7
30568.3,45548.2
30571.5,45557.1
30573.7,45566.2
30575.1,45575.5
30575.6,45584.9
30575.6,45776.9
30575.1,45786.3
30573.7,45795.6
30571.5,45804.7
30568.3,45813.6
30564.3,45822.1
30559.4,45830.2
30553.8,45837.7
30547.5,45844.7
30540.5,45851.1
30532.9,45856.7
30524.9,45861.5
30516.3,45865.5
30507.5,45868.7
30498.3,45871
30489,45872.4
30479.6,45872.8
30120.4,45872.8
30111,45872.4
30101.7,45871
30092.5,45868.7
30083.6,45865.5
30075.1,45861.5
30067.1,45856.7
30059.5,45851.1
30052.5,45844.7
30046.2,45837.7
30040.6,45830.2
30035.7,45822.1
30031.7,45813.6
30028.5,45804.7
30026.3,45795.6
30024.9,45786.3
30024.4,45776.9
30024.4,45584.9
30024.9,45575.5
30026.3,45566.2
30028.5,45557.1
30031.7,45548.2
30035.7,45539.7
30040.6,45531.6
30046.2,45524.1
30052.5,45517.1
30059.5,45510.8
30067.1,45505.1
30075.1,45500.3
30083.6,45496.3
30092.5,45493.1
30101.7,45490.8
30111,45489.4
30120.4,45489
30479.6,45489
Z" /> 
</g>
<g >
</g>
<g style="fill:#000000; fill-opacity:1.0; 
stroke:#000000; stroke-width:0; stroke-opacity:1; 
stroke-linecap:round; stroke-linejoin:round;">
<path style="fill:#000000; fill-opacity:1.0; 
stroke:#000000; stroke-width:0; stroke-opacity:1; 
stroke-linecap:round; stroke-linejoin:round;fill-rule:evenodd;"
d="M 28216.5,39157.5
28216.5,38842.5
28570.9,38842.5
28570.9,39157.5
Z" /> 
<path style="fill:#000000; fill-opacity:1.0; 
stroke:#000000; stroke-width:0; stroke-opacity:1; 
stroke-linecap:round; stroke-linejoin:round;fill-rule:evenodd;"
d="M 27429.1,39531.5
27429.1,39216.5
27783.5,39216.5
27783.5,39531.5
Z" /> 
<path style="fill:#000000; fill-opacity:1.0; 
stroke:#000000; stroke-width:0; stroke-opacity:1; 
stroke-linecap:round; stroke-linejoin:round;fill-rule:evenodd;"
d="M 27429.1,38783.5
27429.1,38468.5
27783.5,38468.5
27783.5,38783.5
Z" /> 
</g>
<g >
</g>
<g style="fill:#000000; fill-opacity:1.0; 
stroke:#000000; stroke-width:0; stroke-opacity:1; 
stroke-linecap:round; stroke-linejoin:round;">
<path style="fill:#000000; fill-opacity:1.0; 
stroke:#000000; stroke-width:0; stroke-opacity:1; 
stroke-linecap:round; stroke-linejoin:round;fill-rule:evenodd;"
d="M 25783.5,39570.9
25468.5,39570.9
25468.5,39216.5
25783.5,39216.5
Z" /> 
<path style="fill:#000000; fill-opacity:1.0; 
stroke:#000000; stroke-width:0; stroke-opacity:1; 
stroke-linecap:round; stroke-linejoin:round;fill-rule:evenodd;"
d="M 26531.5,39570.9
26216.5,39570.9
26216.5,39216.5
26531.5,39216.5
Z" /> 
<path style="fill:#000000; fill-opacity:1.0; 
stroke:#000000; stroke-width:0; stroke-opacity:1; 
stroke-linecap:round; stroke-linejoin:round;fill-rule:evenodd;"
d="M 26157.5,38783.5
25842.5,38783.5
25842.5,38429.1
26157.5,38429.1
Z" /> 
</g>
<g >
</g>
<g style="fill:#000000; fill-opacity:1.0; 
stroke:#000000; stroke-width:0; stroke-opacity:1; 
stroke-linecap:round; stroke-linejoin:round;">
<path style="fill:#000000; fill-opacity:1.0; 
stroke:#000000; stroke-width:0; stroke-opacity:1; 
stroke-linecap:round; stroke-linejoin:round;fill-rule:evenodd;"
d="M 27831.5,42224.9
27841.1,42226.3
27850.4,42228.6
27859.5,42231.9
27868.2,42236
27876.5,42241
27884.3,42246.8
27891.4,42253.2
27897.9,42260.4
27903.7,42268.2
27908.7,42276.4
27912.8,42285.2
27916,42294.3
27918.4,42303.6
27919.8,42313.2
27920.3,42322.8
27920.3,42677.2
27919.8,42686.8
27918.4,42696.4
27916,42705.7
27912.8,42714.8
27908.7,42723.6
27903.7,42731.8
27897.9,42739.6
27891.4,42746.8
27884.3,42753.2
27876.5,42759
27868.2,42764
27859.5,42768.1
27850.4,42771.4
27841.1,42773.7
27831.5,42775.1
27821.9,42775.6
27615.2,42775.6
27605.5,42775.1
27596,42773.7
27586.6,42771.4
27577.5,42768.1
27568.8,42764
27560.5,42759
27552.7,42753.2
27545.6,42746.8
27539.1,42739.6
27533.3,42731.8
27528.4,42723.6
27524.2,42714.8
27521,42705.7
27518.6,42696.4
27517.2,42686.8
27516.7,42677.2
27516.7,42322.8
27517.2,42313.2
27518.6,42303.6
27521,42294.3
27524.2,42285.2
27528.4,42276.4
27533.3,42268.2
27539.1,42260.4
27545.6,42253.2
27552.7,42246.8
27560.5,42241
27568.8,42236
27577.5,42231.9
27586.6,42228.6
27596,42226.3
27605.5,42224.9
27615.2,42224.4
27821.9,42224.4
Z" /> 
<path style="fill:#000000; fill-opacity:1.0; 
stroke:#000000; stroke-width:0; stroke-opacity:1; 
stroke-linecap:round; stroke-linejoin:round;fill-rule:evenodd;"
d="M 27113,42224.9
27122.5,42226.3
27131.9,42228.6
27141,42231.9
27149.7,42236
27158,42241
27165.8,42246.8
27172.9,42253.2
27179.4,42260.4
27185.2,42268.2
27190.1,42276.4
27194.3,42285.2
27197.5,42294.3
27199.9,42303.6
27201.3,42313.2
27201.8,42322.8
27201.8,42677.2
27201.3,42686.8
27199.9,42696.4
27197.5,42705.7
27194.3,42714.8
27190.1,42723.6
27185.2,42731.8
27179.4,42739.6
27172.9,42746.8
27165.8,42753.2
27158,42759
27149.7,42764
27141,42768.1
27131.9,42771.4
27122.5,42773.7
27113,42775.1
27103.3,42775.6
26896.7,42775.6
26887,42775.1
26877.5,42773.7
26868.1,42771.4
26859,42768.1
26850.3,42764
26842,42759
26834.2,42753.2
26827.1,42746.8
26820.6,42739.6
26814.8,42731.8
26809.8,42723.6
26805.7,42714.8
26802.5,42705.7
26800.1,42696.4
26798.7,42686.8
26798.2,42677.2
26798.2,42322.8
26798.7,42313.2
26800.1,42303.6
26802.5,42294.3
26805.7,42285.2
26809.8,42276.4
26814.8,42268.2
26820.6,42260.4
26827.1,42253.2
26834.2,42246.8
26842,42241
26850.3,42236
26859,42231.9
26868.1,42228.6
26877.5,42226.3
26887,42224.9
26896.7,42224.4
27103.3,42224.4
Z" /> 
</g>
<g >
</g>
<g style="fill:#000000; fill-opacity:1.0; 
stroke:#000000; stroke-width:0; stroke-opacity:1; 
stroke-linecap:round; stroke-linejoin:round;">
<path style="fill:#000000; fill-opacity:1.0; 
stroke:#000000; stroke-width:0; stroke-opacity:1; 
stroke-linecap:round; stroke-linejoin:round;fill-rule:evenodd;"
d="M 29753.7,34224.9
29763.3,34226.3
29772.7,34228.6
29781.8,34231.9
29790.5,34236
29798.8,34241
29806.5,34246.8
29813.7,34253.2
29820.2,34260.4
29825.9,34268.2
29830.9,34276.4
29835,34285.2
29838.3,34294.3
29840.6,34303.6
29842,34313.2
29842.5,34322.8
29842.5,34677.2
29842,34686.8
29840.6,34696.4
29838.3,34705.7
29835,34714.8
29830.9,34723.6
29825.9,34731.8
29820.2,34739.6
29813.7,34746.8
29806.5,34753.2
29798.8,34759
29790.5,34764
29781.8,34768.1
29772.7,34771.4
29763.3,34773.7
29753.7,34775.1
29744.1,34775.6
29537.4,34775.6
29527.8,34775.1
29518.2,34773.7
29508.8,34771.4
29499.7,34768.1
29491,34764
29482.7,34759
29475,34753.2
29467.8,34746.8
29461.3,34739.6
29455.6,34731.8
29450.6,34723.6
29446.5,34714.8
29443.2,34705.7
29440.9,34696.4
29439.5,34686.8
29439,34677.2
29439,34322.8
29439.5,34313.2
29440.9,34303.6
29443.2,34294.3
29446.5,34285.2
29450.6,34276.4
29455.6,34268.2
29461.3,34260.4
29467.8,34253.2
29475,34246.8
29482.7,34241
29491,34236
29499.7,34231.9
29508.8,34228.6
29518.2,34226.3
29527.8,34224.9
29537.4,34224.4
29744.1,34224.4
Z" /> 
<path style="fill:#000000; fill-opacity:1.0; 
stroke:#000000; stroke-width:0; stroke-opacity:1; 
stroke-linecap:round; stroke-linejoin:round;fill-rule:evenodd;"
d="M 30472.2,34224.9
30481.8,34226.3
30491.2,34228.6
30500.3,34231.9
30509,34236
30517.3,34241
30525,34246.8
30532.2,34253.2
30538.7,34260.4
30544.4,34268.2
30549.4,34276.4
30553.5,34285.2
30556.8,34294.3
30559.1,34303.6
30560.5,34313.2
30561,34322.8
30561,34677.2
30560.5,34686.8
30559.1,34696.4
30556.8,34705.7
30553.5,34714.8
30549.4,34723.6
30544.4,34731.8
30538.7,34739.6
30532.2,34746.8
30525,34753.2
30517.3,34759
30509,34764
30500.3,34768.1
30491.2,34771.4
30481.8,34773.7
30472.2,34775.1
30462.6,34775.6
30255.9,34775.6
30246.3,34775.1
30236.7,34773.7
30227.3,34771.4
30218.2,34768.1
30209.5,34764
30201.2,34759
30193.5,34753.2
30186.3,34746.8
30179.8,34739.6
30174.1,34731.8
30169.1,34723.6
30165,34714.8
30161.7,34705.7
30159.4,34696.4
30158,34686.8
30157.5,34677.2
30157.5,34322.8
30158,34313.2
30159.4,34303.6
30161.7,34294.3
30165,34285.2
30169.1,34276.4
30174.1,34268.2
30179.8,34260.4
30186.3,34253.2
30193.5,34246.8
30201.2,34241
30209.5,34236
30218.2,34231.9
30227.3,34228.6
30236.7,34226.3
30246.3,34224.9
30255.9,34224.4
30462.6,34224.4
Z" /> 
</g>
<g >
</g>
<g style="fill:#000000; fill-opacity:1.0; 
stroke:#000000; stroke-width:0; stroke-opacity:1; 
stroke-linecap:round; stroke-linejoin:round;">
<path style="fill:#000000; fill-opacity:1.0; 
stroke:#000000; stroke-width:0; stroke-opacity:1; 
stroke-linecap:round; stroke-linejoin:round;fill-rule:evenodd;"
d="M 29753.7,36224.9
29763.3,36226.3
29772.7,36228.6
29781.8,36231.9
29790.5,36236
29798.8,36241
29806.5,36246.8
29813.7,36253.2
29820.2,36260.4
29825.9,36268.2
29830.9,36276.4
29835,36285.2
29838.3,36294.3
29840.6,36303.6
29842,36313.2
29842.5,36322.8
29842.5,36677.2
29842,36686.8
29840.6,36696.4
29838.3,36705.7
29835,36714.8
29830.9,36723.6
29825.9,36731.8
29820.2,36739.6
29813.7,36746.8
29806.5,36753.2
29798.8,36759
29790.5,36764
29781.8,36768.1
29772.7,36771.4
29763.3,36773.7
29753.7,36775.1
29744.1,36775.6
29537.4,36775.6
29527.8,36775.1
29518.2,36773.7
29508.8,36771.4
29499.7,36768.1
29491,36764
29482.7,36759
29475,36753.2
29467.8,36746.8
29461.3,36739.6
29455.6,36731.8
29450.6,36723.6
29446.5,36714.8
29443.2,36705.7
29440.9,36696.4
29439.5,36686.8
29439,36677.2
29439,36322.8
29439.5,36313.2
29440.9,36303.6
29443.2,36294.3
29446.5,36285.2
29450.6,36276.4
29455.6,36268.2
29461.3,36260.4
29467.8,36253.2
29475,36246.8
29482.7,36241
29491,36236
29499.7,36231.9
29508.8,36228.6
29518.2,36226.3
29527.8,36224.9
29537.4,36224.4
29744.1,36224.4
Z" /> 
<path style="fill:#000000; fill-opacity:1.0; 
stroke:#000000; stroke-width:0; stroke-opacity:1; 
stroke-linecap:round; stroke-linejoin:round;fill-rule:evenodd;"
d="M 30472.2,36224.9
30481.8,36226.3
30491.2,36228.6
30500.3,36231.9
30509,36236
30517.3,36241
30525,36246.8
30532.2,36253.2
30538.7,36260.4
30544.4,36268.2
30549.4,36276.4
30553.5,36285.2
30556.8,36294.3
30559.1,36303.6
30560.5,36313.2
30561,36322.8
30561,36677.2
30560.5,36686.8
30559.1,36696.4
30556.8,36705.7
30553.5,36714.8
30549.4,36723.6
30544.4,36731.8
30538.7,36739.6
30532.2,36746.8
30525,36753.2
30517.3,36759
30509,36764
30500.3,36768.1
30491.2,36771.4
30481.8,36773.7
30472.2,36775.1
30462.6,36775.6
30255.9,36775.6
30246.3,36775.1
30236.7,36773.7
30227.3,36771.4
30218.2,36768.1
30209.5,36764
30201.2,36759
30193.5,36753.2
30186.3,36746.8
30179.8,36739.6
30174.1,36731.8
30169.1,36723.6
30165,36714.8
30161.7,36705.7
30159.4,36696.4
30158,36686.8
30157.5,36677.2
30157.5,36322.8
30158,36313.2
30159.4,36303.6
30161.7,36294.3
30165,36285.2
30169.1,36276.4
30174.1,36268.2
30179.8,36260.4
30186.3,36253.2
30193.5,36246.8
30201.2,36241
30209.5,36236
30218.2,36231.9
30227.3,36228.6
30236.7,36226.3
30246.3,36224.9
30255.9,36224.4
30462.6,36224.4
Z" /> 
</g>
<g >
</g>
<g style="fill:#000000; fill-opacity:1.0; 
stroke:#000000; stroke-width:0; stroke-opacity:1; 
stroke-linecap:round; stroke-linejoin:round;">
<path style="fill:#000000; fill-opacity:1.0; 
stroke:#000000; stroke-width:0; stroke-opacity:1; 
stroke-linecap:round; stroke-linejoin:round;fill-rule:evenodd;"
d="M 27753.7,40724.9
27763.3,40726.3
27772.7,40728.6
27781.8,40731.9
27790.5,40736
27798.8,40741
27806.5,40746.8
27813.7,40753.2
27820.2,40760.4
27825.9,40768.2
27830.9,40776.4
27835,40785.2
27838.3,40794.3
27840.6,40803.6
27842,40813.2
27842.5,40822.8
27842.5,41177.2
27842,41186.8
27840.6,41196.4
27838.3,41205.7
27835,41214.8
27830.9,41223.6
27825.9,41231.8
27820.2,41239.6
27813.7,41246.8
27806.5,41253.2
27798.8,41259
27790.5,41264
27781.8,41268.1
27772.7,41271.4
27763.3,41273.7
27753.7,41275.1
27744.1,41275.6
27537.4,41275.6
27527.8,41275.1
27518.2,41273.7
27508.8,41271.4
27499.7,41268.1
27491,41264
27482.7,41259
27475,41253.2
27467.8,41246.8
27461.3,41239.6
27455.6,41231.8
27450.6,41223.6
27446.5,41214.8
27443.2,41205.7
27440.9,41196.4
27439.5,41186.8
27439,41177.2
27439,40822.8
27439.5,40813.2
27440.9,40803.6
27443.2,40794.3
27446.5,40785.2
27450.6,40776.4
27455.6,40768.2
27461.3,40760.4
27467.8,40753.2
27475,40746.8
27482.7,40741
27491,40736
27499.7,40731.9
27508.8,40728.6
27518.2,40726.3
27527.8,40724.9
27537.4,40724.4
27744.1,40724.4
Z" /> 
<path style="fill:#000000; fill-opacity:1.0; 
stroke:#000000; stroke-width:0; stroke-opacity:1; 
stroke-linecap:round; stroke-linejoin:round;fill-rule:evenodd;"
d="M 28472.2,40724.9
28481.8,40726.3
28491.2,40728.6
28500.3,40731.9
28509,40736
28517.3,40741
28525,40746.8
28532.2,40753.2
28538.7,40760.4
28544.4,40768.2
28549.4,40776.4
28553.5,40785.2
28556.8,40794.3
28559.1,40803.6
28560.5,40813.2
28561,40822.8
28561,41177.2
28560.5,41186.8
28559.1,41196.4
28556.8,41205.7
28553.5,41214.8
28549.4,41223.6
28544.4,41231.8
28538.7,41239.6
28532.2,41246.8
28525,41253.2
28517.3,41259
28509,41264
28500.3,41268.1
28491.2,41271.4
28481.8,41273.7
28472.2,41275.1
28462.6,41275.6
28255.9,41275.6
28246.3,41275.1
28236.7,41273.7
28227.3,41271.4
28218.2,41268.1
28209.5,41264
28201.2,41259
28193.5,41253.2
28186.3,41246.8
28179.8,41239.6
28174.1,41231.8
28169.1,41223.6
28165,41214.8
28161.7,41205.7
28159.4,41196.4
28158,41186.8
28157.5,41177.2
28157.5,40822.8
28158,40813.2
28159.4,40803.6
28161.7,40794.3
28165,40785.2
28169.1,40776.4
28174.1,40768.2
28179.8,40760.4
28186.3,40753.2
28193.5,40746.8
28201.2,40741
28209.5,40736
28218.2,40731.9
28227.3,40728.6
28236.7,40726.3
28246.3,40724.9
28255.9,40724.4
28462.6,40724.4
Z" /> 
</g>
<g >
</g>
<g style="fill:#000000; fill-opacity:1.0; 
stroke:#000000; stroke-width:0; stroke-opacity:1; 
stroke-linecap:round; stroke-linejoin:round;">
<path style="fill:#000000; fill-opacity:1.0; 
stroke:#000000; stroke-width:0; stroke-opacity:1; 
stroke-linecap:round; stroke-linejoin:round;fill-rule:evenodd;"
d="M 31986.8,46208
31996.4,46209.4
32005.7,46211.7
32014.8,46215
32023.6,46219.1
32031.8,46224.1
32039.6,46229.8
32046.8,46236.3
32053.2,46243.5
32059,46251.2
32064,46259.5
32068.1,46268.2
32071.4,46277.3
32073.7,46286.7
32075.1,46296.3
32075.6,46305.9
32075.6,46512.6
32075.1,46522.2
32073.7,46531.8
32071.4,46541.2
32068.1,46550.3
32064,46559
32059,46567.3
32053.2,46575
32046.8,46582.2
32039.6,46588.7
32031.8,46594.4
32023.6,46599.4
32014.8,46603.5
32005.7,46606.8
31996.4,46609.1
31986.8,46610.5
31977.2,46611
31622.8,46611
31613.2,46610.5
31603.6,46609.1
31594.3,46606.8
31585.2,46603.5
31576.4,46599.4
31568.2,46594.4
31560.4,46588.7
31553.2,46582.2
31546.8,46575
31541,46567.3
31536,46559
31531.9,46550.3
31528.6,46541.2
31526.3,46531.8
31524.9,46522.2
31524.4,46512.6
31524.4,46305.9
31524.9,46296.3
31526.3,46286.7
31528.6,46277.3
31531.9,46268.2
31536,46259.5
31541,46251.2
31546.8,46243.5
31553.2,46236.3
31560.4,46229.8
31568.2,46224.1
31576.4,46219.1
31585.2,46215
31594.3,46211.7
31603.6,46209.4
31613.2,46208
31622.8,46207.5
31977.2,46207.5
Z" /> 
<path style="fill:#000000; fill-opacity:1.0; 
stroke:#000000; stroke-width:0; stroke-opacity:1; 
stroke-linecap:round; stroke-linejoin:round;fill-rule:evenodd;"
d="M 31986.8,45489.5
31996.4,45490.9
32005.7,45493.2
32014.8,45496.5
32023.6,45500.6
32031.8,45505.6
32039.6,45511.3
32046.8,45517.8
32053.2,45525
32059,45532.7
32064,45541
32068.1,45549.7
32071.4,45558.8
32073.7,45568.2
32075.1,45577.8
32075.6,45587.4
32075.6,45794.1
32075.1,45803.7
32073.7,45813.3
32071.4,45822.7
32068.1,45831.8
32064,45840.5
32059,45848.8
32053.2,45856.5
32046.8,45863.7
32039.6,45870.2
32031.8,45875.9
32023.6,45880.9
32014.8,45885
32005.7,45888.3
31996.4,45890.6
31986.8,45892
31977.2,45892.5
31622.8,45892.5
31613.2,45892
31603.6,45890.6
31594.3,45888.3
31585.2,45885
31576.4,45880.9
31568.2,45875.9
31560.4,45870.2
31553.2,45863.7
31546.8,45856.5
31541,45848.8
31536,45840.5
31531.9,45831.8
31528.6,45822.7
31526.3,45813.3
31524.9,45803.7
31524.4,45794.1
31524.4,45587.4
31524.9,45577.8
31526.3,45568.2
31528.6,45558.8
31531.9,45549.7
31536,45541
31541,45532.7
31546.8,45525
31553.2,45517.8
31560.4,45511.3
31568.2,45505.6
31576.4,45500.6
31585.2,45496.5
31594.3,45493.2
31603.6,45490.9
31613.2,45489.5
31622.8,45489
31977.2,45489
Z" /> 
</g>
<g >
</g>
<g style="fill:#000000; fill-opacity:1.0; 
stroke:#000000; stroke-width:0; stroke-opacity:1; 
stroke-linecap:round; stroke-linejoin:round;">
<path style="fill:#000000; fill-opacity:1.0; 
stroke:#000000; stroke-width:0; stroke-opacity:1; 
stroke-linecap:round; stroke-linejoin:round;fill-rule:evenodd;"
d="M 29186.8,46158
29196.4,46159.4
29205.7,46161.7
29214.8,46165
29223.6,46169.1
29231.8,46174.1
29239.6,46179.8
29246.8,46186.3
29253.2,46193.5
29259,46201.2
29264,46209.5
29268.1,46218.2
29271.4,46227.3
29273.7,46236.7
29275.1,46246.3
29275.6,46255.9
29275.6,46462.6
29275.1,46472.2
29273.7,46481.8
29271.4,46491.2
29268.1,46500.3
29264,46509
29259,46517.3
29253.2,46525
29246.8,46532.2
29239.6,46538.7
29231.8,46544.4
29223.6,46549.4
29214.8,46553.5
29205.7,46556.8
29196.4,46559.1
29186.8,46560.5
29177.2,46561
28822.8,46561
28813.2,46560.5
28803.6,46559.1
28794.3,46556.8
28785.2,46553.5
28776.4,46549.4
28768.2,46544.4
28760.4,46538.7
28753.2,46532.2
28746.8,46525
28741,46517.3
28736,46509
28731.9,46500.3
28728.6,46491.2
28726.3,46481.8
28724.9,46472.2
28724.4,46462.6
28724.4,46255.9
28724.9,46246.3
28726.3,46236.7
28728.6,46227.3
28731.9,46218.2
28736,46209.5
28741,46201.2
28746.8,46193.5
28753.2,46186.3
28760.4,46179.8
28768.2,46174.1
28776.4,46169.1
28785.2,46165
28794.3,46161.7
28803.6,46159.4
28813.2,46158
28822.8,46157.5
29177.2,46157.5
Z" /> 
<path style="fill:#000000; fill-opacity:1.0; 
stroke:#000000; stroke-width:0; stroke-opacity:1; 
stroke-linecap:round; stroke-linejoin:round;fill-rule:evenodd;"
d="M 29186.8,45439.5
29196.4,45440.9
29205.7,45443.2
29214.8,45446.5
29223.6,45450.6
29231.8,45455.6
29239.6,45461.3
29246.8,45467.8
29253.2,45475
29259,45482.7
29264,45491
29268.1,45499.7
29271.4,45508.8
29273.7,45518.2
29275.1,45527.8
29275.6,45537.4
29275.6,45744.1
29275.1,45753.7
29273.7,45763.3
29271.4,45772.7
29268.1,45781.8
29264,45790.5
29259,45798.8
29253.2,45806.5
29246.8,45813.7
29239.6,45820.2
29231.8,45825.9
29223.6,45830.9
29214.8,45835
29205.7,45838.3
29196.4,45840.6
29186.8,45842
29177.2,45842.5
28822.8,45842.5
28813.2,45842
28803.6,45840.6
28794.3,45838.3
28785.2,45835
28776.4,45830.9
28768.2,45825.9
28760.4,45820.2
28753.2,45813.7
28746.8,45806.5
28741,45798.8
28736,45790.5
28731.9,45781.8
28728.6,45772.7
28726.3,45763.3
28724.9,45753.7
28724.4,45744.1
28724.4,45537.4
28724.9,45527.8
28726.3,45518.2
28728.6,45508.8
28731.9,45499.7
28736,45491
28741,45482.7
28746.8,45475
28753.2,45467.8
28760.4,45461.3
28768.2,45455.6
28776.4,45450.6
28785.2,45446.5
28794.3,45443.2
28803.6,45440.9
28813.2,45439.5
28822.8,45439
29177.2,45439
Z" /> 
</g>
<g >
</g>
<g style="fill:#000000; fill-opacity:1.0; 
stroke:#000000; stroke-width:0; stroke-opacity:1; 
stroke-linecap:round; stroke-linejoin:round;">
<path style="fill:#000000; fill-opacity:1.0; 
stroke:#000000; stroke-width:0; stroke-opacity:1; 
stroke-linecap:round; stroke-linejoin:round;fill-rule:evenodd;"
d="M 25186.8,43239.5
25196.4,43240.9
25205.7,43243.2
25214.8,43246.5
25223.6,43250.6
25231.8,43255.6
25239.6,43261.3
25246.8,43267.8
25253.2,43275
25259,43282.7
25264,43291
25268.1,43299.7
25271.4,43308.8
25273.7,43318.2
25275.1,43327.8
25275.6,43337.4
25275.6,43544.1
25275.1,43553.7
25273.7,43563.3
25271.4,43572.7
25268.1,43581.8
25264,43590.5
25259,43598.8
25253.2,43606.5
25246.8,43613.7
25239.6,43620.2
25231.8,43625.9
25223.6,43630.9
25214.8,43635
25205.7,43638.3
25196.4,43640.6
25186.8,43642
25177.2,43642.5
24822.8,43642.5
24813.2,43642
24803.6,43640.6
24794.3,43638.3
24785.2,43635
24776.4,43630.9
24768.2,43625.9
24760.4,43620.2
24753.2,43613.7
24746.8,43606.5
24741,43598.8
24736,43590.5
24731.9,43581.8
24728.6,43572.7
24726.3,43563.3
24724.9,43553.7
24724.4,43544.1
24724.4,43337.4
24724.9,43327.8
24726.3,43318.2
24728.6,43308.8
24731.9,43299.7
24736,43291
24741,43282.7
24746.8,43275
24753.2,43267.8
24760.4,43261.3
24768.2,43255.6
24776.4,43250.6
24785.2,43246.5
24794.3,43243.2
24803.6,43240.9
24813.2,43239.5
24822.8,43239
25177.2,43239
Z" /> 
<path style="fill:#000000; fill-opacity:1.0; 
stroke:#000000; stroke-width:0; stroke-opacity:1; 
stroke-linecap:round; stroke-linejoin:round;fill-rule:evenodd;"
d="M 25186.8,43958
25196.4,43959.4
25205.7,43961.7
25214.8,43965
25223.6,43969.1
25231.8,43974.1
25239.6,43979.8
25246.8,43986.3
25253.2,43993.5
25259,44001.2
25264,44009.5
25268.1,44018.2
25271.4,44027.3
25273.7,44036.7
25275.1,44046.3
25275.6,44055.9
25275.6,44262.6
25275.1,44272.2
25273.7,44281.8
25271.4,44291.2
25268.1,44300.3
25264,44309
25259,44317.3
25253.2,44325
25246.8,44332.2
25239.6,44338.7
25231.8,44344.4
25223.6,44349.4
25214.8,44353.5
25205.7,44356.8
25196.4,44359.1
25186.8,44360.5
25177.2,44361
24822.8,44361
24813.2,44360.5
24803.6,44359.1
24794.3,44356.8
24785.2,44353.5
24776.4,44349.4
24768.2,44344.4
24760.4,44338.7
24753.2,44332.2
24746.8,44325
24741,44317.3
24736,44309
24731.9,44300.3
24728.6,44291.2
24726.3,44281.8
24724.9,44272.2
24724.4,44262.6
24724.4,44055.9
24724.9,44046.3
24726.3,44036.7
24728.6,44027.3
24731.9,44018.2
24736,44009.5
24741,44001.2
24746.8,43993.5
24753.2,43986.3
24760.4,43979.8
24768.2,43974.1
24776.4,43969.1
24785.2,43965
24794.3,43961.7
24803.6,43959.4
24813.2,43958
24822.8,43957.5
25177.2,43957.5
Z" /> 
</g>
<g >
</g>
<g style="fill:#000000; fill-opacity:1.0; 
stroke:#000000; stroke-width:0; stroke-opacity:1; 
stroke-linecap:round; stroke-linejoin:round;">
<path style="fill:#000000; fill-opacity:1.0; 
stroke:#000000; stroke-width:0; stroke-opacity:1; 
stroke-linecap:round; stroke-linejoin:round;fill-rule:evenodd;"
d="M 26386.8,43239.5
26396.4,43240.9
26405.7,43243.2
26414.8,43246.5
26423.6,43250.6
26431.8,43255.6
26439.6,43261.3
26446.8,43267.8
26453.2,43275
26459,43282.7
26464,43291
26468.1,43299.7
26471.4,43308.8
26473.7,43318.2
26475.1,43327.8
26475.6,43337.4
26475.6,43544.1
26475.1,43553.7
26473.7,43563.3
26471.4,43572.7
26468.1,43581.8
26464,43590.5
26459,43598.8
26453.2,43606.5
26446.8,43613.7
26439.6,43620.2
26431.8,43625.9
26423.6,43630.9
26414.8,43635
26405.7,43638.3
26396.4,43640.6
26386.8,43642
26377.2,43642.5
26022.8,43642.5
26013.2,43642
26003.6,43640.6
25994.3,43638.3
25985.2,43635
25976.4,43630.9
25968.2,43625.9
25960.4,43620.2
25953.2,43613.7
25946.8,43606.5
25941,43598.8
25936,43590.5
25931.9,43581.8
25928.6,43572.7
25926.3,43563.3
25924.9,43553.7
25924.4,43544.1
25924.4,43337.4
25924.9,43327.8
25926.3,43318.2
25928.6,43308.8
25931.9,43299.7
25936,43291
25941,43282.7
25946.8,43275
25953.2,43267.8
25960.4,43261.3
25968.2,43255.6
25976.4,43250.6
25985.2,43246.5
25994.3,43243.2
26003.6,43240.9
26013.2,43239.5
26022.8,43239
26377.2,43239
Z" /> 
<path style="fill:#000000; fill-opacity:1.0; 
stroke:#000000; stroke-width:0; stroke-opacity:1; 
stroke-linecap:round; stroke-linejoin:round;fill-rule:evenodd;"
d="M 26386.8,43958
26396.4,43959.4
26405.7,43961.7
26414.8,43965
26423.6,43969.1
26431.8,43974.1
26439.6,43979.8
26446.8,43986.3
26453.2,43993.5
26459,44001.2
26464,44009.5
26468.1,44018.2
26471.4,44027.3
26473.7,44036.7
26475.1,44046.3
26475.6,44055.9
26475.6,44262.6
26475.1,44272.2
26473.7,44281.8
26471.4,44291.2
26468.1,44300.3
26464,44309
26459,44317.3
26453.2,44325
26446.8,44332.2
26439.6,44338.7
26431.8,44344.4
26423.6,44349.4
26414.8,44353.5
26405.7,44356.8
26396.4,44359.1
26386.8,44360.5
26377.2,44361
26022.8,44361
26013.2,44360.5
26003.6,44359.1
25994.3,44356.8
25985.2,44353.5
25976.4,44349.4
25968.2,44344.4
25960.4,44338.7
25953.2,44332.2
25946.8,44325
25941,44317.3
25936,44309
25931.9,44300.3
25928.6,44291.2
25926.3,44281.8
25924.9,44272.2
25924.4,44262.6
25924.4,44055.9
25924.9,44046.3
25926.3,44036.7
25928.6,44027.3
25931.9,44018.2
25936,44009.5
25941,44001.2
25946.8,43993.5
25953.2,43986.3
25960.4,43979.8
25968.2,43974.1
25976.4,43969.1
25985.2,43965
25994.3,43961.7
26003.6,43959.4
26013.2,43958
26022.8,43957.5
26377.2,43957.5
Z" /> 
</g>
<g >
</g>
<g style="fill:#000000; fill-opacity:1.0; 
stroke:#000000; stroke-width:0; stroke-opacity:1; 
stroke-linecap:round; stroke-linejoin:round;">
<path style="fill:#000000; fill-opacity:1.0; 
stroke:#000000; stroke-width:0; stroke-opacity:1; 
stroke-linecap:round; stroke-linejoin:round;fill-rule:evenodd;"
d="M 31433.1,40496.1
30566.9,40496.1
30566.9,39393.7
31433.1,39393.7
Z" /> 
<path style="fill:#000000; fill-opacity:1.0; 
stroke:#000000; stroke-width:0; stroke-opacity:1; 
stroke-linecap:round; stroke-linejoin:round;fill-rule:evenodd;"
d="M 31433.1,38606.3
30566.9,38606.3
30566.9,37503.9
31433.1,37503.9
Z" /> 
</g>
<g >
</g>
<g style="fill:#000000; fill-opacity:1.0; 
stroke:#000000; stroke-width:0; stroke-opacity:1; 
stroke-linecap:round; stroke-linejoin:round;">
<path style="fill:#000000; fill-opacity:1.0; 
stroke:#000000; stroke-width:0; stroke-opacity:1; 
stroke-linecap:round; stroke-linejoin:round;fill-rule:evenodd;"
d="M 36633.9,42110.2
36633.9,42700.8
35846.5,42700.8
35846.5,42110.2
Z" /> 
<path style="fill:#000000; fill-opacity:1.0; 
stroke:#000000; stroke-width:0; stroke-opacity:1; 
stroke-linecap:round; stroke-linejoin:round;fill-rule:evenodd;"
d="M 36633.9,40299.2
36633.9,40889.8
35846.5,40889.8
35846.5,40299.2
Z" /> 
<path style="fill:#000000; fill-opacity:1.0; 
stroke:#000000; stroke-width:0; stroke-opacity:1; 
stroke-linecap:round; stroke-linejoin:round;fill-rule:evenodd;"
d="M 36633.9,41204.7
36633.9,41795.3
35846.5,41795.3
35846.5,41204.7
Z" /> 
<path style="fill:#000000; fill-opacity:1.0; 
stroke:#000000; stroke-width:0; stroke-opacity:1; 
stroke-linecap:round; stroke-linejoin:round;fill-rule:evenodd;"
d="M 34153.5,40752
34153.5,42248
33366.1,42248
33366.1,40752
Z" /> 
</g>
<g >
</g>
<g >
</g>
<g >
</g>
</g> 
</svg>
