M48
; DRILL file {KiCad (5.1.9)-1} date 07/13/21 09:21:20
; FORMAT={-:-/ absolute / inch / decimal}
; #@! TF.CreationDate,2021-07-13T09:21:20-05:00
; #@! TF.GenerationSoftware,Kicad,Pcbnew,(5.1.9)-1
; #@! TF.FileFunction,Plated,1,2,PTH
FMAT,2
INCH
T1C0.0157
T2C0.0394
T3C0.1378
%
G90
G05
T1
X1.6535Y-3.189
X1.6535Y-3.2677
X1.6535Y-3.3465
X1.6535Y-3.4252
X1.6535Y-4.6457
X1.6535Y-4.7244
X1.6535Y-4.8031
X1.7144Y-4.0372
X1.7323Y-3.189
X1.7323Y-3.2677
X1.7323Y-3.3465
X1.7323Y-3.4252
X1.7323Y-4.6457
X1.7323Y-4.7244
X1.7323Y-4.8031
X1.7717Y-3.8386
X1.811Y-3.189
X1.811Y-3.2677
X1.811Y-3.3465
X1.811Y-3.4252
X1.811Y-4.7244
X1.811Y-4.8031
X1.811Y-4.1535
X1.8504Y-4.6457
X1.8898Y-3.189
X1.8898Y-3.2677
X1.8898Y-3.3465
X1.8898Y-3.4252
X1.8898Y-4.7244
X1.8898Y-4.8031
X1.9251Y-3.5851
X1.9291Y-4.6457
X1.9685Y-3.189
X1.9685Y-3.2677
X1.9685Y-3.3465
X1.9685Y-3.4252
X1.9685Y-4.7244
X1.9685Y-4.8031
X2.0079Y-4.6457
X2.0472Y-3.189
X2.0472Y-3.2677
X2.0472Y-3.3465
X2.0472Y-3.4252
X2.0472Y-4.7244
X2.0472Y-4.8031
X2.0866Y-4.6457
X2.1Y-3.75
X2.126Y-3.189
X2.126Y-3.2677
X2.126Y-3.3465
X2.126Y-3.4252
X2.126Y-4.7244
X2.126Y-4.8031
X2.1457Y-3.937
X2.1654Y-4.6457
X2.2047Y-3.189
X2.2047Y-3.2677
X2.2047Y-3.3465
X2.2047Y-3.4252
X2.2047Y-4.7244
X2.2047Y-4.8031
X2.2441Y-4.6457
X2.2835Y-3.189
X2.2835Y-3.2677
X2.2835Y-3.3465
X2.2835Y-3.4252
X2.2835Y-4.7244
X2.2835Y-4.8031
X2.3228Y-4.6457
X2.3622Y-3.189
X2.3622Y-3.2677
X2.3622Y-3.3465
X2.3622Y-3.4252
X2.4016Y-4.6457
X2.4016Y-4.7244
X2.4016Y-4.8031
X2.4803Y-3.7795
X2.4803Y-4.7244
X2.4803Y-4.8031
X2.52Y-3.39
X2.5591Y-4.8031
X2.6378Y-4.8031
X2.7165Y-4.8031
X2.84Y-3.61
X3.2283Y-3.3858
X3.2283Y-3.4646
X3.3071Y-3.3858
X3.3071Y-3.4646
X3.3465Y-4.3701
X3.3465Y-4.4488
X3.3858Y-3.3858
X3.3858Y-3.4646
X3.4252Y-4.3701
X3.4252Y-4.4488
X3.4646Y-3.3858
X3.4646Y-3.4646
X3.5039Y-4.3701
X3.5433Y-3.3858
X3.5433Y-3.4646
X3.5433Y-3.7795
X3.5827Y-4.3701
X3.622Y-3.3858
X3.622Y-3.4646
X3.622Y-3.6614
X3.622Y-3.7402
X3.622Y-3.8189
X3.6614Y-4.3701
X3.7008Y-3.3858
X3.7008Y-3.4646
X3.7008Y-3.6614
X3.7008Y-3.7402
X3.7008Y-3.8189
X3.7402Y-4.3701
X3.7795Y-3.3858
X3.7795Y-3.4646
X3.7795Y-3.7795
X3.8583Y-3.3858
X3.8583Y-3.4646
X3.937Y-3.3858
X3.937Y-3.4646
X4.0157Y-3.3858
X4.0157Y-3.4646
X4.0945Y-3.3858
X4.0945Y-3.4646
X4.1732Y-3.3858
X4.1732Y-3.4646
X4.3701Y-4.3307
X4.3701Y-4.4094
X4.4094Y-3.622
X4.4094Y-3.7008
X4.4094Y-3.7795
X4.4488Y-4.0551
X4.4488Y-4.3307
X4.4488Y-4.4094
X4.4882Y-3.622
X4.4882Y-3.7008
X4.4882Y-3.7795
X4.5276Y-4.0551
X4.5276Y-4.1339
X4.5276Y-4.3307
X4.5669Y-3.7008
T2
X1.68Y-4.45
X1.68Y-4.55
X1.7Y-3.52
X1.78Y-4.45
X1.78Y-4.55
X1.8Y-3.52
X1.88Y-4.45
X1.88Y-4.55
X1.9Y-3.52
X1.98Y-4.45
X1.98Y-4.55
X2.0Y-3.52
X2.08Y-4.45
X2.08Y-4.55
X2.15Y-3.52
X2.18Y-4.45
X2.18Y-4.55
X2.25Y-3.52
X2.28Y-4.45
X2.28Y-4.55
X2.35Y-3.52
X2.43Y-4.55
X2.53Y-4.55
X2.63Y-4.55
X2.73Y-4.55
X3.5Y-3.65
X3.7992Y-3.65
X4.65Y-3.65
X4.65Y-3.75
X4.65Y-3.85
X4.65Y-3.95
X4.65Y-4.05
X4.65Y-4.15
X4.65Y-4.25
X4.65Y-4.35
T3
X1.2992Y-3.2677
X1.2992Y-4.7244
X4.685Y-3.2677
X4.685Y-4.7244
T2
G00X3.9178Y-4.6861
M15
G01X3.9178Y-4.7451
M16
G05
G00X4.0556Y-4.44
M15
G01X4.1344Y-4.44
M16
G05
G00X4.0694Y-4.6762
M15
G01X4.1206Y-4.6762
M16
G05
G00X4.2722Y-4.6861
M15
G01X4.2722Y-4.7451
M16
G05
T0
M30
