%TF.GenerationSoftware,KiCad,Pcbnew,(5.1.9)-1*%
%TF.CreationDate,2021-07-08T11:56:06-05:00*%
%TF.ProjectId,prueba,70727565-6261-42e6-9b69-6361645f7063,rev?*%
%TF.SameCoordinates,Original*%
%TF.FileFunction,Paste,Top*%
%TF.FilePolarity,Positive*%
%FSLAX46Y46*%
G04 Gerber Fmt 4.6, Leading zero omitted, Abs format (unit mm)*
G04 Created by KiCad (PCBNEW (5.1.9)-1) date 2021-07-08 11:56:06*
%MOMM*%
%LPD*%
G01*
G04 APERTURE LIST*
%ADD10R,2.000000X3.800000*%
%ADD11R,2.000000X1.500000*%
%ADD12R,5.000000X5.000000*%
%ADD13R,0.900000X2.000000*%
%ADD14R,2.000000X0.900000*%
%ADD15R,2.200000X2.800000*%
%ADD16R,0.900000X0.800000*%
%ADD17R,0.800000X0.900000*%
G04 APERTURE END LIST*
D10*
%TO.C,U2*%
X109170000Y-92470000D03*
D11*
X102870000Y-92470000D03*
X102870000Y-94770000D03*
X102870000Y-90170000D03*
%TD*%
D12*
%TO.C,U3*%
X49775000Y-102085000D03*
D13*
X42275000Y-109585000D03*
X43545000Y-109585000D03*
X44815000Y-109585000D03*
X46085000Y-109585000D03*
X47355000Y-109585000D03*
X48625000Y-109585000D03*
X49895000Y-109585000D03*
X51165000Y-109585000D03*
X52435000Y-109585000D03*
X53705000Y-109585000D03*
X54975000Y-109585000D03*
X56245000Y-109585000D03*
X57515000Y-109585000D03*
X58785000Y-109585000D03*
D14*
X59785000Y-106800000D03*
X59785000Y-105530000D03*
X59785000Y-104260000D03*
X59785000Y-102990000D03*
X59785000Y-101720000D03*
X59785000Y-100450000D03*
X59785000Y-99180000D03*
X59785000Y-97910000D03*
X59785000Y-96640000D03*
X59785000Y-95370000D03*
D13*
X58785000Y-92585000D03*
X57515000Y-92585000D03*
X56245000Y-92585000D03*
X54975000Y-92585000D03*
X53705000Y-92585000D03*
X52435000Y-92585000D03*
X51165000Y-92585000D03*
X49895000Y-92585000D03*
X48625000Y-92585000D03*
X47355000Y-92585000D03*
X46085000Y-92585000D03*
X44815000Y-92585000D03*
X43545000Y-92585000D03*
X42275000Y-92585000D03*
%TD*%
%TO.C,R7*%
G36*
G01*
X66082500Y-95700002D02*
X66082500Y-94799998D01*
G75*
G02*
X66332498Y-94550000I249998J0D01*
G01*
X66857502Y-94550000D01*
G75*
G02*
X67107500Y-94799998I0J-249998D01*
G01*
X67107500Y-95700002D01*
G75*
G02*
X66857502Y-95950000I-249998J0D01*
G01*
X66332498Y-95950000D01*
G75*
G02*
X66082500Y-95700002I0J249998D01*
G01*
G37*
G36*
G01*
X64257500Y-95700002D02*
X64257500Y-94799998D01*
G75*
G02*
X64507498Y-94550000I249998J0D01*
G01*
X65032502Y-94550000D01*
G75*
G02*
X65282500Y-94799998I0J-249998D01*
G01*
X65282500Y-95700002D01*
G75*
G02*
X65032502Y-95950000I-249998J0D01*
G01*
X64507498Y-95950000D01*
G75*
G02*
X64257500Y-95700002I0J249998D01*
G01*
G37*
%TD*%
%TO.C,R6*%
G36*
G01*
X66082500Y-91890002D02*
X66082500Y-90989998D01*
G75*
G02*
X66332498Y-90740000I249998J0D01*
G01*
X66857502Y-90740000D01*
G75*
G02*
X67107500Y-90989998I0J-249998D01*
G01*
X67107500Y-91890002D01*
G75*
G02*
X66857502Y-92140000I-249998J0D01*
G01*
X66332498Y-92140000D01*
G75*
G02*
X66082500Y-91890002I0J249998D01*
G01*
G37*
G36*
G01*
X64257500Y-91890002D02*
X64257500Y-90989998D01*
G75*
G02*
X64507498Y-90740000I249998J0D01*
G01*
X65032502Y-90740000D01*
G75*
G02*
X65282500Y-90989998I0J-249998D01*
G01*
X65282500Y-91890002D01*
G75*
G02*
X65032502Y-92140000I-249998J0D01*
G01*
X64507498Y-92140000D01*
G75*
G02*
X64257500Y-91890002I0J249998D01*
G01*
G37*
%TD*%
%TO.C,R2*%
G36*
G01*
X65170000Y-104590002D02*
X65170000Y-103689998D01*
G75*
G02*
X65419998Y-103440000I249998J0D01*
G01*
X65945002Y-103440000D01*
G75*
G02*
X66195000Y-103689998I0J-249998D01*
G01*
X66195000Y-104590002D01*
G75*
G02*
X65945002Y-104840000I-249998J0D01*
G01*
X65419998Y-104840000D01*
G75*
G02*
X65170000Y-104590002I0J249998D01*
G01*
G37*
G36*
G01*
X63345000Y-104590002D02*
X63345000Y-103689998D01*
G75*
G02*
X63594998Y-103440000I249998J0D01*
G01*
X64120002Y-103440000D01*
G75*
G02*
X64370000Y-103689998I0J-249998D01*
G01*
X64370000Y-104590002D01*
G75*
G02*
X64120002Y-104840000I-249998J0D01*
G01*
X63594998Y-104840000D01*
G75*
G02*
X63345000Y-104590002I0J249998D01*
G01*
G37*
%TD*%
%TO.C,Led2*%
G36*
G01*
X85546250Y-118392000D02*
X84633750Y-118392000D01*
G75*
G02*
X84390000Y-118148250I0J243750D01*
G01*
X84390000Y-117660750D01*
G75*
G02*
X84633750Y-117417000I243750J0D01*
G01*
X85546250Y-117417000D01*
G75*
G02*
X85790000Y-117660750I0J-243750D01*
G01*
X85790000Y-118148250D01*
G75*
G02*
X85546250Y-118392000I-243750J0D01*
G01*
G37*
G36*
G01*
X85546250Y-116517000D02*
X84633750Y-116517000D01*
G75*
G02*
X84390000Y-116273250I0J243750D01*
G01*
X84390000Y-115785750D01*
G75*
G02*
X84633750Y-115542000I243750J0D01*
G01*
X85546250Y-115542000D01*
G75*
G02*
X85790000Y-115785750I0J-243750D01*
G01*
X85790000Y-116273250D01*
G75*
G02*
X85546250Y-116517000I-243750J0D01*
G01*
G37*
%TD*%
%TO.C,C1*%
G36*
G01*
X72250000Y-87155000D02*
X72250000Y-88105000D01*
G75*
G02*
X72000000Y-88355000I-250000J0D01*
G01*
X71500000Y-88355000D01*
G75*
G02*
X71250000Y-88105000I0J250000D01*
G01*
X71250000Y-87155000D01*
G75*
G02*
X71500000Y-86905000I250000J0D01*
G01*
X72000000Y-86905000D01*
G75*
G02*
X72250000Y-87155000I0J-250000D01*
G01*
G37*
G36*
G01*
X70350000Y-87155000D02*
X70350000Y-88105000D01*
G75*
G02*
X70100000Y-88355000I-250000J0D01*
G01*
X69600000Y-88355000D01*
G75*
G02*
X69350000Y-88105000I0J250000D01*
G01*
X69350000Y-87155000D01*
G75*
G02*
X69600000Y-86905000I250000J0D01*
G01*
X70100000Y-86905000D01*
G75*
G02*
X70350000Y-87155000I0J-250000D01*
G01*
G37*
%TD*%
%TO.C,C2*%
G36*
G01*
X70567000Y-91190000D02*
X70567000Y-91690000D01*
G75*
G02*
X70342000Y-91915000I-225000J0D01*
G01*
X69892000Y-91915000D01*
G75*
G02*
X69667000Y-91690000I0J225000D01*
G01*
X69667000Y-91190000D01*
G75*
G02*
X69892000Y-90965000I225000J0D01*
G01*
X70342000Y-90965000D01*
G75*
G02*
X70567000Y-91190000I0J-225000D01*
G01*
G37*
G36*
G01*
X69017000Y-91190000D02*
X69017000Y-91690000D01*
G75*
G02*
X68792000Y-91915000I-225000J0D01*
G01*
X68342000Y-91915000D01*
G75*
G02*
X68117000Y-91690000I0J225000D01*
G01*
X68117000Y-91190000D01*
G75*
G02*
X68342000Y-90965000I225000J0D01*
G01*
X68792000Y-90965000D01*
G75*
G02*
X69017000Y-91190000I0J-225000D01*
G01*
G37*
%TD*%
%TO.C,C3*%
G36*
G01*
X65220000Y-108425000D02*
X65220000Y-107475000D01*
G75*
G02*
X65470000Y-107225000I250000J0D01*
G01*
X65970000Y-107225000D01*
G75*
G02*
X66220000Y-107475000I0J-250000D01*
G01*
X66220000Y-108425000D01*
G75*
G02*
X65970000Y-108675000I-250000J0D01*
G01*
X65470000Y-108675000D01*
G75*
G02*
X65220000Y-108425000I0J250000D01*
G01*
G37*
G36*
G01*
X63320000Y-108425000D02*
X63320000Y-107475000D01*
G75*
G02*
X63570000Y-107225000I250000J0D01*
G01*
X64070000Y-107225000D01*
G75*
G02*
X64320000Y-107475000I0J-250000D01*
G01*
X64320000Y-108425000D01*
G75*
G02*
X64070000Y-108675000I-250000J0D01*
G01*
X63570000Y-108675000D01*
G75*
G02*
X63320000Y-108425000I0J250000D01*
G01*
G37*
%TD*%
%TO.C,C4*%
G36*
G01*
X73185000Y-105992000D02*
X74135000Y-105992000D01*
G75*
G02*
X74385000Y-106242000I0J-250000D01*
G01*
X74385000Y-106742000D01*
G75*
G02*
X74135000Y-106992000I-250000J0D01*
G01*
X73185000Y-106992000D01*
G75*
G02*
X72935000Y-106742000I0J250000D01*
G01*
X72935000Y-106242000D01*
G75*
G02*
X73185000Y-105992000I250000J0D01*
G01*
G37*
G36*
G01*
X73185000Y-107892000D02*
X74135000Y-107892000D01*
G75*
G02*
X74385000Y-108142000I0J-250000D01*
G01*
X74385000Y-108642000D01*
G75*
G02*
X74135000Y-108892000I-250000J0D01*
G01*
X73185000Y-108892000D01*
G75*
G02*
X72935000Y-108642000I0J250000D01*
G01*
X72935000Y-108142000D01*
G75*
G02*
X73185000Y-107892000I250000J0D01*
G01*
G37*
%TD*%
%TO.C,C5*%
G36*
G01*
X70300000Y-95000000D02*
X70300000Y-95500000D01*
G75*
G02*
X70075000Y-95725000I-225000J0D01*
G01*
X69625000Y-95725000D01*
G75*
G02*
X69400000Y-95500000I0J225000D01*
G01*
X69400000Y-95000000D01*
G75*
G02*
X69625000Y-94775000I225000J0D01*
G01*
X70075000Y-94775000D01*
G75*
G02*
X70300000Y-95000000I0J-225000D01*
G01*
G37*
G36*
G01*
X71850000Y-95000000D02*
X71850000Y-95500000D01*
G75*
G02*
X71625000Y-95725000I-225000J0D01*
G01*
X71175000Y-95725000D01*
G75*
G02*
X70950000Y-95500000I0J225000D01*
G01*
X70950000Y-95000000D01*
G75*
G02*
X71175000Y-94775000I225000J0D01*
G01*
X71625000Y-94775000D01*
G75*
G02*
X71850000Y-95000000I0J-225000D01*
G01*
G37*
%TD*%
%TO.C,C6*%
G36*
G01*
X80576000Y-89695000D02*
X80576000Y-90645000D01*
G75*
G02*
X80326000Y-90895000I-250000J0D01*
G01*
X79826000Y-90895000D01*
G75*
G02*
X79576000Y-90645000I0J250000D01*
G01*
X79576000Y-89695000D01*
G75*
G02*
X79826000Y-89445000I250000J0D01*
G01*
X80326000Y-89445000D01*
G75*
G02*
X80576000Y-89695000I0J-250000D01*
G01*
G37*
G36*
G01*
X82476000Y-89695000D02*
X82476000Y-90645000D01*
G75*
G02*
X82226000Y-90895000I-250000J0D01*
G01*
X81726000Y-90895000D01*
G75*
G02*
X81476000Y-90645000I0J250000D01*
G01*
X81476000Y-89695000D01*
G75*
G02*
X81726000Y-89445000I250000J0D01*
G01*
X82226000Y-89445000D01*
G75*
G02*
X82476000Y-89695000I0J-250000D01*
G01*
G37*
%TD*%
%TO.C,Cin1*%
G36*
G01*
X110250000Y-100626000D02*
X110250000Y-99526000D01*
G75*
G02*
X110500000Y-99276000I250000J0D01*
G01*
X112600000Y-99276000D01*
G75*
G02*
X112850000Y-99526000I0J-250000D01*
G01*
X112850000Y-100626000D01*
G75*
G02*
X112600000Y-100876000I-250000J0D01*
G01*
X110500000Y-100876000D01*
G75*
G02*
X110250000Y-100626000I0J250000D01*
G01*
G37*
G36*
G01*
X106650000Y-100626000D02*
X106650000Y-99526000D01*
G75*
G02*
X106900000Y-99276000I250000J0D01*
G01*
X109000000Y-99276000D01*
G75*
G02*
X109250000Y-99526000I0J-250000D01*
G01*
X109250000Y-100626000D01*
G75*
G02*
X109000000Y-100876000I-250000J0D01*
G01*
X106900000Y-100876000D01*
G75*
G02*
X106650000Y-100626000I0J250000D01*
G01*
G37*
%TD*%
%TO.C,Cin2*%
G36*
G01*
X106628000Y-107230000D02*
X106628000Y-106130000D01*
G75*
G02*
X106878000Y-105880000I250000J0D01*
G01*
X108978000Y-105880000D01*
G75*
G02*
X109228000Y-106130000I0J-250000D01*
G01*
X109228000Y-107230000D01*
G75*
G02*
X108978000Y-107480000I-250000J0D01*
G01*
X106878000Y-107480000D01*
G75*
G02*
X106628000Y-107230000I0J250000D01*
G01*
G37*
G36*
G01*
X110228000Y-107230000D02*
X110228000Y-106130000D01*
G75*
G02*
X110478000Y-105880000I250000J0D01*
G01*
X112578000Y-105880000D01*
G75*
G02*
X112828000Y-106130000I0J-250000D01*
G01*
X112828000Y-107230000D01*
G75*
G02*
X112578000Y-107480000I-250000J0D01*
G01*
X110478000Y-107480000D01*
G75*
G02*
X110228000Y-107230000I0J250000D01*
G01*
G37*
%TD*%
%TO.C,Cout1*%
G36*
G01*
X99780000Y-106460000D02*
X100880000Y-106460000D01*
G75*
G02*
X101130000Y-106710000I0J-250000D01*
G01*
X101130000Y-109710000D01*
G75*
G02*
X100880000Y-109960000I-250000J0D01*
G01*
X99780000Y-109960000D01*
G75*
G02*
X99530000Y-109710000I0J250000D01*
G01*
X99530000Y-106710000D01*
G75*
G02*
X99780000Y-106460000I250000J0D01*
G01*
G37*
G36*
G01*
X99780000Y-100860000D02*
X100880000Y-100860000D01*
G75*
G02*
X101130000Y-101110000I0J-250000D01*
G01*
X101130000Y-104110000D01*
G75*
G02*
X100880000Y-104360000I-250000J0D01*
G01*
X99780000Y-104360000D01*
G75*
G02*
X99530000Y-104110000I0J250000D01*
G01*
X99530000Y-101110000D01*
G75*
G02*
X99780000Y-100860000I250000J0D01*
G01*
G37*
%TD*%
%TO.C,Cout2*%
G36*
G01*
X96244000Y-114766000D02*
X96244000Y-115866000D01*
G75*
G02*
X95994000Y-116116000I-250000J0D01*
G01*
X92994000Y-116116000D01*
G75*
G02*
X92744000Y-115866000I0J250000D01*
G01*
X92744000Y-114766000D01*
G75*
G02*
X92994000Y-114516000I250000J0D01*
G01*
X95994000Y-114516000D01*
G75*
G02*
X96244000Y-114766000I0J-250000D01*
G01*
G37*
G36*
G01*
X90644000Y-114766000D02*
X90644000Y-115866000D01*
G75*
G02*
X90394000Y-116116000I-250000J0D01*
G01*
X87394000Y-116116000D01*
G75*
G02*
X87144000Y-115866000I0J250000D01*
G01*
X87144000Y-114766000D01*
G75*
G02*
X87394000Y-114516000I250000J0D01*
G01*
X90394000Y-114516000D01*
G75*
G02*
X90644000Y-114766000I0J-250000D01*
G01*
G37*
%TD*%
D15*
%TO.C,ENesp1*%
X78740000Y-106820000D03*
X78740000Y-111620000D03*
%TD*%
%TO.C,Led1*%
G36*
G01*
X76505750Y-117417000D02*
X77418250Y-117417000D01*
G75*
G02*
X77662000Y-117660750I0J-243750D01*
G01*
X77662000Y-118148250D01*
G75*
G02*
X77418250Y-118392000I-243750J0D01*
G01*
X76505750Y-118392000D01*
G75*
G02*
X76262000Y-118148250I0J243750D01*
G01*
X76262000Y-117660750D01*
G75*
G02*
X76505750Y-117417000I243750J0D01*
G01*
G37*
G36*
G01*
X76505750Y-115542000D02*
X77418250Y-115542000D01*
G75*
G02*
X77662000Y-115785750I0J-243750D01*
G01*
X77662000Y-116273250D01*
G75*
G02*
X77418250Y-116517000I-243750J0D01*
G01*
X76505750Y-116517000D01*
G75*
G02*
X76262000Y-116273250I0J243750D01*
G01*
X76262000Y-115785750D01*
G75*
G02*
X76505750Y-115542000I243750J0D01*
G01*
G37*
%TD*%
D16*
%TO.C,Q1*%
X72120000Y-99060000D03*
X70120000Y-100010000D03*
X70120000Y-98110000D03*
%TD*%
D17*
%TO.C,Q2*%
X65090000Y-100060000D03*
X66990000Y-100060000D03*
X66040000Y-98060000D03*
%TD*%
%TO.C,R1*%
G36*
G01*
X69892500Y-108400002D02*
X69892500Y-107499998D01*
G75*
G02*
X70142498Y-107250000I249998J0D01*
G01*
X70667502Y-107250000D01*
G75*
G02*
X70917500Y-107499998I0J-249998D01*
G01*
X70917500Y-108400002D01*
G75*
G02*
X70667502Y-108650000I-249998J0D01*
G01*
X70142498Y-108650000D01*
G75*
G02*
X69892500Y-108400002I0J249998D01*
G01*
G37*
G36*
G01*
X68067500Y-108400002D02*
X68067500Y-107499998D01*
G75*
G02*
X68317498Y-107250000I249998J0D01*
G01*
X68842502Y-107250000D01*
G75*
G02*
X69092500Y-107499998I0J-249998D01*
G01*
X69092500Y-108400002D01*
G75*
G02*
X68842502Y-108650000I-249998J0D01*
G01*
X68317498Y-108650000D01*
G75*
G02*
X68067500Y-108400002I0J249998D01*
G01*
G37*
%TD*%
%TO.C,R3*%
G36*
G01*
X75800000Y-87179998D02*
X75800000Y-88080002D01*
G75*
G02*
X75550002Y-88330000I-249998J0D01*
G01*
X75024998Y-88330000D01*
G75*
G02*
X74775000Y-88080002I0J249998D01*
G01*
X74775000Y-87179998D01*
G75*
G02*
X75024998Y-86930000I249998J0D01*
G01*
X75550002Y-86930000D01*
G75*
G02*
X75800000Y-87179998I0J-249998D01*
G01*
G37*
G36*
G01*
X77625000Y-87179998D02*
X77625000Y-88080002D01*
G75*
G02*
X77375002Y-88330000I-249998J0D01*
G01*
X76849998Y-88330000D01*
G75*
G02*
X76600000Y-88080002I0J249998D01*
G01*
X76600000Y-87179998D01*
G75*
G02*
X76849998Y-86930000I249998J0D01*
G01*
X77375002Y-86930000D01*
G75*
G02*
X77625000Y-87179998I0J-249998D01*
G01*
G37*
%TD*%
%TO.C,R4*%
G36*
G01*
X74775000Y-93160002D02*
X74775000Y-92259998D01*
G75*
G02*
X75024998Y-92010000I249998J0D01*
G01*
X75550002Y-92010000D01*
G75*
G02*
X75800000Y-92259998I0J-249998D01*
G01*
X75800000Y-93160002D01*
G75*
G02*
X75550002Y-93410000I-249998J0D01*
G01*
X75024998Y-93410000D01*
G75*
G02*
X74775000Y-93160002I0J249998D01*
G01*
G37*
G36*
G01*
X76600000Y-93160002D02*
X76600000Y-92259998D01*
G75*
G02*
X76849998Y-92010000I249998J0D01*
G01*
X77375002Y-92010000D01*
G75*
G02*
X77625000Y-92259998I0J-249998D01*
G01*
X77625000Y-93160002D01*
G75*
G02*
X77375002Y-93410000I-249998J0D01*
G01*
X76849998Y-93410000D01*
G75*
G02*
X76600000Y-93160002I0J249998D01*
G01*
G37*
%TD*%
%TO.C,R5*%
G36*
G01*
X69695000Y-104590002D02*
X69695000Y-103689998D01*
G75*
G02*
X69944998Y-103440000I249998J0D01*
G01*
X70470002Y-103440000D01*
G75*
G02*
X70720000Y-103689998I0J-249998D01*
G01*
X70720000Y-104590002D01*
G75*
G02*
X70470002Y-104840000I-249998J0D01*
G01*
X69944998Y-104840000D01*
G75*
G02*
X69695000Y-104590002I0J249998D01*
G01*
G37*
G36*
G01*
X71520000Y-104590002D02*
X71520000Y-103689998D01*
G75*
G02*
X71769998Y-103440000I249998J0D01*
G01*
X72295002Y-103440000D01*
G75*
G02*
X72545000Y-103689998I0J-249998D01*
G01*
X72545000Y-104590002D01*
G75*
G02*
X72295002Y-104840000I-249998J0D01*
G01*
X71769998Y-104840000D01*
G75*
G02*
X71520000Y-104590002I0J249998D01*
G01*
G37*
%TD*%
%TO.C,R8*%
G36*
G01*
X80321998Y-117367000D02*
X81222002Y-117367000D01*
G75*
G02*
X81472000Y-117616998I0J-249998D01*
G01*
X81472000Y-118142002D01*
G75*
G02*
X81222002Y-118392000I-249998J0D01*
G01*
X80321998Y-118392000D01*
G75*
G02*
X80072000Y-118142002I0J249998D01*
G01*
X80072000Y-117616998D01*
G75*
G02*
X80321998Y-117367000I249998J0D01*
G01*
G37*
G36*
G01*
X80321998Y-115542000D02*
X81222002Y-115542000D01*
G75*
G02*
X81472000Y-115791998I0J-249998D01*
G01*
X81472000Y-116317002D01*
G75*
G02*
X81222002Y-116567000I-249998J0D01*
G01*
X80321998Y-116567000D01*
G75*
G02*
X80072000Y-116317002I0J249998D01*
G01*
X80072000Y-115791998D01*
G75*
G02*
X80321998Y-115542000I249998J0D01*
G01*
G37*
%TD*%
%TO.C,R9*%
G36*
G01*
X74110002Y-118265000D02*
X73209998Y-118265000D01*
G75*
G02*
X72960000Y-118015002I0J249998D01*
G01*
X72960000Y-117489998D01*
G75*
G02*
X73209998Y-117240000I249998J0D01*
G01*
X74110002Y-117240000D01*
G75*
G02*
X74360000Y-117489998I0J-249998D01*
G01*
X74360000Y-118015002D01*
G75*
G02*
X74110002Y-118265000I-249998J0D01*
G01*
G37*
G36*
G01*
X74110002Y-116440000D02*
X73209998Y-116440000D01*
G75*
G02*
X72960000Y-116190002I0J249998D01*
G01*
X72960000Y-115664998D01*
G75*
G02*
X73209998Y-115415000I249998J0D01*
G01*
X74110002Y-115415000D01*
G75*
G02*
X74360000Y-115664998I0J-249998D01*
G01*
X74360000Y-116190002D01*
G75*
G02*
X74110002Y-116440000I-249998J0D01*
G01*
G37*
%TD*%
%TO.C,R10*%
G36*
G01*
X63049998Y-109827000D02*
X63950002Y-109827000D01*
G75*
G02*
X64200000Y-110076998I0J-249998D01*
G01*
X64200000Y-110602002D01*
G75*
G02*
X63950002Y-110852000I-249998J0D01*
G01*
X63049998Y-110852000D01*
G75*
G02*
X62800000Y-110602002I0J249998D01*
G01*
X62800000Y-110076998D01*
G75*
G02*
X63049998Y-109827000I249998J0D01*
G01*
G37*
G36*
G01*
X63049998Y-111652000D02*
X63950002Y-111652000D01*
G75*
G02*
X64200000Y-111901998I0J-249998D01*
G01*
X64200000Y-112427002D01*
G75*
G02*
X63950002Y-112677000I-249998J0D01*
G01*
X63049998Y-112677000D01*
G75*
G02*
X62800000Y-112427002I0J249998D01*
G01*
X62800000Y-111901998D01*
G75*
G02*
X63049998Y-111652000I249998J0D01*
G01*
G37*
%TD*%
%TO.C,R11*%
G36*
G01*
X66998002Y-110852000D02*
X66097998Y-110852000D01*
G75*
G02*
X65848000Y-110602002I0J249998D01*
G01*
X65848000Y-110076998D01*
G75*
G02*
X66097998Y-109827000I249998J0D01*
G01*
X66998002Y-109827000D01*
G75*
G02*
X67248000Y-110076998I0J-249998D01*
G01*
X67248000Y-110602002D01*
G75*
G02*
X66998002Y-110852000I-249998J0D01*
G01*
G37*
G36*
G01*
X66998002Y-112677000D02*
X66097998Y-112677000D01*
G75*
G02*
X65848000Y-112427002I0J249998D01*
G01*
X65848000Y-111901998D01*
G75*
G02*
X66097998Y-111652000I249998J0D01*
G01*
X66998002Y-111652000D01*
G75*
G02*
X67248000Y-111901998I0J-249998D01*
G01*
X67248000Y-112427002D01*
G75*
G02*
X66998002Y-112677000I-249998J0D01*
G01*
G37*
%TD*%
D15*
%TO.C,SWBOOTesp1*%
X78740000Y-101460000D03*
X78740000Y-96660000D03*
%TD*%
D11*
%TO.C,U1*%
X92050000Y-107710000D03*
X92050000Y-103110000D03*
X92050000Y-105410000D03*
D10*
X85750000Y-105410000D03*
%TD*%
M02*
