%TF.GenerationSoftware,KiCad,Pcbnew,(5.1.9)-1*%
%TF.CreationDate,2021-07-08T11:56:06-05:00*%
%TF.ProjectId,prueba,70727565-6261-42e6-9b69-6361645f7063,rev?*%
%TF.SameCoordinates,Original*%
%TF.FileFunction,Copper,L2,Bot*%
%TF.FilePolarity,Positive*%
%FSLAX46Y46*%
G04 Gerber Fmt 4.6, Leading zero omitted, Abs format (unit mm)*
G04 Created by KiCad (PCBNEW (5.1.9)-1) date 2021-07-08 11:56:06*
%MOMM*%
%LPD*%
G01*
G04 APERTURE LIST*
%TA.AperFunction,ComponentPad*%
%ADD10R,2.000000X2.000000*%
%TD*%
%TA.AperFunction,ComponentPad*%
%ADD11C,2.000000*%
%TD*%
%TA.AperFunction,ComponentPad*%
%ADD12O,1.700000X1.700000*%
%TD*%
%TA.AperFunction,ComponentPad*%
%ADD13R,1.700000X1.700000*%
%TD*%
%TA.AperFunction,ComponentPad*%
%ADD14O,2.000000X3.500000*%
%TD*%
%TA.AperFunction,ComponentPad*%
%ADD15O,3.300000X2.000000*%
%TD*%
%TA.AperFunction,ComponentPad*%
%ADD16R,4.000000X2.000000*%
%TD*%
%TA.AperFunction,ViaPad*%
%ADD17C,6.350000*%
%TD*%
%TA.AperFunction,ViaPad*%
%ADD18C,0.800000*%
%TD*%
%TA.AperFunction,Conductor*%
%ADD19C,0.250000*%
%TD*%
%TA.AperFunction,Conductor*%
%ADD20C,1.000000*%
%TD*%
%TA.AperFunction,Conductor*%
%ADD21C,0.254000*%
%TD*%
%TA.AperFunction,Conductor*%
%ADD22C,0.100000*%
%TD*%
G04 APERTURE END LIST*
D10*
%TO.P,BZ1,1*%
%TO.N,/BUZ*%
X88900000Y-92710000D03*
D11*
%TO.P,BZ1,2*%
%TO.N,GND*%
X96500000Y-92710000D03*
%TD*%
D12*
%TO.P,J3,3*%
%TO.N,/OBS*%
X54610000Y-89408000D03*
%TO.P,J3,2*%
%TO.N,+5V*%
X57150000Y-89408000D03*
D13*
%TO.P,J3,1*%
%TO.N,GND*%
X59690000Y-89408000D03*
%TD*%
D12*
%TO.P,J5,4*%
%TO.N,+3V3*%
X43180000Y-89408000D03*
%TO.P,J5,3*%
%TO.N,/TXD0*%
X45720000Y-89408000D03*
%TO.P,J5,2*%
%TO.N,/RXD0*%
X48260000Y-89408000D03*
D13*
%TO.P,J5,1*%
%TO.N,GND*%
X50800000Y-89408000D03*
%TD*%
D12*
%TO.P,J2,4*%
%TO.N,/SCLi2c*%
X69342000Y-115570000D03*
%TO.P,J2,3*%
%TO.N,/SDAi2c*%
X66802000Y-115570000D03*
%TO.P,J2,2*%
%TO.N,+5V*%
X64262000Y-115570000D03*
D13*
%TO.P,J2,1*%
%TO.N,GND*%
X61722000Y-115570000D03*
%TD*%
D12*
%TO.P,J4,14*%
%TO.N,/IO27*%
X57912000Y-115570000D03*
%TO.P,J4,13*%
%TO.N,+5V*%
X57912000Y-113030000D03*
%TO.P,J4,12*%
%TO.N,/IO25*%
X55372000Y-115570000D03*
%TO.P,J4,11*%
%TO.N,/IO26*%
X55372000Y-113030000D03*
%TO.P,J4,10*%
%TO.N,/IO32*%
X52832000Y-115570000D03*
%TO.P,J4,9*%
%TO.N,/IO33*%
X52832000Y-113030000D03*
%TO.P,J4,8*%
%TO.N,/IO34*%
X50292000Y-115570000D03*
%TO.P,J4,7*%
%TO.N,/IO35*%
X50292000Y-113030000D03*
%TO.P,J4,6*%
%TO.N,/sensVP*%
X47752000Y-115570000D03*
%TO.P,J4,5*%
%TO.N,/sensVN*%
X47752000Y-113030000D03*
%TO.P,J4,4*%
%TO.N,+3V3*%
X45212000Y-115570000D03*
%TO.P,J4,3*%
X45212000Y-113030000D03*
%TO.P,J4,2*%
%TO.N,GND*%
X42672000Y-115570000D03*
D13*
%TO.P,J4,1*%
X42672000Y-113030000D03*
%TD*%
D14*
%TO.P,J6,MP*%
%TO.N,N/C*%
X108513000Y-119776000D03*
X99513000Y-119776000D03*
D15*
%TO.P,J6,2*%
%TO.N,GND*%
X104013000Y-118776000D03*
D16*
%TO.P,J6,1*%
%TO.N,+12V*%
X104013000Y-112776000D03*
%TD*%
D12*
%TO.P,J1,8*%
%TO.N,+3V3*%
X118110000Y-110490000D03*
%TO.P,J1,7*%
%TO.N,/RST*%
X118110000Y-107950000D03*
%TO.P,J1,6*%
%TO.N,GND*%
X118110000Y-105410000D03*
%TO.P,J1,5*%
%TO.N,Net-(J1-Pad5)*%
X118110000Y-102870000D03*
%TO.P,J1,4*%
%TO.N,/MISO*%
X118110000Y-100330000D03*
%TO.P,J1,3*%
%TO.N,/MOSI*%
X118110000Y-97790000D03*
%TO.P,J1,2*%
%TO.N,/SCK*%
X118110000Y-95250000D03*
D13*
%TO.P,J1,1*%
%TO.N,/SDAspi*%
X118110000Y-92710000D03*
%TD*%
D17*
%TO.N,*%
X33000000Y-120000000D03*
X33000000Y-83000000D03*
X119000000Y-120000000D03*
X119000000Y-83000000D03*
D18*
%TO.N,/BUZ*%
X63000000Y-96000000D03*
%TO.N,GND*%
X84000000Y-86000000D03*
X86000000Y-86000000D03*
X88000000Y-86000000D03*
X90000000Y-86000000D03*
X84000000Y-88000000D03*
X86000000Y-88000000D03*
X88000000Y-88000000D03*
X90000000Y-88000000D03*
X92000000Y-86000000D03*
X94000000Y-86000000D03*
X92000000Y-88000000D03*
X94000000Y-88000000D03*
X96000000Y-88000000D03*
X96000000Y-86000000D03*
X98000000Y-86000000D03*
X98000000Y-88000000D03*
X60000000Y-87000000D03*
X60000000Y-85000000D03*
X60000000Y-83000000D03*
X60000000Y-81000000D03*
X58000000Y-87000000D03*
X58000000Y-85000000D03*
X58000000Y-83000000D03*
X58000000Y-81000000D03*
X52000000Y-87000000D03*
X52000000Y-85000000D03*
X52000000Y-83000000D03*
X52000000Y-81000000D03*
X50000000Y-87000000D03*
X50000000Y-85000000D03*
X50000000Y-83000000D03*
X50000000Y-81000000D03*
X42000000Y-118000000D03*
X42000000Y-120000000D03*
X42000000Y-122000000D03*
X44000000Y-122000000D03*
X44000000Y-120000000D03*
X44000000Y-118000000D03*
X46000000Y-120000000D03*
X46000000Y-122000000D03*
X48000000Y-122000000D03*
X48000000Y-120000000D03*
X50000000Y-120000000D03*
X50000000Y-122000000D03*
X52000000Y-122000000D03*
X52000000Y-120000000D03*
X54000000Y-120000000D03*
X54000000Y-122000000D03*
X56000000Y-122000000D03*
X56000000Y-120000000D03*
X58000000Y-120000000D03*
X58000000Y-122000000D03*
X57000000Y-118000000D03*
X55000000Y-118000000D03*
X53000000Y-118000000D03*
X51000000Y-118000000D03*
X49000000Y-118000000D03*
X47000000Y-118000000D03*
X61000000Y-118000000D03*
X61000000Y-120000000D03*
X61000000Y-122000000D03*
X63000000Y-122000000D03*
X63000000Y-120000000D03*
X65000000Y-122000000D03*
X67000000Y-122000000D03*
X69000000Y-122000000D03*
X59000000Y-118000000D03*
X48000000Y-81000000D03*
X48000000Y-83000000D03*
X48000000Y-85000000D03*
X48000000Y-87000000D03*
X46000000Y-87000000D03*
X46000000Y-85000000D03*
X46000000Y-83000000D03*
X46000000Y-81000000D03*
X44000000Y-81000000D03*
X44000000Y-83000000D03*
X44000000Y-85000000D03*
X44000000Y-87000000D03*
X42000000Y-87000000D03*
X42000000Y-85000000D03*
X42000000Y-83000000D03*
X42000000Y-81000000D03*
X56000000Y-81000000D03*
X54000000Y-81000000D03*
X54000000Y-83000000D03*
X56000000Y-83000000D03*
X56000000Y-85000000D03*
X54000000Y-85000000D03*
X54000000Y-87000000D03*
X56000000Y-87000000D03*
X94000000Y-93000000D03*
X94000000Y-95000000D03*
X94000000Y-97000000D03*
X92000000Y-97000000D03*
X92000000Y-95000000D03*
X92000000Y-93000000D03*
X90000000Y-96000000D03*
X96000000Y-96000000D03*
X100000000Y-86000000D03*
X100000000Y-88000000D03*
X102000000Y-88000000D03*
X102000000Y-86000000D03*
X104000000Y-86000000D03*
X104000000Y-88000000D03*
X106000000Y-88000000D03*
X106000000Y-86000000D03*
X82000000Y-86000000D03*
X82000000Y-88000000D03*
X87000000Y-113000000D03*
X87000000Y-111000000D03*
X85000000Y-111000000D03*
X85000000Y-113000000D03*
X89000000Y-111000000D03*
X91000000Y-111000000D03*
X93000000Y-111000000D03*
X95000000Y-111000000D03*
X112000000Y-92000000D03*
X114000000Y-92000000D03*
X114000000Y-94000000D03*
X112000000Y-94000000D03*
X112000000Y-96000000D03*
X114000000Y-96000000D03*
X116000000Y-94000000D03*
X111000000Y-110000000D03*
X111000000Y-112000000D03*
X113000000Y-112000000D03*
X113000000Y-110000000D03*
X115000000Y-110000000D03*
X113000000Y-103000000D03*
X115000000Y-103000000D03*
X115000000Y-105000000D03*
%TO.N,+3V3*%
X72136000Y-91694000D03*
X43545000Y-102544996D03*
%TO.N,+5V*%
X64008000Y-86106000D03*
%TO.N,/SDAspi*%
X48898000Y-91062000D03*
%TO.N,/SCK*%
X53340000Y-95250000D03*
%TO.N,/MOSI*%
X45000000Y-97500000D03*
%TO.N,/MISO*%
X54500002Y-100000000D03*
%TO.N,/RST*%
X46000004Y-105500000D03*
%TD*%
D19*
%TO.N,/BUZ*%
X88900000Y-92710000D02*
X85610000Y-96000000D01*
X85610000Y-96000000D02*
X63000000Y-96000000D01*
D20*
%TO.N,+3V3*%
X43180000Y-89408000D02*
X42926000Y-89662000D01*
X43180000Y-90932000D02*
X44958000Y-92710000D01*
X43180000Y-89408000D02*
X43180000Y-90932000D01*
X45748000Y-93500000D02*
X44958000Y-92710000D01*
X72136000Y-91694000D02*
X70330000Y-93500000D01*
X70330000Y-93500000D02*
X45748000Y-93500000D01*
X43145001Y-102144997D02*
X43545000Y-102544996D01*
X44958000Y-92710000D02*
X43145001Y-94522999D01*
X43145001Y-94522999D02*
X43145001Y-102144997D01*
%TO.N,+5V*%
X64008000Y-88050002D02*
X64008000Y-86106000D01*
X61100001Y-90958001D02*
X64008000Y-88050002D01*
X57497920Y-90958001D02*
X61100001Y-90958001D01*
X57150000Y-90610081D02*
X57497920Y-90958001D01*
X57150000Y-89408000D02*
X57150000Y-90610081D01*
D19*
%TO.N,/SDAspi*%
X116078000Y-90678000D02*
X118110000Y-92710000D01*
X71985260Y-90678000D02*
X116078000Y-90678000D01*
X70461260Y-92202000D02*
X71985260Y-90678000D01*
X50038000Y-92202000D02*
X70461260Y-92202000D01*
X48898000Y-91062000D02*
X50038000Y-92202000D01*
%TO.N,/SCK*%
X117750000Y-95250000D02*
X118110000Y-95250000D01*
X114500000Y-98500000D02*
X117750000Y-95250000D01*
X56590000Y-98500000D02*
X114500000Y-98500000D01*
X53340000Y-95250000D02*
X56590000Y-98500000D01*
%TO.N,/MOSI*%
X116900000Y-99000000D02*
X46500000Y-99000000D01*
X118110000Y-97790000D02*
X116900000Y-99000000D01*
X46500000Y-99000000D02*
X45000000Y-97500000D01*
%TO.N,/MISO*%
X118110000Y-100330000D02*
X54830002Y-100330000D01*
X54830002Y-100330000D02*
X54500002Y-100000000D01*
%TO.N,/RST*%
X118110000Y-107950000D02*
X48450004Y-107950000D01*
X48450004Y-107950000D02*
X46000004Y-105500000D01*
%TD*%
D21*
%TO.N,GND*%
X122648001Y-80982708D02*
X122648000Y-104336152D01*
X122555619Y-123253598D01*
X120292044Y-123255355D01*
X120658819Y-123103432D01*
X121232395Y-122720181D01*
X121720181Y-122232395D01*
X122103432Y-121658819D01*
X122367420Y-121021496D01*
X122502000Y-120344917D01*
X122502000Y-119655083D01*
X122367420Y-118978504D01*
X122103432Y-118341181D01*
X121720181Y-117767605D01*
X121232395Y-117279819D01*
X120658819Y-116896568D01*
X120021496Y-116632580D01*
X119344917Y-116498000D01*
X118655083Y-116498000D01*
X117978504Y-116632580D01*
X117341181Y-116896568D01*
X116767605Y-117279819D01*
X116279819Y-117767605D01*
X115896568Y-118341181D01*
X115632580Y-118978504D01*
X115498000Y-119655083D01*
X115498000Y-120344917D01*
X115632580Y-121021496D01*
X115896568Y-121658819D01*
X116279819Y-122232395D01*
X116767605Y-122720181D01*
X117341181Y-123103432D01*
X117712791Y-123257358D01*
X41021622Y-123316901D01*
X41042894Y-118960817D01*
X98186000Y-118960817D01*
X98186000Y-120591184D01*
X98205201Y-120786137D01*
X98281082Y-121036278D01*
X98404303Y-121266808D01*
X98570131Y-121468870D01*
X98772193Y-121634698D01*
X99002723Y-121757919D01*
X99252864Y-121833799D01*
X99513000Y-121859420D01*
X99773137Y-121833799D01*
X100023278Y-121757919D01*
X100197117Y-121665000D01*
X102886000Y-121665000D01*
X102886000Y-121887000D01*
X102929310Y-122104734D01*
X103014266Y-122309835D01*
X103137602Y-122494421D01*
X103294579Y-122651398D01*
X103479165Y-122774734D01*
X103684266Y-122859690D01*
X103902000Y-122903000D01*
X104124000Y-122903000D01*
X104341734Y-122859690D01*
X104546835Y-122774734D01*
X104731421Y-122651398D01*
X104888398Y-122494421D01*
X105011734Y-122309835D01*
X105096690Y-122104734D01*
X105140000Y-121887000D01*
X105140000Y-121665000D01*
X105096690Y-121447266D01*
X105011734Y-121242165D01*
X104888398Y-121057579D01*
X104731421Y-120900602D01*
X104546835Y-120777266D01*
X104341734Y-120692310D01*
X104124000Y-120649000D01*
X103902000Y-120649000D01*
X103684266Y-120692310D01*
X103479165Y-120777266D01*
X103294579Y-120900602D01*
X103137602Y-121057579D01*
X103014266Y-121242165D01*
X102929310Y-121447266D01*
X102886000Y-121665000D01*
X100197117Y-121665000D01*
X100253808Y-121634698D01*
X100455870Y-121468870D01*
X100621698Y-121266808D01*
X100744919Y-121036278D01*
X100820799Y-120786137D01*
X100840000Y-120591184D01*
X100840000Y-119156434D01*
X101772876Y-119156434D01*
X101803856Y-119284355D01*
X101932990Y-119578761D01*
X102117078Y-119842317D01*
X102349046Y-120064895D01*
X102619980Y-120237942D01*
X102919468Y-120354807D01*
X103236000Y-120411000D01*
X103886000Y-120411000D01*
X103886000Y-118903000D01*
X104140000Y-118903000D01*
X104140000Y-120411000D01*
X104790000Y-120411000D01*
X105106532Y-120354807D01*
X105406020Y-120237942D01*
X105676954Y-120064895D01*
X105908922Y-119842317D01*
X106093010Y-119578761D01*
X106222144Y-119284355D01*
X106253124Y-119156434D01*
X106161005Y-118960817D01*
X107186000Y-118960817D01*
X107186000Y-120591184D01*
X107205201Y-120786137D01*
X107281082Y-121036278D01*
X107404303Y-121266808D01*
X107570131Y-121468870D01*
X107772193Y-121634698D01*
X108002723Y-121757919D01*
X108252864Y-121833799D01*
X108513000Y-121859420D01*
X108773137Y-121833799D01*
X109023278Y-121757919D01*
X109253808Y-121634698D01*
X109455870Y-121468870D01*
X109621698Y-121266808D01*
X109744919Y-121036278D01*
X109820799Y-120786137D01*
X109840000Y-120591184D01*
X109840000Y-118960816D01*
X109820799Y-118765863D01*
X109744919Y-118515722D01*
X109621698Y-118285192D01*
X109455870Y-118083130D01*
X109253807Y-117917302D01*
X109023277Y-117794081D01*
X108773136Y-117718201D01*
X108513000Y-117692580D01*
X108252863Y-117718201D01*
X108002722Y-117794081D01*
X107772192Y-117917302D01*
X107570130Y-118083130D01*
X107404302Y-118285193D01*
X107281081Y-118515723D01*
X107205201Y-118765864D01*
X107186000Y-118960817D01*
X106161005Y-118960817D01*
X106133777Y-118903000D01*
X104140000Y-118903000D01*
X103886000Y-118903000D01*
X101892223Y-118903000D01*
X101772876Y-119156434D01*
X100840000Y-119156434D01*
X100840000Y-118960816D01*
X100820799Y-118765863D01*
X100744919Y-118515722D01*
X100680695Y-118395566D01*
X101772876Y-118395566D01*
X101892223Y-118649000D01*
X103886000Y-118649000D01*
X103886000Y-117141000D01*
X104140000Y-117141000D01*
X104140000Y-118649000D01*
X106133777Y-118649000D01*
X106253124Y-118395566D01*
X106222144Y-118267645D01*
X106093010Y-117973239D01*
X105908922Y-117709683D01*
X105676954Y-117487105D01*
X105406020Y-117314058D01*
X105106532Y-117197193D01*
X104790000Y-117141000D01*
X104140000Y-117141000D01*
X103886000Y-117141000D01*
X103236000Y-117141000D01*
X102919468Y-117197193D01*
X102619980Y-117314058D01*
X102349046Y-117487105D01*
X102117078Y-117709683D01*
X101932990Y-117973239D01*
X101803856Y-118267645D01*
X101772876Y-118395566D01*
X100680695Y-118395566D01*
X100621698Y-118285192D01*
X100455870Y-118083130D01*
X100253807Y-117917302D01*
X100023277Y-117794081D01*
X99773136Y-117718201D01*
X99513000Y-117692580D01*
X99252863Y-117718201D01*
X99002722Y-117794081D01*
X98772192Y-117917302D01*
X98570130Y-118083130D01*
X98404302Y-118285193D01*
X98281081Y-118515723D01*
X98205201Y-118765864D01*
X98186000Y-118960817D01*
X41042894Y-118960817D01*
X41057710Y-115926891D01*
X41230519Y-115926891D01*
X41327843Y-116201252D01*
X41476822Y-116451355D01*
X41671731Y-116667588D01*
X41905080Y-116841641D01*
X42167901Y-116966825D01*
X42315110Y-117011476D01*
X42545000Y-116890155D01*
X42545000Y-115697000D01*
X41351186Y-115697000D01*
X41230519Y-115926891D01*
X41057710Y-115926891D01*
X41067706Y-113880000D01*
X41183928Y-113880000D01*
X41196188Y-114004482D01*
X41232498Y-114124180D01*
X41291463Y-114234494D01*
X41370815Y-114331185D01*
X41467506Y-114410537D01*
X41577820Y-114469502D01*
X41653626Y-114492498D01*
X41476822Y-114688645D01*
X41327843Y-114938748D01*
X41230519Y-115213109D01*
X41351186Y-115443000D01*
X42545000Y-115443000D01*
X42545000Y-113157000D01*
X41345750Y-113157000D01*
X41187000Y-113315750D01*
X41183928Y-113880000D01*
X41067706Y-113880000D01*
X41076007Y-112180000D01*
X41183928Y-112180000D01*
X41187000Y-112744250D01*
X41345750Y-112903000D01*
X42545000Y-112903000D01*
X42545000Y-111703750D01*
X42799000Y-111703750D01*
X42799000Y-112903000D01*
X42819000Y-112903000D01*
X42819000Y-113157000D01*
X42799000Y-113157000D01*
X42799000Y-115443000D01*
X42819000Y-115443000D01*
X42819000Y-115697000D01*
X42799000Y-115697000D01*
X42799000Y-116890155D01*
X43028890Y-117011476D01*
X43176099Y-116966825D01*
X43438920Y-116841641D01*
X43672269Y-116667588D01*
X43867178Y-116451355D01*
X44016157Y-116201252D01*
X44100736Y-115962821D01*
X44168956Y-116127519D01*
X44297764Y-116320294D01*
X44461706Y-116484236D01*
X44654481Y-116613044D01*
X44868682Y-116701769D01*
X45096076Y-116747000D01*
X45327924Y-116747000D01*
X45555318Y-116701769D01*
X45769519Y-116613044D01*
X45962294Y-116484236D01*
X46126236Y-116320294D01*
X46255044Y-116127519D01*
X46343769Y-115913318D01*
X46389000Y-115685924D01*
X46389000Y-115454076D01*
X46575000Y-115454076D01*
X46575000Y-115685924D01*
X46620231Y-115913318D01*
X46708956Y-116127519D01*
X46837764Y-116320294D01*
X47001706Y-116484236D01*
X47194481Y-116613044D01*
X47408682Y-116701769D01*
X47636076Y-116747000D01*
X47867924Y-116747000D01*
X48095318Y-116701769D01*
X48309519Y-116613044D01*
X48502294Y-116484236D01*
X48666236Y-116320294D01*
X48795044Y-116127519D01*
X48883769Y-115913318D01*
X48929000Y-115685924D01*
X48929000Y-115454076D01*
X49115000Y-115454076D01*
X49115000Y-115685924D01*
X49160231Y-115913318D01*
X49248956Y-116127519D01*
X49377764Y-116320294D01*
X49541706Y-116484236D01*
X49734481Y-116613044D01*
X49948682Y-116701769D01*
X50176076Y-116747000D01*
X50407924Y-116747000D01*
X50635318Y-116701769D01*
X50849519Y-116613044D01*
X51042294Y-116484236D01*
X51206236Y-116320294D01*
X51335044Y-116127519D01*
X51423769Y-115913318D01*
X51469000Y-115685924D01*
X51469000Y-115454076D01*
X51655000Y-115454076D01*
X51655000Y-115685924D01*
X51700231Y-115913318D01*
X51788956Y-116127519D01*
X51917764Y-116320294D01*
X52081706Y-116484236D01*
X52274481Y-116613044D01*
X52488682Y-116701769D01*
X52716076Y-116747000D01*
X52947924Y-116747000D01*
X53175318Y-116701769D01*
X53389519Y-116613044D01*
X53582294Y-116484236D01*
X53746236Y-116320294D01*
X53875044Y-116127519D01*
X53963769Y-115913318D01*
X54009000Y-115685924D01*
X54009000Y-115454076D01*
X54195000Y-115454076D01*
X54195000Y-115685924D01*
X54240231Y-115913318D01*
X54328956Y-116127519D01*
X54457764Y-116320294D01*
X54621706Y-116484236D01*
X54814481Y-116613044D01*
X55028682Y-116701769D01*
X55256076Y-116747000D01*
X55487924Y-116747000D01*
X55715318Y-116701769D01*
X55929519Y-116613044D01*
X56122294Y-116484236D01*
X56286236Y-116320294D01*
X56415044Y-116127519D01*
X56503769Y-115913318D01*
X56549000Y-115685924D01*
X56549000Y-115454076D01*
X56735000Y-115454076D01*
X56735000Y-115685924D01*
X56780231Y-115913318D01*
X56868956Y-116127519D01*
X56997764Y-116320294D01*
X57161706Y-116484236D01*
X57354481Y-116613044D01*
X57568682Y-116701769D01*
X57796076Y-116747000D01*
X58027924Y-116747000D01*
X58255318Y-116701769D01*
X58469519Y-116613044D01*
X58662294Y-116484236D01*
X58726530Y-116420000D01*
X60233928Y-116420000D01*
X60246188Y-116544482D01*
X60282498Y-116664180D01*
X60341463Y-116774494D01*
X60420815Y-116871185D01*
X60517506Y-116950537D01*
X60627820Y-117009502D01*
X60747518Y-117045812D01*
X60872000Y-117058072D01*
X61436250Y-117055000D01*
X61595000Y-116896250D01*
X61595000Y-115697000D01*
X60395750Y-115697000D01*
X60237000Y-115855750D01*
X60233928Y-116420000D01*
X58726530Y-116420000D01*
X58826236Y-116320294D01*
X58955044Y-116127519D01*
X59043769Y-115913318D01*
X59089000Y-115685924D01*
X59089000Y-115454076D01*
X59043769Y-115226682D01*
X58955044Y-115012481D01*
X58826236Y-114819706D01*
X58726530Y-114720000D01*
X60233928Y-114720000D01*
X60237000Y-115284250D01*
X60395750Y-115443000D01*
X61595000Y-115443000D01*
X61595000Y-114243750D01*
X61849000Y-114243750D01*
X61849000Y-115443000D01*
X61869000Y-115443000D01*
X61869000Y-115697000D01*
X61849000Y-115697000D01*
X61849000Y-116896250D01*
X62007750Y-117055000D01*
X62572000Y-117058072D01*
X62696482Y-117045812D01*
X62816180Y-117009502D01*
X62926494Y-116950537D01*
X63023185Y-116871185D01*
X63102537Y-116774494D01*
X63161502Y-116664180D01*
X63197812Y-116544482D01*
X63210072Y-116420000D01*
X63208340Y-116101890D01*
X63218956Y-116127519D01*
X63347764Y-116320294D01*
X63511706Y-116484236D01*
X63704481Y-116613044D01*
X63918682Y-116701769D01*
X64146076Y-116747000D01*
X64377924Y-116747000D01*
X64605318Y-116701769D01*
X64819519Y-116613044D01*
X65012294Y-116484236D01*
X65176236Y-116320294D01*
X65305044Y-116127519D01*
X65393769Y-115913318D01*
X65439000Y-115685924D01*
X65439000Y-115454076D01*
X65625000Y-115454076D01*
X65625000Y-115685924D01*
X65670231Y-115913318D01*
X65758956Y-116127519D01*
X65887764Y-116320294D01*
X66051706Y-116484236D01*
X66244481Y-116613044D01*
X66458682Y-116701769D01*
X66686076Y-116747000D01*
X66917924Y-116747000D01*
X67145318Y-116701769D01*
X67359519Y-116613044D01*
X67552294Y-116484236D01*
X67716236Y-116320294D01*
X67845044Y-116127519D01*
X67933769Y-115913318D01*
X67979000Y-115685924D01*
X67979000Y-115454076D01*
X68165000Y-115454076D01*
X68165000Y-115685924D01*
X68210231Y-115913318D01*
X68298956Y-116127519D01*
X68427764Y-116320294D01*
X68591706Y-116484236D01*
X68784481Y-116613044D01*
X68998682Y-116701769D01*
X69226076Y-116747000D01*
X69457924Y-116747000D01*
X69685318Y-116701769D01*
X69899519Y-116613044D01*
X70092294Y-116484236D01*
X70256236Y-116320294D01*
X70385044Y-116127519D01*
X70473769Y-115913318D01*
X70519000Y-115685924D01*
X70519000Y-115454076D01*
X70473769Y-115226682D01*
X70385044Y-115012481D01*
X70256236Y-114819706D01*
X70092294Y-114655764D01*
X69899519Y-114526956D01*
X69685318Y-114438231D01*
X69457924Y-114393000D01*
X69226076Y-114393000D01*
X68998682Y-114438231D01*
X68784481Y-114526956D01*
X68591706Y-114655764D01*
X68427764Y-114819706D01*
X68298956Y-115012481D01*
X68210231Y-115226682D01*
X68165000Y-115454076D01*
X67979000Y-115454076D01*
X67933769Y-115226682D01*
X67845044Y-115012481D01*
X67716236Y-114819706D01*
X67552294Y-114655764D01*
X67359519Y-114526956D01*
X67145318Y-114438231D01*
X66917924Y-114393000D01*
X66686076Y-114393000D01*
X66458682Y-114438231D01*
X66244481Y-114526956D01*
X66051706Y-114655764D01*
X65887764Y-114819706D01*
X65758956Y-115012481D01*
X65670231Y-115226682D01*
X65625000Y-115454076D01*
X65439000Y-115454076D01*
X65393769Y-115226682D01*
X65305044Y-115012481D01*
X65176236Y-114819706D01*
X65012294Y-114655764D01*
X64819519Y-114526956D01*
X64605318Y-114438231D01*
X64377924Y-114393000D01*
X64146076Y-114393000D01*
X63918682Y-114438231D01*
X63704481Y-114526956D01*
X63511706Y-114655764D01*
X63347764Y-114819706D01*
X63218956Y-115012481D01*
X63208340Y-115038110D01*
X63210072Y-114720000D01*
X63197812Y-114595518D01*
X63161502Y-114475820D01*
X63102537Y-114365506D01*
X63023185Y-114268815D01*
X62926494Y-114189463D01*
X62816180Y-114130498D01*
X62696482Y-114094188D01*
X62572000Y-114081928D01*
X62007750Y-114085000D01*
X61849000Y-114243750D01*
X61595000Y-114243750D01*
X61436250Y-114085000D01*
X60872000Y-114081928D01*
X60747518Y-114094188D01*
X60627820Y-114130498D01*
X60517506Y-114189463D01*
X60420815Y-114268815D01*
X60341463Y-114365506D01*
X60282498Y-114475820D01*
X60246188Y-114595518D01*
X60233928Y-114720000D01*
X58726530Y-114720000D01*
X58662294Y-114655764D01*
X58469519Y-114526956D01*
X58255318Y-114438231D01*
X58027924Y-114393000D01*
X57796076Y-114393000D01*
X57568682Y-114438231D01*
X57354481Y-114526956D01*
X57161706Y-114655764D01*
X56997764Y-114819706D01*
X56868956Y-115012481D01*
X56780231Y-115226682D01*
X56735000Y-115454076D01*
X56549000Y-115454076D01*
X56503769Y-115226682D01*
X56415044Y-115012481D01*
X56286236Y-114819706D01*
X56122294Y-114655764D01*
X55929519Y-114526956D01*
X55715318Y-114438231D01*
X55487924Y-114393000D01*
X55256076Y-114393000D01*
X55028682Y-114438231D01*
X54814481Y-114526956D01*
X54621706Y-114655764D01*
X54457764Y-114819706D01*
X54328956Y-115012481D01*
X54240231Y-115226682D01*
X54195000Y-115454076D01*
X54009000Y-115454076D01*
X53963769Y-115226682D01*
X53875044Y-115012481D01*
X53746236Y-114819706D01*
X53582294Y-114655764D01*
X53389519Y-114526956D01*
X53175318Y-114438231D01*
X52947924Y-114393000D01*
X52716076Y-114393000D01*
X52488682Y-114438231D01*
X52274481Y-114526956D01*
X52081706Y-114655764D01*
X51917764Y-114819706D01*
X51788956Y-115012481D01*
X51700231Y-115226682D01*
X51655000Y-115454076D01*
X51469000Y-115454076D01*
X51423769Y-115226682D01*
X51335044Y-115012481D01*
X51206236Y-114819706D01*
X51042294Y-114655764D01*
X50849519Y-114526956D01*
X50635318Y-114438231D01*
X50407924Y-114393000D01*
X50176076Y-114393000D01*
X49948682Y-114438231D01*
X49734481Y-114526956D01*
X49541706Y-114655764D01*
X49377764Y-114819706D01*
X49248956Y-115012481D01*
X49160231Y-115226682D01*
X49115000Y-115454076D01*
X48929000Y-115454076D01*
X48883769Y-115226682D01*
X48795044Y-115012481D01*
X48666236Y-114819706D01*
X48502294Y-114655764D01*
X48309519Y-114526956D01*
X48095318Y-114438231D01*
X47867924Y-114393000D01*
X47636076Y-114393000D01*
X47408682Y-114438231D01*
X47194481Y-114526956D01*
X47001706Y-114655764D01*
X46837764Y-114819706D01*
X46708956Y-115012481D01*
X46620231Y-115226682D01*
X46575000Y-115454076D01*
X46389000Y-115454076D01*
X46343769Y-115226682D01*
X46255044Y-115012481D01*
X46126236Y-114819706D01*
X45962294Y-114655764D01*
X45769519Y-114526956D01*
X45555318Y-114438231D01*
X45327924Y-114393000D01*
X45096076Y-114393000D01*
X44868682Y-114438231D01*
X44654481Y-114526956D01*
X44461706Y-114655764D01*
X44297764Y-114819706D01*
X44168956Y-115012481D01*
X44100736Y-115177179D01*
X44016157Y-114938748D01*
X43867178Y-114688645D01*
X43690374Y-114492498D01*
X43766180Y-114469502D01*
X43876494Y-114410537D01*
X43973185Y-114331185D01*
X44052537Y-114234494D01*
X44111502Y-114124180D01*
X44147812Y-114004482D01*
X44160072Y-113880000D01*
X44158340Y-113561890D01*
X44168956Y-113587519D01*
X44297764Y-113780294D01*
X44461706Y-113944236D01*
X44654481Y-114073044D01*
X44868682Y-114161769D01*
X45096076Y-114207000D01*
X45327924Y-114207000D01*
X45555318Y-114161769D01*
X45769519Y-114073044D01*
X45962294Y-113944236D01*
X46126236Y-113780294D01*
X46255044Y-113587519D01*
X46343769Y-113373318D01*
X46389000Y-113145924D01*
X46389000Y-112914076D01*
X46575000Y-112914076D01*
X46575000Y-113145924D01*
X46620231Y-113373318D01*
X46708956Y-113587519D01*
X46837764Y-113780294D01*
X47001706Y-113944236D01*
X47194481Y-114073044D01*
X47408682Y-114161769D01*
X47636076Y-114207000D01*
X47867924Y-114207000D01*
X48095318Y-114161769D01*
X48309519Y-114073044D01*
X48502294Y-113944236D01*
X48666236Y-113780294D01*
X48795044Y-113587519D01*
X48883769Y-113373318D01*
X48929000Y-113145924D01*
X48929000Y-112914076D01*
X49115000Y-112914076D01*
X49115000Y-113145924D01*
X49160231Y-113373318D01*
X49248956Y-113587519D01*
X49377764Y-113780294D01*
X49541706Y-113944236D01*
X49734481Y-114073044D01*
X49948682Y-114161769D01*
X50176076Y-114207000D01*
X50407924Y-114207000D01*
X50635318Y-114161769D01*
X50849519Y-114073044D01*
X51042294Y-113944236D01*
X51206236Y-113780294D01*
X51335044Y-113587519D01*
X51423769Y-113373318D01*
X51469000Y-113145924D01*
X51469000Y-112914076D01*
X51655000Y-112914076D01*
X51655000Y-113145924D01*
X51700231Y-113373318D01*
X51788956Y-113587519D01*
X51917764Y-113780294D01*
X52081706Y-113944236D01*
X52274481Y-114073044D01*
X52488682Y-114161769D01*
X52716076Y-114207000D01*
X52947924Y-114207000D01*
X53175318Y-114161769D01*
X53389519Y-114073044D01*
X53582294Y-113944236D01*
X53746236Y-113780294D01*
X53875044Y-113587519D01*
X53963769Y-113373318D01*
X54009000Y-113145924D01*
X54009000Y-112914076D01*
X54195000Y-112914076D01*
X54195000Y-113145924D01*
X54240231Y-113373318D01*
X54328956Y-113587519D01*
X54457764Y-113780294D01*
X54621706Y-113944236D01*
X54814481Y-114073044D01*
X55028682Y-114161769D01*
X55256076Y-114207000D01*
X55487924Y-114207000D01*
X55715318Y-114161769D01*
X55929519Y-114073044D01*
X56122294Y-113944236D01*
X56286236Y-113780294D01*
X56415044Y-113587519D01*
X56503769Y-113373318D01*
X56549000Y-113145924D01*
X56549000Y-112914076D01*
X56735000Y-112914076D01*
X56735000Y-113145924D01*
X56780231Y-113373318D01*
X56868956Y-113587519D01*
X56997764Y-113780294D01*
X57161706Y-113944236D01*
X57354481Y-114073044D01*
X57568682Y-114161769D01*
X57796076Y-114207000D01*
X58027924Y-114207000D01*
X58255318Y-114161769D01*
X58469519Y-114073044D01*
X58662294Y-113944236D01*
X58826236Y-113780294D01*
X58955044Y-113587519D01*
X59043769Y-113373318D01*
X59089000Y-113145924D01*
X59089000Y-112914076D01*
X59043769Y-112686682D01*
X58955044Y-112472481D01*
X58826236Y-112279706D01*
X58662294Y-112115764D01*
X58469519Y-111986956D01*
X58255318Y-111898231D01*
X58027924Y-111853000D01*
X57796076Y-111853000D01*
X57568682Y-111898231D01*
X57354481Y-111986956D01*
X57161706Y-112115764D01*
X56997764Y-112279706D01*
X56868956Y-112472481D01*
X56780231Y-112686682D01*
X56735000Y-112914076D01*
X56549000Y-112914076D01*
X56503769Y-112686682D01*
X56415044Y-112472481D01*
X56286236Y-112279706D01*
X56122294Y-112115764D01*
X55929519Y-111986956D01*
X55715318Y-111898231D01*
X55487924Y-111853000D01*
X55256076Y-111853000D01*
X55028682Y-111898231D01*
X54814481Y-111986956D01*
X54621706Y-112115764D01*
X54457764Y-112279706D01*
X54328956Y-112472481D01*
X54240231Y-112686682D01*
X54195000Y-112914076D01*
X54009000Y-112914076D01*
X53963769Y-112686682D01*
X53875044Y-112472481D01*
X53746236Y-112279706D01*
X53582294Y-112115764D01*
X53389519Y-111986956D01*
X53175318Y-111898231D01*
X52947924Y-111853000D01*
X52716076Y-111853000D01*
X52488682Y-111898231D01*
X52274481Y-111986956D01*
X52081706Y-112115764D01*
X51917764Y-112279706D01*
X51788956Y-112472481D01*
X51700231Y-112686682D01*
X51655000Y-112914076D01*
X51469000Y-112914076D01*
X51423769Y-112686682D01*
X51335044Y-112472481D01*
X51206236Y-112279706D01*
X51042294Y-112115764D01*
X50849519Y-111986956D01*
X50635318Y-111898231D01*
X50407924Y-111853000D01*
X50176076Y-111853000D01*
X49948682Y-111898231D01*
X49734481Y-111986956D01*
X49541706Y-112115764D01*
X49377764Y-112279706D01*
X49248956Y-112472481D01*
X49160231Y-112686682D01*
X49115000Y-112914076D01*
X48929000Y-112914076D01*
X48883769Y-112686682D01*
X48795044Y-112472481D01*
X48666236Y-112279706D01*
X48502294Y-112115764D01*
X48309519Y-111986956D01*
X48095318Y-111898231D01*
X47867924Y-111853000D01*
X47636076Y-111853000D01*
X47408682Y-111898231D01*
X47194481Y-111986956D01*
X47001706Y-112115764D01*
X46837764Y-112279706D01*
X46708956Y-112472481D01*
X46620231Y-112686682D01*
X46575000Y-112914076D01*
X46389000Y-112914076D01*
X46343769Y-112686682D01*
X46255044Y-112472481D01*
X46126236Y-112279706D01*
X45962294Y-112115764D01*
X45769519Y-111986956D01*
X45555318Y-111898231D01*
X45327924Y-111853000D01*
X45096076Y-111853000D01*
X44868682Y-111898231D01*
X44654481Y-111986956D01*
X44461706Y-112115764D01*
X44297764Y-112279706D01*
X44168956Y-112472481D01*
X44158340Y-112498110D01*
X44160072Y-112180000D01*
X44147812Y-112055518D01*
X44111502Y-111935820D01*
X44052537Y-111825506D01*
X44011909Y-111776000D01*
X101684418Y-111776000D01*
X101684418Y-113776000D01*
X101690732Y-113840103D01*
X101709430Y-113901743D01*
X101739794Y-113958550D01*
X101780657Y-114008343D01*
X101830450Y-114049206D01*
X101887257Y-114079570D01*
X101948897Y-114098268D01*
X102013000Y-114104582D01*
X106013000Y-114104582D01*
X106077103Y-114098268D01*
X106138743Y-114079570D01*
X106195550Y-114049206D01*
X106245343Y-114008343D01*
X106286206Y-113958550D01*
X106316570Y-113901743D01*
X106335268Y-113840103D01*
X106341582Y-113776000D01*
X106341582Y-111776000D01*
X106335268Y-111711897D01*
X106316570Y-111650257D01*
X106286206Y-111593450D01*
X106245343Y-111543657D01*
X106195550Y-111502794D01*
X106138743Y-111472430D01*
X106077103Y-111453732D01*
X106013000Y-111447418D01*
X102013000Y-111447418D01*
X101948897Y-111453732D01*
X101887257Y-111472430D01*
X101830450Y-111502794D01*
X101780657Y-111543657D01*
X101739794Y-111593450D01*
X101709430Y-111650257D01*
X101690732Y-111711897D01*
X101684418Y-111776000D01*
X44011909Y-111776000D01*
X43973185Y-111728815D01*
X43876494Y-111649463D01*
X43766180Y-111590498D01*
X43646482Y-111554188D01*
X43522000Y-111541928D01*
X42957750Y-111545000D01*
X42799000Y-111703750D01*
X42545000Y-111703750D01*
X42386250Y-111545000D01*
X41822000Y-111541928D01*
X41697518Y-111554188D01*
X41577820Y-111590498D01*
X41467506Y-111649463D01*
X41370815Y-111728815D01*
X41291463Y-111825506D01*
X41232498Y-111935820D01*
X41196188Y-112055518D01*
X41183928Y-112180000D01*
X41076007Y-112180000D01*
X41084825Y-110374076D01*
X116933000Y-110374076D01*
X116933000Y-110605924D01*
X116978231Y-110833318D01*
X117066956Y-111047519D01*
X117195764Y-111240294D01*
X117359706Y-111404236D01*
X117552481Y-111533044D01*
X117766682Y-111621769D01*
X117994076Y-111667000D01*
X118225924Y-111667000D01*
X118453318Y-111621769D01*
X118667519Y-111533044D01*
X118860294Y-111404236D01*
X119024236Y-111240294D01*
X119153044Y-111047519D01*
X119241769Y-110833318D01*
X119287000Y-110605924D01*
X119287000Y-110374076D01*
X119241769Y-110146682D01*
X119153044Y-109932481D01*
X119024236Y-109739706D01*
X118860294Y-109575764D01*
X118667519Y-109446956D01*
X118453318Y-109358231D01*
X118225924Y-109313000D01*
X117994076Y-109313000D01*
X117766682Y-109358231D01*
X117552481Y-109446956D01*
X117359706Y-109575764D01*
X117195764Y-109739706D01*
X117066956Y-109932481D01*
X116978231Y-110146682D01*
X116933000Y-110374076D01*
X41084825Y-110374076D01*
X41108977Y-105428397D01*
X45273004Y-105428397D01*
X45273004Y-105571603D01*
X45300942Y-105712058D01*
X45355745Y-105844364D01*
X45435306Y-105963436D01*
X45536568Y-106064698D01*
X45655640Y-106144259D01*
X45787946Y-106199062D01*
X45928401Y-106227000D01*
X46071607Y-106227000D01*
X46085097Y-106224317D01*
X48114690Y-108253911D01*
X48128845Y-108271159D01*
X48197671Y-108327643D01*
X48276194Y-108369614D01*
X48341566Y-108389444D01*
X48361396Y-108395460D01*
X48450003Y-108404187D01*
X48472208Y-108402000D01*
X117023249Y-108402000D01*
X117066956Y-108507519D01*
X117195764Y-108700294D01*
X117359706Y-108864236D01*
X117552481Y-108993044D01*
X117766682Y-109081769D01*
X117994076Y-109127000D01*
X118225924Y-109127000D01*
X118453318Y-109081769D01*
X118667519Y-108993044D01*
X118860294Y-108864236D01*
X119024236Y-108700294D01*
X119153044Y-108507519D01*
X119241769Y-108293318D01*
X119287000Y-108065924D01*
X119287000Y-107834076D01*
X119241769Y-107606682D01*
X119153044Y-107392481D01*
X119024236Y-107199706D01*
X118860294Y-107035764D01*
X118667519Y-106906956D01*
X118502821Y-106838736D01*
X118741252Y-106754157D01*
X118991355Y-106605178D01*
X119207588Y-106410269D01*
X119381641Y-106176920D01*
X119506825Y-105914099D01*
X119551476Y-105766890D01*
X119430155Y-105537000D01*
X118237000Y-105537000D01*
X118237000Y-105557000D01*
X117983000Y-105557000D01*
X117983000Y-105537000D01*
X116789845Y-105537000D01*
X116668524Y-105766890D01*
X116713175Y-105914099D01*
X116838359Y-106176920D01*
X117012412Y-106410269D01*
X117228645Y-106605178D01*
X117478748Y-106754157D01*
X117717179Y-106838736D01*
X117552481Y-106906956D01*
X117359706Y-107035764D01*
X117195764Y-107199706D01*
X117066956Y-107392481D01*
X117023249Y-107498000D01*
X48637229Y-107498000D01*
X46724321Y-105585093D01*
X46727004Y-105571603D01*
X46727004Y-105428397D01*
X46699066Y-105287942D01*
X46644263Y-105155636D01*
X46575758Y-105053110D01*
X116668524Y-105053110D01*
X116789845Y-105283000D01*
X117983000Y-105283000D01*
X117983000Y-105263000D01*
X118237000Y-105263000D01*
X118237000Y-105283000D01*
X119430155Y-105283000D01*
X119551476Y-105053110D01*
X119506825Y-104905901D01*
X119381641Y-104643080D01*
X119207588Y-104409731D01*
X118991355Y-104214822D01*
X118741252Y-104065843D01*
X118502821Y-103981264D01*
X118667519Y-103913044D01*
X118860294Y-103784236D01*
X119024236Y-103620294D01*
X119153044Y-103427519D01*
X119241769Y-103213318D01*
X119287000Y-102985924D01*
X119287000Y-102754076D01*
X119241769Y-102526682D01*
X119153044Y-102312481D01*
X119024236Y-102119706D01*
X118860294Y-101955764D01*
X118667519Y-101826956D01*
X118453318Y-101738231D01*
X118225924Y-101693000D01*
X117994076Y-101693000D01*
X117766682Y-101738231D01*
X117552481Y-101826956D01*
X117359706Y-101955764D01*
X117195764Y-102119706D01*
X117066956Y-102312481D01*
X116978231Y-102526682D01*
X116933000Y-102754076D01*
X116933000Y-102985924D01*
X116978231Y-103213318D01*
X117066956Y-103427519D01*
X117195764Y-103620294D01*
X117359706Y-103784236D01*
X117552481Y-103913044D01*
X117717179Y-103981264D01*
X117478748Y-104065843D01*
X117228645Y-104214822D01*
X117012412Y-104409731D01*
X116838359Y-104643080D01*
X116713175Y-104905901D01*
X116668524Y-105053110D01*
X46575758Y-105053110D01*
X46564702Y-105036564D01*
X46463440Y-104935302D01*
X46344368Y-104855741D01*
X46212062Y-104800938D01*
X46071607Y-104773000D01*
X45928401Y-104773000D01*
X45787946Y-104800938D01*
X45655640Y-104855741D01*
X45536568Y-104935302D01*
X45435306Y-105036564D01*
X45355745Y-105155636D01*
X45300942Y-105287942D01*
X45273004Y-105428397D01*
X41108977Y-105428397D01*
X41187778Y-89292076D01*
X42003000Y-89292076D01*
X42003000Y-89523924D01*
X42048231Y-89751318D01*
X42136956Y-89965519D01*
X42204710Y-90066920D01*
X42235048Y-90123679D01*
X42338394Y-90249606D01*
X42353001Y-90261593D01*
X42353001Y-90891377D01*
X42349000Y-90932000D01*
X42364967Y-91094120D01*
X42412256Y-91250010D01*
X42489048Y-91393679D01*
X42566498Y-91488051D01*
X42592395Y-91519606D01*
X42623948Y-91545501D01*
X43788446Y-92710000D01*
X42588953Y-93909494D01*
X42557395Y-93935393D01*
X42531499Y-93966948D01*
X42454049Y-94061320D01*
X42426157Y-94113503D01*
X42377256Y-94204990D01*
X42329967Y-94360880D01*
X42318001Y-94482376D01*
X42318001Y-94482385D01*
X42314001Y-94522999D01*
X42318001Y-94563613D01*
X42318002Y-102104373D01*
X42314001Y-102144997D01*
X42329968Y-102307117D01*
X42377257Y-102463007D01*
X42454049Y-102606676D01*
X42531499Y-102701048D01*
X42557396Y-102732603D01*
X42588949Y-102758498D01*
X42988949Y-103158498D01*
X43083321Y-103235948D01*
X43226989Y-103312740D01*
X43382879Y-103360029D01*
X43544999Y-103375996D01*
X43707120Y-103360029D01*
X43863010Y-103312740D01*
X44006679Y-103235948D01*
X44132606Y-103132602D01*
X44235952Y-103006675D01*
X44312744Y-102863006D01*
X44360033Y-102707116D01*
X44376000Y-102544995D01*
X44360033Y-102382875D01*
X44312744Y-102226985D01*
X44235952Y-102083317D01*
X44158502Y-101988945D01*
X43972001Y-101802444D01*
X43972001Y-97428397D01*
X44273000Y-97428397D01*
X44273000Y-97571603D01*
X44300938Y-97712058D01*
X44355741Y-97844364D01*
X44435302Y-97963436D01*
X44536564Y-98064698D01*
X44655636Y-98144259D01*
X44787942Y-98199062D01*
X44928397Y-98227000D01*
X45071603Y-98227000D01*
X45085093Y-98224317D01*
X46164685Y-99303910D01*
X46178841Y-99321159D01*
X46247667Y-99377643D01*
X46326190Y-99419614D01*
X46377907Y-99435302D01*
X46411392Y-99445460D01*
X46499999Y-99454187D01*
X46522204Y-99452000D01*
X54019868Y-99452000D01*
X53935304Y-99536564D01*
X53855743Y-99655636D01*
X53800940Y-99787942D01*
X53773002Y-99928397D01*
X53773002Y-100071603D01*
X53800940Y-100212058D01*
X53855743Y-100344364D01*
X53935304Y-100463436D01*
X54036566Y-100564698D01*
X54155638Y-100644259D01*
X54287944Y-100699062D01*
X54428399Y-100727000D01*
X54571605Y-100727000D01*
X54602417Y-100720871D01*
X54656192Y-100749614D01*
X54741395Y-100775460D01*
X54807797Y-100782000D01*
X54807798Y-100782000D01*
X54830001Y-100784187D01*
X54852204Y-100782000D01*
X117023249Y-100782000D01*
X117066956Y-100887519D01*
X117195764Y-101080294D01*
X117359706Y-101244236D01*
X117552481Y-101373044D01*
X117766682Y-101461769D01*
X117994076Y-101507000D01*
X118225924Y-101507000D01*
X118453318Y-101461769D01*
X118667519Y-101373044D01*
X118860294Y-101244236D01*
X119024236Y-101080294D01*
X119153044Y-100887519D01*
X119241769Y-100673318D01*
X119287000Y-100445924D01*
X119287000Y-100214076D01*
X119241769Y-99986682D01*
X119153044Y-99772481D01*
X119024236Y-99579706D01*
X118860294Y-99415764D01*
X118667519Y-99286956D01*
X118453318Y-99198231D01*
X118225924Y-99153000D01*
X117994076Y-99153000D01*
X117766682Y-99198231D01*
X117552481Y-99286956D01*
X117359706Y-99415764D01*
X117195764Y-99579706D01*
X117066956Y-99772481D01*
X117023249Y-99878000D01*
X55216977Y-99878000D01*
X55199064Y-99787942D01*
X55144261Y-99655636D01*
X55064700Y-99536564D01*
X54980136Y-99452000D01*
X116877795Y-99452000D01*
X116900000Y-99454187D01*
X116922205Y-99452000D01*
X116988607Y-99445460D01*
X117073810Y-99419614D01*
X117152333Y-99377643D01*
X117221159Y-99321159D01*
X117235323Y-99303900D01*
X117661162Y-98878061D01*
X117766682Y-98921769D01*
X117994076Y-98967000D01*
X118225924Y-98967000D01*
X118453318Y-98921769D01*
X118667519Y-98833044D01*
X118860294Y-98704236D01*
X119024236Y-98540294D01*
X119153044Y-98347519D01*
X119241769Y-98133318D01*
X119287000Y-97905924D01*
X119287000Y-97674076D01*
X119241769Y-97446682D01*
X119153044Y-97232481D01*
X119024236Y-97039706D01*
X118860294Y-96875764D01*
X118667519Y-96746956D01*
X118453318Y-96658231D01*
X118225924Y-96613000D01*
X117994076Y-96613000D01*
X117766682Y-96658231D01*
X117552481Y-96746956D01*
X117359706Y-96875764D01*
X117195764Y-97039706D01*
X117066956Y-97232481D01*
X116978231Y-97446682D01*
X116933000Y-97674076D01*
X116933000Y-97905924D01*
X116978231Y-98133318D01*
X117021939Y-98238838D01*
X116712777Y-98548000D01*
X115091223Y-98548000D01*
X117428813Y-96210412D01*
X117552481Y-96293044D01*
X117766682Y-96381769D01*
X117994076Y-96427000D01*
X118225924Y-96427000D01*
X118453318Y-96381769D01*
X118667519Y-96293044D01*
X118860294Y-96164236D01*
X119024236Y-96000294D01*
X119153044Y-95807519D01*
X119241769Y-95593318D01*
X119287000Y-95365924D01*
X119287000Y-95134076D01*
X119241769Y-94906682D01*
X119153044Y-94692481D01*
X119024236Y-94499706D01*
X118860294Y-94335764D01*
X118667519Y-94206956D01*
X118453318Y-94118231D01*
X118225924Y-94073000D01*
X117994076Y-94073000D01*
X117766682Y-94118231D01*
X117552481Y-94206956D01*
X117359706Y-94335764D01*
X117195764Y-94499706D01*
X117066956Y-94692481D01*
X116978231Y-94906682D01*
X116933000Y-95134076D01*
X116933000Y-95365924D01*
X116943262Y-95417514D01*
X114312777Y-98048000D01*
X56777225Y-98048000D01*
X54657622Y-95928397D01*
X62273000Y-95928397D01*
X62273000Y-96071603D01*
X62300938Y-96212058D01*
X62355741Y-96344364D01*
X62435302Y-96463436D01*
X62536564Y-96564698D01*
X62655636Y-96644259D01*
X62787942Y-96699062D01*
X62928397Y-96727000D01*
X63071603Y-96727000D01*
X63212058Y-96699062D01*
X63344364Y-96644259D01*
X63463436Y-96564698D01*
X63564698Y-96463436D01*
X63572339Y-96452000D01*
X85587795Y-96452000D01*
X85610000Y-96454187D01*
X85632205Y-96452000D01*
X85698607Y-96445460D01*
X85783810Y-96419614D01*
X85862333Y-96377643D01*
X85931159Y-96321159D01*
X85945323Y-96303900D01*
X88210642Y-94038582D01*
X89900000Y-94038582D01*
X89964103Y-94032268D01*
X90025743Y-94013570D01*
X90082550Y-93983206D01*
X90132343Y-93942343D01*
X90173206Y-93892550D01*
X90198401Y-93845413D01*
X95544192Y-93845413D01*
X95639956Y-94109814D01*
X95929571Y-94250704D01*
X96241108Y-94332384D01*
X96562595Y-94351718D01*
X96881675Y-94307961D01*
X97186088Y-94202795D01*
X97360044Y-94109814D01*
X97455808Y-93845413D01*
X96500000Y-92889605D01*
X95544192Y-93845413D01*
X90198401Y-93845413D01*
X90203570Y-93835743D01*
X90222268Y-93774103D01*
X90228582Y-93710000D01*
X90228582Y-92772595D01*
X94858282Y-92772595D01*
X94902039Y-93091675D01*
X95007205Y-93396088D01*
X95100186Y-93570044D01*
X95364587Y-93665808D01*
X96320395Y-92710000D01*
X96679605Y-92710000D01*
X97635413Y-93665808D01*
X97899814Y-93570044D01*
X98040704Y-93280429D01*
X98122384Y-92968892D01*
X98141718Y-92647405D01*
X98097961Y-92328325D01*
X97992795Y-92023912D01*
X97899814Y-91849956D01*
X97635413Y-91754192D01*
X96679605Y-92710000D01*
X96320395Y-92710000D01*
X95364587Y-91754192D01*
X95100186Y-91849956D01*
X94959296Y-92139571D01*
X94877616Y-92451108D01*
X94858282Y-92772595D01*
X90228582Y-92772595D01*
X90228582Y-91710000D01*
X90222268Y-91645897D01*
X90203570Y-91584257D01*
X90173206Y-91527450D01*
X90132343Y-91477657D01*
X90082550Y-91436794D01*
X90025743Y-91406430D01*
X89964103Y-91387732D01*
X89900000Y-91381418D01*
X87900000Y-91381418D01*
X87835897Y-91387732D01*
X87774257Y-91406430D01*
X87717450Y-91436794D01*
X87667657Y-91477657D01*
X87626794Y-91527450D01*
X87596430Y-91584257D01*
X87577732Y-91645897D01*
X87571418Y-91710000D01*
X87571418Y-93399358D01*
X85422777Y-95548000D01*
X63572339Y-95548000D01*
X63564698Y-95536564D01*
X63463436Y-95435302D01*
X63344364Y-95355741D01*
X63212058Y-95300938D01*
X63071603Y-95273000D01*
X62928397Y-95273000D01*
X62787942Y-95300938D01*
X62655636Y-95355741D01*
X62536564Y-95435302D01*
X62435302Y-95536564D01*
X62355741Y-95655636D01*
X62300938Y-95787942D01*
X62273000Y-95928397D01*
X54657622Y-95928397D01*
X54064317Y-95335093D01*
X54067000Y-95321603D01*
X54067000Y-95178397D01*
X54039062Y-95037942D01*
X53984259Y-94905636D01*
X53904698Y-94786564D01*
X53803436Y-94685302D01*
X53684364Y-94605741D01*
X53552058Y-94550938D01*
X53411603Y-94523000D01*
X53268397Y-94523000D01*
X53127942Y-94550938D01*
X52995636Y-94605741D01*
X52876564Y-94685302D01*
X52775302Y-94786564D01*
X52695741Y-94905636D01*
X52640938Y-95037942D01*
X52613000Y-95178397D01*
X52613000Y-95321603D01*
X52640938Y-95462058D01*
X52695741Y-95594364D01*
X52775302Y-95713436D01*
X52876564Y-95814698D01*
X52995636Y-95894259D01*
X53127942Y-95949062D01*
X53268397Y-95977000D01*
X53411603Y-95977000D01*
X53425093Y-95974317D01*
X55998775Y-98548000D01*
X46687225Y-98548000D01*
X45724317Y-97585093D01*
X45727000Y-97571603D01*
X45727000Y-97428397D01*
X45699062Y-97287942D01*
X45644259Y-97155636D01*
X45564698Y-97036564D01*
X45463436Y-96935302D01*
X45344364Y-96855741D01*
X45212058Y-96800938D01*
X45071603Y-96773000D01*
X44928397Y-96773000D01*
X44787942Y-96800938D01*
X44655636Y-96855741D01*
X44536564Y-96935302D01*
X44435302Y-97036564D01*
X44355741Y-97155636D01*
X44300938Y-97287942D01*
X44273000Y-97428397D01*
X43972001Y-97428397D01*
X43972001Y-94865552D01*
X44958000Y-93879554D01*
X45134503Y-94056058D01*
X45160394Y-94087606D01*
X45191941Y-94113496D01*
X45191948Y-94113503D01*
X45286320Y-94190952D01*
X45316262Y-94206956D01*
X45429990Y-94267745D01*
X45585880Y-94315034D01*
X45707376Y-94327000D01*
X45707386Y-94327000D01*
X45748000Y-94331000D01*
X45788614Y-94327000D01*
X70289386Y-94327000D01*
X70330000Y-94331000D01*
X70370614Y-94327000D01*
X70370624Y-94327000D01*
X70492120Y-94315034D01*
X70648010Y-94267745D01*
X70791679Y-94190952D01*
X70917606Y-94087606D01*
X70943505Y-94056048D01*
X72749503Y-92250052D01*
X72826952Y-92155680D01*
X72903744Y-92012011D01*
X72951033Y-91856121D01*
X72967000Y-91694000D01*
X72951033Y-91531880D01*
X72903744Y-91375990D01*
X72826952Y-91232320D01*
X72742979Y-91130000D01*
X96066335Y-91130000D01*
X95813912Y-91217205D01*
X95639956Y-91310186D01*
X95544192Y-91574587D01*
X96500000Y-92530395D01*
X97455808Y-91574587D01*
X97360044Y-91310186D01*
X97070429Y-91169296D01*
X96920549Y-91130000D01*
X115890777Y-91130000D01*
X116931418Y-92170642D01*
X116931418Y-93560000D01*
X116937732Y-93624103D01*
X116956430Y-93685743D01*
X116986794Y-93742550D01*
X117027657Y-93792343D01*
X117077450Y-93833206D01*
X117134257Y-93863570D01*
X117195897Y-93882268D01*
X117260000Y-93888582D01*
X118960000Y-93888582D01*
X119024103Y-93882268D01*
X119085743Y-93863570D01*
X119142550Y-93833206D01*
X119192343Y-93792343D01*
X119233206Y-93742550D01*
X119263570Y-93685743D01*
X119282268Y-93624103D01*
X119288582Y-93560000D01*
X119288582Y-91860000D01*
X119282268Y-91795897D01*
X119263570Y-91734257D01*
X119233206Y-91677450D01*
X119192343Y-91627657D01*
X119142550Y-91586794D01*
X119085743Y-91556430D01*
X119024103Y-91537732D01*
X118960000Y-91531418D01*
X117570642Y-91531418D01*
X116413323Y-90374100D01*
X116399159Y-90356841D01*
X116330333Y-90300357D01*
X116251810Y-90258386D01*
X116166607Y-90232540D01*
X116100205Y-90226000D01*
X116078000Y-90223813D01*
X116055795Y-90226000D01*
X72007462Y-90226000D01*
X71985259Y-90223813D01*
X71963056Y-90226000D01*
X71963055Y-90226000D01*
X71896653Y-90232540D01*
X71811450Y-90258386D01*
X71732927Y-90300357D01*
X71664101Y-90356841D01*
X71649945Y-90374090D01*
X70274037Y-91750000D01*
X61338057Y-91750000D01*
X61418011Y-91725746D01*
X61561680Y-91648953D01*
X61687607Y-91545607D01*
X61713506Y-91514049D01*
X64564060Y-88663497D01*
X64595606Y-88637608D01*
X64621496Y-88606061D01*
X64621503Y-88606054D01*
X64698952Y-88511682D01*
X64775744Y-88368013D01*
X64775745Y-88368012D01*
X64823034Y-88212122D01*
X64835000Y-88090626D01*
X64835000Y-88090616D01*
X64839000Y-88050002D01*
X64835000Y-88009388D01*
X64835000Y-86065376D01*
X64823034Y-85943880D01*
X64775745Y-85787990D01*
X64698952Y-85644321D01*
X64595606Y-85518394D01*
X64469679Y-85415048D01*
X64326010Y-85338255D01*
X64170120Y-85290966D01*
X64008000Y-85274999D01*
X63845881Y-85290966D01*
X63689991Y-85338255D01*
X63546322Y-85415048D01*
X63420395Y-85518394D01*
X63317049Y-85644321D01*
X63240256Y-85787990D01*
X63192967Y-85943880D01*
X63181001Y-86065376D01*
X63181000Y-87707447D01*
X61175107Y-89713342D01*
X61175000Y-89693750D01*
X61016250Y-89535000D01*
X59817000Y-89535000D01*
X59817000Y-89555000D01*
X59563000Y-89555000D01*
X59563000Y-89535000D01*
X59543000Y-89535000D01*
X59543000Y-89281000D01*
X59563000Y-89281000D01*
X59563000Y-88081750D01*
X59817000Y-88081750D01*
X59817000Y-89281000D01*
X61016250Y-89281000D01*
X61175000Y-89122250D01*
X61178072Y-88558000D01*
X61165812Y-88433518D01*
X61129502Y-88313820D01*
X61070537Y-88203506D01*
X60991185Y-88106815D01*
X60894494Y-88027463D01*
X60784180Y-87968498D01*
X60664482Y-87932188D01*
X60540000Y-87919928D01*
X59975750Y-87923000D01*
X59817000Y-88081750D01*
X59563000Y-88081750D01*
X59404250Y-87923000D01*
X58840000Y-87919928D01*
X58715518Y-87932188D01*
X58595820Y-87968498D01*
X58485506Y-88027463D01*
X58388815Y-88106815D01*
X58309463Y-88203506D01*
X58250498Y-88313820D01*
X58214188Y-88433518D01*
X58201928Y-88558000D01*
X58203660Y-88876110D01*
X58193044Y-88850481D01*
X58064236Y-88657706D01*
X57900294Y-88493764D01*
X57707519Y-88364956D01*
X57493318Y-88276231D01*
X57265924Y-88231000D01*
X57034076Y-88231000D01*
X56806682Y-88276231D01*
X56592481Y-88364956D01*
X56399706Y-88493764D01*
X56235764Y-88657706D01*
X56106956Y-88850481D01*
X56018231Y-89064682D01*
X55973000Y-89292076D01*
X55973000Y-89523924D01*
X56018231Y-89751318D01*
X56106956Y-89965519D01*
X56235764Y-90158294D01*
X56323001Y-90245531D01*
X56323001Y-90569458D01*
X56319000Y-90610081D01*
X56334967Y-90772201D01*
X56382256Y-90928091D01*
X56459048Y-91071760D01*
X56509802Y-91133603D01*
X56562395Y-91197687D01*
X56593948Y-91223582D01*
X56884415Y-91514049D01*
X56910314Y-91545607D01*
X56982292Y-91604678D01*
X57036240Y-91648953D01*
X57089555Y-91677450D01*
X57179910Y-91725746D01*
X57259864Y-91750000D01*
X50225225Y-91750000D01*
X49622317Y-91147093D01*
X49625000Y-91133603D01*
X49625000Y-90990397D01*
X49597062Y-90849942D01*
X49559330Y-90758848D01*
X49595506Y-90788537D01*
X49705820Y-90847502D01*
X49825518Y-90883812D01*
X49950000Y-90896072D01*
X50514250Y-90893000D01*
X50673000Y-90734250D01*
X50673000Y-89535000D01*
X50927000Y-89535000D01*
X50927000Y-90734250D01*
X51085750Y-90893000D01*
X51650000Y-90896072D01*
X51774482Y-90883812D01*
X51894180Y-90847502D01*
X52004494Y-90788537D01*
X52101185Y-90709185D01*
X52180537Y-90612494D01*
X52239502Y-90502180D01*
X52275812Y-90382482D01*
X52288072Y-90258000D01*
X52285000Y-89693750D01*
X52126250Y-89535000D01*
X50927000Y-89535000D01*
X50673000Y-89535000D01*
X50653000Y-89535000D01*
X50653000Y-89292076D01*
X53433000Y-89292076D01*
X53433000Y-89523924D01*
X53478231Y-89751318D01*
X53566956Y-89965519D01*
X53695764Y-90158294D01*
X53859706Y-90322236D01*
X54052481Y-90451044D01*
X54266682Y-90539769D01*
X54494076Y-90585000D01*
X54725924Y-90585000D01*
X54953318Y-90539769D01*
X55167519Y-90451044D01*
X55360294Y-90322236D01*
X55524236Y-90158294D01*
X55653044Y-89965519D01*
X55741769Y-89751318D01*
X55787000Y-89523924D01*
X55787000Y-89292076D01*
X55741769Y-89064682D01*
X55653044Y-88850481D01*
X55524236Y-88657706D01*
X55360294Y-88493764D01*
X55167519Y-88364956D01*
X54953318Y-88276231D01*
X54725924Y-88231000D01*
X54494076Y-88231000D01*
X54266682Y-88276231D01*
X54052481Y-88364956D01*
X53859706Y-88493764D01*
X53695764Y-88657706D01*
X53566956Y-88850481D01*
X53478231Y-89064682D01*
X53433000Y-89292076D01*
X50653000Y-89292076D01*
X50653000Y-89281000D01*
X50673000Y-89281000D01*
X50673000Y-88081750D01*
X50927000Y-88081750D01*
X50927000Y-89281000D01*
X52126250Y-89281000D01*
X52285000Y-89122250D01*
X52288072Y-88558000D01*
X52275812Y-88433518D01*
X52239502Y-88313820D01*
X52180537Y-88203506D01*
X52101185Y-88106815D01*
X52004494Y-88027463D01*
X51894180Y-87968498D01*
X51774482Y-87932188D01*
X51650000Y-87919928D01*
X51085750Y-87923000D01*
X50927000Y-88081750D01*
X50673000Y-88081750D01*
X50514250Y-87923000D01*
X49950000Y-87919928D01*
X49825518Y-87932188D01*
X49705820Y-87968498D01*
X49595506Y-88027463D01*
X49498815Y-88106815D01*
X49419463Y-88203506D01*
X49360498Y-88313820D01*
X49324188Y-88433518D01*
X49311928Y-88558000D01*
X49313660Y-88876110D01*
X49303044Y-88850481D01*
X49174236Y-88657706D01*
X49010294Y-88493764D01*
X48817519Y-88364956D01*
X48603318Y-88276231D01*
X48375924Y-88231000D01*
X48144076Y-88231000D01*
X47916682Y-88276231D01*
X47702481Y-88364956D01*
X47509706Y-88493764D01*
X47345764Y-88657706D01*
X47216956Y-88850481D01*
X47128231Y-89064682D01*
X47083000Y-89292076D01*
X47083000Y-89523924D01*
X47128231Y-89751318D01*
X47216956Y-89965519D01*
X47345764Y-90158294D01*
X47509706Y-90322236D01*
X47702481Y-90451044D01*
X47916682Y-90539769D01*
X48144076Y-90585000D01*
X48346866Y-90585000D01*
X48333302Y-90598564D01*
X48253741Y-90717636D01*
X48198938Y-90849942D01*
X48171000Y-90990397D01*
X48171000Y-91133603D01*
X48198938Y-91274058D01*
X48253741Y-91406364D01*
X48333302Y-91525436D01*
X48434564Y-91626698D01*
X48553636Y-91706259D01*
X48685942Y-91761062D01*
X48826397Y-91789000D01*
X48969603Y-91789000D01*
X48983093Y-91786317D01*
X49702685Y-92505910D01*
X49716841Y-92523159D01*
X49785667Y-92579643D01*
X49864190Y-92621614D01*
X49949393Y-92647460D01*
X50015795Y-92654000D01*
X50015796Y-92654000D01*
X50037999Y-92656187D01*
X50060202Y-92654000D01*
X70006447Y-92654000D01*
X69987447Y-92673000D01*
X46090554Y-92673000D01*
X45571512Y-92153958D01*
X45571503Y-92153948D01*
X45571497Y-92153942D01*
X45545606Y-92122394D01*
X45514057Y-92096502D01*
X44007000Y-90589447D01*
X44007000Y-90245530D01*
X44094236Y-90158294D01*
X44223044Y-89965519D01*
X44311769Y-89751318D01*
X44357000Y-89523924D01*
X44357000Y-89292076D01*
X44543000Y-89292076D01*
X44543000Y-89523924D01*
X44588231Y-89751318D01*
X44676956Y-89965519D01*
X44805764Y-90158294D01*
X44969706Y-90322236D01*
X45162481Y-90451044D01*
X45376682Y-90539769D01*
X45604076Y-90585000D01*
X45835924Y-90585000D01*
X46063318Y-90539769D01*
X46277519Y-90451044D01*
X46470294Y-90322236D01*
X46634236Y-90158294D01*
X46763044Y-89965519D01*
X46851769Y-89751318D01*
X46897000Y-89523924D01*
X46897000Y-89292076D01*
X46851769Y-89064682D01*
X46763044Y-88850481D01*
X46634236Y-88657706D01*
X46470294Y-88493764D01*
X46277519Y-88364956D01*
X46063318Y-88276231D01*
X45835924Y-88231000D01*
X45604076Y-88231000D01*
X45376682Y-88276231D01*
X45162481Y-88364956D01*
X44969706Y-88493764D01*
X44805764Y-88657706D01*
X44676956Y-88850481D01*
X44588231Y-89064682D01*
X44543000Y-89292076D01*
X44357000Y-89292076D01*
X44311769Y-89064682D01*
X44223044Y-88850481D01*
X44094236Y-88657706D01*
X43930294Y-88493764D01*
X43737519Y-88364956D01*
X43523318Y-88276231D01*
X43295924Y-88231000D01*
X43064076Y-88231000D01*
X42836682Y-88276231D01*
X42622481Y-88364956D01*
X42429706Y-88493764D01*
X42265764Y-88657706D01*
X42136956Y-88850481D01*
X42048231Y-89064682D01*
X42003000Y-89292076D01*
X41187778Y-89292076D01*
X41232381Y-80158652D01*
X117037027Y-80099797D01*
X116767605Y-80279819D01*
X116279819Y-80767605D01*
X115896568Y-81341181D01*
X115632580Y-81978504D01*
X115498000Y-82655083D01*
X115498000Y-83344917D01*
X115632580Y-84021496D01*
X115896568Y-84658819D01*
X116279819Y-85232395D01*
X116767605Y-85720181D01*
X117341181Y-86103432D01*
X117978504Y-86367420D01*
X118655083Y-86502000D01*
X119344917Y-86502000D01*
X120021496Y-86367420D01*
X120658819Y-86103432D01*
X121232395Y-85720181D01*
X121720181Y-85232395D01*
X122103432Y-84658819D01*
X122367420Y-84021496D01*
X122502000Y-83344917D01*
X122502000Y-82655083D01*
X122367420Y-81978504D01*
X122103432Y-81341181D01*
X121720181Y-80767605D01*
X121232395Y-80279819D01*
X120958417Y-80096753D01*
X122648001Y-80095441D01*
X122648001Y-80982708D01*
%TA.AperFunction,Conductor*%
D22*
G36*
X122648001Y-80982708D02*
G01*
X122648000Y-104336152D01*
X122555619Y-123253598D01*
X120292044Y-123255355D01*
X120658819Y-123103432D01*
X121232395Y-122720181D01*
X121720181Y-122232395D01*
X122103432Y-121658819D01*
X122367420Y-121021496D01*
X122502000Y-120344917D01*
X122502000Y-119655083D01*
X122367420Y-118978504D01*
X122103432Y-118341181D01*
X121720181Y-117767605D01*
X121232395Y-117279819D01*
X120658819Y-116896568D01*
X120021496Y-116632580D01*
X119344917Y-116498000D01*
X118655083Y-116498000D01*
X117978504Y-116632580D01*
X117341181Y-116896568D01*
X116767605Y-117279819D01*
X116279819Y-117767605D01*
X115896568Y-118341181D01*
X115632580Y-118978504D01*
X115498000Y-119655083D01*
X115498000Y-120344917D01*
X115632580Y-121021496D01*
X115896568Y-121658819D01*
X116279819Y-122232395D01*
X116767605Y-122720181D01*
X117341181Y-123103432D01*
X117712791Y-123257358D01*
X41021622Y-123316901D01*
X41042894Y-118960817D01*
X98186000Y-118960817D01*
X98186000Y-120591184D01*
X98205201Y-120786137D01*
X98281082Y-121036278D01*
X98404303Y-121266808D01*
X98570131Y-121468870D01*
X98772193Y-121634698D01*
X99002723Y-121757919D01*
X99252864Y-121833799D01*
X99513000Y-121859420D01*
X99773137Y-121833799D01*
X100023278Y-121757919D01*
X100197117Y-121665000D01*
X102886000Y-121665000D01*
X102886000Y-121887000D01*
X102929310Y-122104734D01*
X103014266Y-122309835D01*
X103137602Y-122494421D01*
X103294579Y-122651398D01*
X103479165Y-122774734D01*
X103684266Y-122859690D01*
X103902000Y-122903000D01*
X104124000Y-122903000D01*
X104341734Y-122859690D01*
X104546835Y-122774734D01*
X104731421Y-122651398D01*
X104888398Y-122494421D01*
X105011734Y-122309835D01*
X105096690Y-122104734D01*
X105140000Y-121887000D01*
X105140000Y-121665000D01*
X105096690Y-121447266D01*
X105011734Y-121242165D01*
X104888398Y-121057579D01*
X104731421Y-120900602D01*
X104546835Y-120777266D01*
X104341734Y-120692310D01*
X104124000Y-120649000D01*
X103902000Y-120649000D01*
X103684266Y-120692310D01*
X103479165Y-120777266D01*
X103294579Y-120900602D01*
X103137602Y-121057579D01*
X103014266Y-121242165D01*
X102929310Y-121447266D01*
X102886000Y-121665000D01*
X100197117Y-121665000D01*
X100253808Y-121634698D01*
X100455870Y-121468870D01*
X100621698Y-121266808D01*
X100744919Y-121036278D01*
X100820799Y-120786137D01*
X100840000Y-120591184D01*
X100840000Y-119156434D01*
X101772876Y-119156434D01*
X101803856Y-119284355D01*
X101932990Y-119578761D01*
X102117078Y-119842317D01*
X102349046Y-120064895D01*
X102619980Y-120237942D01*
X102919468Y-120354807D01*
X103236000Y-120411000D01*
X103886000Y-120411000D01*
X103886000Y-118903000D01*
X104140000Y-118903000D01*
X104140000Y-120411000D01*
X104790000Y-120411000D01*
X105106532Y-120354807D01*
X105406020Y-120237942D01*
X105676954Y-120064895D01*
X105908922Y-119842317D01*
X106093010Y-119578761D01*
X106222144Y-119284355D01*
X106253124Y-119156434D01*
X106161005Y-118960817D01*
X107186000Y-118960817D01*
X107186000Y-120591184D01*
X107205201Y-120786137D01*
X107281082Y-121036278D01*
X107404303Y-121266808D01*
X107570131Y-121468870D01*
X107772193Y-121634698D01*
X108002723Y-121757919D01*
X108252864Y-121833799D01*
X108513000Y-121859420D01*
X108773137Y-121833799D01*
X109023278Y-121757919D01*
X109253808Y-121634698D01*
X109455870Y-121468870D01*
X109621698Y-121266808D01*
X109744919Y-121036278D01*
X109820799Y-120786137D01*
X109840000Y-120591184D01*
X109840000Y-118960816D01*
X109820799Y-118765863D01*
X109744919Y-118515722D01*
X109621698Y-118285192D01*
X109455870Y-118083130D01*
X109253807Y-117917302D01*
X109023277Y-117794081D01*
X108773136Y-117718201D01*
X108513000Y-117692580D01*
X108252863Y-117718201D01*
X108002722Y-117794081D01*
X107772192Y-117917302D01*
X107570130Y-118083130D01*
X107404302Y-118285193D01*
X107281081Y-118515723D01*
X107205201Y-118765864D01*
X107186000Y-118960817D01*
X106161005Y-118960817D01*
X106133777Y-118903000D01*
X104140000Y-118903000D01*
X103886000Y-118903000D01*
X101892223Y-118903000D01*
X101772876Y-119156434D01*
X100840000Y-119156434D01*
X100840000Y-118960816D01*
X100820799Y-118765863D01*
X100744919Y-118515722D01*
X100680695Y-118395566D01*
X101772876Y-118395566D01*
X101892223Y-118649000D01*
X103886000Y-118649000D01*
X103886000Y-117141000D01*
X104140000Y-117141000D01*
X104140000Y-118649000D01*
X106133777Y-118649000D01*
X106253124Y-118395566D01*
X106222144Y-118267645D01*
X106093010Y-117973239D01*
X105908922Y-117709683D01*
X105676954Y-117487105D01*
X105406020Y-117314058D01*
X105106532Y-117197193D01*
X104790000Y-117141000D01*
X104140000Y-117141000D01*
X103886000Y-117141000D01*
X103236000Y-117141000D01*
X102919468Y-117197193D01*
X102619980Y-117314058D01*
X102349046Y-117487105D01*
X102117078Y-117709683D01*
X101932990Y-117973239D01*
X101803856Y-118267645D01*
X101772876Y-118395566D01*
X100680695Y-118395566D01*
X100621698Y-118285192D01*
X100455870Y-118083130D01*
X100253807Y-117917302D01*
X100023277Y-117794081D01*
X99773136Y-117718201D01*
X99513000Y-117692580D01*
X99252863Y-117718201D01*
X99002722Y-117794081D01*
X98772192Y-117917302D01*
X98570130Y-118083130D01*
X98404302Y-118285193D01*
X98281081Y-118515723D01*
X98205201Y-118765864D01*
X98186000Y-118960817D01*
X41042894Y-118960817D01*
X41057710Y-115926891D01*
X41230519Y-115926891D01*
X41327843Y-116201252D01*
X41476822Y-116451355D01*
X41671731Y-116667588D01*
X41905080Y-116841641D01*
X42167901Y-116966825D01*
X42315110Y-117011476D01*
X42545000Y-116890155D01*
X42545000Y-115697000D01*
X41351186Y-115697000D01*
X41230519Y-115926891D01*
X41057710Y-115926891D01*
X41067706Y-113880000D01*
X41183928Y-113880000D01*
X41196188Y-114004482D01*
X41232498Y-114124180D01*
X41291463Y-114234494D01*
X41370815Y-114331185D01*
X41467506Y-114410537D01*
X41577820Y-114469502D01*
X41653626Y-114492498D01*
X41476822Y-114688645D01*
X41327843Y-114938748D01*
X41230519Y-115213109D01*
X41351186Y-115443000D01*
X42545000Y-115443000D01*
X42545000Y-113157000D01*
X41345750Y-113157000D01*
X41187000Y-113315750D01*
X41183928Y-113880000D01*
X41067706Y-113880000D01*
X41076007Y-112180000D01*
X41183928Y-112180000D01*
X41187000Y-112744250D01*
X41345750Y-112903000D01*
X42545000Y-112903000D01*
X42545000Y-111703750D01*
X42799000Y-111703750D01*
X42799000Y-112903000D01*
X42819000Y-112903000D01*
X42819000Y-113157000D01*
X42799000Y-113157000D01*
X42799000Y-115443000D01*
X42819000Y-115443000D01*
X42819000Y-115697000D01*
X42799000Y-115697000D01*
X42799000Y-116890155D01*
X43028890Y-117011476D01*
X43176099Y-116966825D01*
X43438920Y-116841641D01*
X43672269Y-116667588D01*
X43867178Y-116451355D01*
X44016157Y-116201252D01*
X44100736Y-115962821D01*
X44168956Y-116127519D01*
X44297764Y-116320294D01*
X44461706Y-116484236D01*
X44654481Y-116613044D01*
X44868682Y-116701769D01*
X45096076Y-116747000D01*
X45327924Y-116747000D01*
X45555318Y-116701769D01*
X45769519Y-116613044D01*
X45962294Y-116484236D01*
X46126236Y-116320294D01*
X46255044Y-116127519D01*
X46343769Y-115913318D01*
X46389000Y-115685924D01*
X46389000Y-115454076D01*
X46575000Y-115454076D01*
X46575000Y-115685924D01*
X46620231Y-115913318D01*
X46708956Y-116127519D01*
X46837764Y-116320294D01*
X47001706Y-116484236D01*
X47194481Y-116613044D01*
X47408682Y-116701769D01*
X47636076Y-116747000D01*
X47867924Y-116747000D01*
X48095318Y-116701769D01*
X48309519Y-116613044D01*
X48502294Y-116484236D01*
X48666236Y-116320294D01*
X48795044Y-116127519D01*
X48883769Y-115913318D01*
X48929000Y-115685924D01*
X48929000Y-115454076D01*
X49115000Y-115454076D01*
X49115000Y-115685924D01*
X49160231Y-115913318D01*
X49248956Y-116127519D01*
X49377764Y-116320294D01*
X49541706Y-116484236D01*
X49734481Y-116613044D01*
X49948682Y-116701769D01*
X50176076Y-116747000D01*
X50407924Y-116747000D01*
X50635318Y-116701769D01*
X50849519Y-116613044D01*
X51042294Y-116484236D01*
X51206236Y-116320294D01*
X51335044Y-116127519D01*
X51423769Y-115913318D01*
X51469000Y-115685924D01*
X51469000Y-115454076D01*
X51655000Y-115454076D01*
X51655000Y-115685924D01*
X51700231Y-115913318D01*
X51788956Y-116127519D01*
X51917764Y-116320294D01*
X52081706Y-116484236D01*
X52274481Y-116613044D01*
X52488682Y-116701769D01*
X52716076Y-116747000D01*
X52947924Y-116747000D01*
X53175318Y-116701769D01*
X53389519Y-116613044D01*
X53582294Y-116484236D01*
X53746236Y-116320294D01*
X53875044Y-116127519D01*
X53963769Y-115913318D01*
X54009000Y-115685924D01*
X54009000Y-115454076D01*
X54195000Y-115454076D01*
X54195000Y-115685924D01*
X54240231Y-115913318D01*
X54328956Y-116127519D01*
X54457764Y-116320294D01*
X54621706Y-116484236D01*
X54814481Y-116613044D01*
X55028682Y-116701769D01*
X55256076Y-116747000D01*
X55487924Y-116747000D01*
X55715318Y-116701769D01*
X55929519Y-116613044D01*
X56122294Y-116484236D01*
X56286236Y-116320294D01*
X56415044Y-116127519D01*
X56503769Y-115913318D01*
X56549000Y-115685924D01*
X56549000Y-115454076D01*
X56735000Y-115454076D01*
X56735000Y-115685924D01*
X56780231Y-115913318D01*
X56868956Y-116127519D01*
X56997764Y-116320294D01*
X57161706Y-116484236D01*
X57354481Y-116613044D01*
X57568682Y-116701769D01*
X57796076Y-116747000D01*
X58027924Y-116747000D01*
X58255318Y-116701769D01*
X58469519Y-116613044D01*
X58662294Y-116484236D01*
X58726530Y-116420000D01*
X60233928Y-116420000D01*
X60246188Y-116544482D01*
X60282498Y-116664180D01*
X60341463Y-116774494D01*
X60420815Y-116871185D01*
X60517506Y-116950537D01*
X60627820Y-117009502D01*
X60747518Y-117045812D01*
X60872000Y-117058072D01*
X61436250Y-117055000D01*
X61595000Y-116896250D01*
X61595000Y-115697000D01*
X60395750Y-115697000D01*
X60237000Y-115855750D01*
X60233928Y-116420000D01*
X58726530Y-116420000D01*
X58826236Y-116320294D01*
X58955044Y-116127519D01*
X59043769Y-115913318D01*
X59089000Y-115685924D01*
X59089000Y-115454076D01*
X59043769Y-115226682D01*
X58955044Y-115012481D01*
X58826236Y-114819706D01*
X58726530Y-114720000D01*
X60233928Y-114720000D01*
X60237000Y-115284250D01*
X60395750Y-115443000D01*
X61595000Y-115443000D01*
X61595000Y-114243750D01*
X61849000Y-114243750D01*
X61849000Y-115443000D01*
X61869000Y-115443000D01*
X61869000Y-115697000D01*
X61849000Y-115697000D01*
X61849000Y-116896250D01*
X62007750Y-117055000D01*
X62572000Y-117058072D01*
X62696482Y-117045812D01*
X62816180Y-117009502D01*
X62926494Y-116950537D01*
X63023185Y-116871185D01*
X63102537Y-116774494D01*
X63161502Y-116664180D01*
X63197812Y-116544482D01*
X63210072Y-116420000D01*
X63208340Y-116101890D01*
X63218956Y-116127519D01*
X63347764Y-116320294D01*
X63511706Y-116484236D01*
X63704481Y-116613044D01*
X63918682Y-116701769D01*
X64146076Y-116747000D01*
X64377924Y-116747000D01*
X64605318Y-116701769D01*
X64819519Y-116613044D01*
X65012294Y-116484236D01*
X65176236Y-116320294D01*
X65305044Y-116127519D01*
X65393769Y-115913318D01*
X65439000Y-115685924D01*
X65439000Y-115454076D01*
X65625000Y-115454076D01*
X65625000Y-115685924D01*
X65670231Y-115913318D01*
X65758956Y-116127519D01*
X65887764Y-116320294D01*
X66051706Y-116484236D01*
X66244481Y-116613044D01*
X66458682Y-116701769D01*
X66686076Y-116747000D01*
X66917924Y-116747000D01*
X67145318Y-116701769D01*
X67359519Y-116613044D01*
X67552294Y-116484236D01*
X67716236Y-116320294D01*
X67845044Y-116127519D01*
X67933769Y-115913318D01*
X67979000Y-115685924D01*
X67979000Y-115454076D01*
X68165000Y-115454076D01*
X68165000Y-115685924D01*
X68210231Y-115913318D01*
X68298956Y-116127519D01*
X68427764Y-116320294D01*
X68591706Y-116484236D01*
X68784481Y-116613044D01*
X68998682Y-116701769D01*
X69226076Y-116747000D01*
X69457924Y-116747000D01*
X69685318Y-116701769D01*
X69899519Y-116613044D01*
X70092294Y-116484236D01*
X70256236Y-116320294D01*
X70385044Y-116127519D01*
X70473769Y-115913318D01*
X70519000Y-115685924D01*
X70519000Y-115454076D01*
X70473769Y-115226682D01*
X70385044Y-115012481D01*
X70256236Y-114819706D01*
X70092294Y-114655764D01*
X69899519Y-114526956D01*
X69685318Y-114438231D01*
X69457924Y-114393000D01*
X69226076Y-114393000D01*
X68998682Y-114438231D01*
X68784481Y-114526956D01*
X68591706Y-114655764D01*
X68427764Y-114819706D01*
X68298956Y-115012481D01*
X68210231Y-115226682D01*
X68165000Y-115454076D01*
X67979000Y-115454076D01*
X67933769Y-115226682D01*
X67845044Y-115012481D01*
X67716236Y-114819706D01*
X67552294Y-114655764D01*
X67359519Y-114526956D01*
X67145318Y-114438231D01*
X66917924Y-114393000D01*
X66686076Y-114393000D01*
X66458682Y-114438231D01*
X66244481Y-114526956D01*
X66051706Y-114655764D01*
X65887764Y-114819706D01*
X65758956Y-115012481D01*
X65670231Y-115226682D01*
X65625000Y-115454076D01*
X65439000Y-115454076D01*
X65393769Y-115226682D01*
X65305044Y-115012481D01*
X65176236Y-114819706D01*
X65012294Y-114655764D01*
X64819519Y-114526956D01*
X64605318Y-114438231D01*
X64377924Y-114393000D01*
X64146076Y-114393000D01*
X63918682Y-114438231D01*
X63704481Y-114526956D01*
X63511706Y-114655764D01*
X63347764Y-114819706D01*
X63218956Y-115012481D01*
X63208340Y-115038110D01*
X63210072Y-114720000D01*
X63197812Y-114595518D01*
X63161502Y-114475820D01*
X63102537Y-114365506D01*
X63023185Y-114268815D01*
X62926494Y-114189463D01*
X62816180Y-114130498D01*
X62696482Y-114094188D01*
X62572000Y-114081928D01*
X62007750Y-114085000D01*
X61849000Y-114243750D01*
X61595000Y-114243750D01*
X61436250Y-114085000D01*
X60872000Y-114081928D01*
X60747518Y-114094188D01*
X60627820Y-114130498D01*
X60517506Y-114189463D01*
X60420815Y-114268815D01*
X60341463Y-114365506D01*
X60282498Y-114475820D01*
X60246188Y-114595518D01*
X60233928Y-114720000D01*
X58726530Y-114720000D01*
X58662294Y-114655764D01*
X58469519Y-114526956D01*
X58255318Y-114438231D01*
X58027924Y-114393000D01*
X57796076Y-114393000D01*
X57568682Y-114438231D01*
X57354481Y-114526956D01*
X57161706Y-114655764D01*
X56997764Y-114819706D01*
X56868956Y-115012481D01*
X56780231Y-115226682D01*
X56735000Y-115454076D01*
X56549000Y-115454076D01*
X56503769Y-115226682D01*
X56415044Y-115012481D01*
X56286236Y-114819706D01*
X56122294Y-114655764D01*
X55929519Y-114526956D01*
X55715318Y-114438231D01*
X55487924Y-114393000D01*
X55256076Y-114393000D01*
X55028682Y-114438231D01*
X54814481Y-114526956D01*
X54621706Y-114655764D01*
X54457764Y-114819706D01*
X54328956Y-115012481D01*
X54240231Y-115226682D01*
X54195000Y-115454076D01*
X54009000Y-115454076D01*
X53963769Y-115226682D01*
X53875044Y-115012481D01*
X53746236Y-114819706D01*
X53582294Y-114655764D01*
X53389519Y-114526956D01*
X53175318Y-114438231D01*
X52947924Y-114393000D01*
X52716076Y-114393000D01*
X52488682Y-114438231D01*
X52274481Y-114526956D01*
X52081706Y-114655764D01*
X51917764Y-114819706D01*
X51788956Y-115012481D01*
X51700231Y-115226682D01*
X51655000Y-115454076D01*
X51469000Y-115454076D01*
X51423769Y-115226682D01*
X51335044Y-115012481D01*
X51206236Y-114819706D01*
X51042294Y-114655764D01*
X50849519Y-114526956D01*
X50635318Y-114438231D01*
X50407924Y-114393000D01*
X50176076Y-114393000D01*
X49948682Y-114438231D01*
X49734481Y-114526956D01*
X49541706Y-114655764D01*
X49377764Y-114819706D01*
X49248956Y-115012481D01*
X49160231Y-115226682D01*
X49115000Y-115454076D01*
X48929000Y-115454076D01*
X48883769Y-115226682D01*
X48795044Y-115012481D01*
X48666236Y-114819706D01*
X48502294Y-114655764D01*
X48309519Y-114526956D01*
X48095318Y-114438231D01*
X47867924Y-114393000D01*
X47636076Y-114393000D01*
X47408682Y-114438231D01*
X47194481Y-114526956D01*
X47001706Y-114655764D01*
X46837764Y-114819706D01*
X46708956Y-115012481D01*
X46620231Y-115226682D01*
X46575000Y-115454076D01*
X46389000Y-115454076D01*
X46343769Y-115226682D01*
X46255044Y-115012481D01*
X46126236Y-114819706D01*
X45962294Y-114655764D01*
X45769519Y-114526956D01*
X45555318Y-114438231D01*
X45327924Y-114393000D01*
X45096076Y-114393000D01*
X44868682Y-114438231D01*
X44654481Y-114526956D01*
X44461706Y-114655764D01*
X44297764Y-114819706D01*
X44168956Y-115012481D01*
X44100736Y-115177179D01*
X44016157Y-114938748D01*
X43867178Y-114688645D01*
X43690374Y-114492498D01*
X43766180Y-114469502D01*
X43876494Y-114410537D01*
X43973185Y-114331185D01*
X44052537Y-114234494D01*
X44111502Y-114124180D01*
X44147812Y-114004482D01*
X44160072Y-113880000D01*
X44158340Y-113561890D01*
X44168956Y-113587519D01*
X44297764Y-113780294D01*
X44461706Y-113944236D01*
X44654481Y-114073044D01*
X44868682Y-114161769D01*
X45096076Y-114207000D01*
X45327924Y-114207000D01*
X45555318Y-114161769D01*
X45769519Y-114073044D01*
X45962294Y-113944236D01*
X46126236Y-113780294D01*
X46255044Y-113587519D01*
X46343769Y-113373318D01*
X46389000Y-113145924D01*
X46389000Y-112914076D01*
X46575000Y-112914076D01*
X46575000Y-113145924D01*
X46620231Y-113373318D01*
X46708956Y-113587519D01*
X46837764Y-113780294D01*
X47001706Y-113944236D01*
X47194481Y-114073044D01*
X47408682Y-114161769D01*
X47636076Y-114207000D01*
X47867924Y-114207000D01*
X48095318Y-114161769D01*
X48309519Y-114073044D01*
X48502294Y-113944236D01*
X48666236Y-113780294D01*
X48795044Y-113587519D01*
X48883769Y-113373318D01*
X48929000Y-113145924D01*
X48929000Y-112914076D01*
X49115000Y-112914076D01*
X49115000Y-113145924D01*
X49160231Y-113373318D01*
X49248956Y-113587519D01*
X49377764Y-113780294D01*
X49541706Y-113944236D01*
X49734481Y-114073044D01*
X49948682Y-114161769D01*
X50176076Y-114207000D01*
X50407924Y-114207000D01*
X50635318Y-114161769D01*
X50849519Y-114073044D01*
X51042294Y-113944236D01*
X51206236Y-113780294D01*
X51335044Y-113587519D01*
X51423769Y-113373318D01*
X51469000Y-113145924D01*
X51469000Y-112914076D01*
X51655000Y-112914076D01*
X51655000Y-113145924D01*
X51700231Y-113373318D01*
X51788956Y-113587519D01*
X51917764Y-113780294D01*
X52081706Y-113944236D01*
X52274481Y-114073044D01*
X52488682Y-114161769D01*
X52716076Y-114207000D01*
X52947924Y-114207000D01*
X53175318Y-114161769D01*
X53389519Y-114073044D01*
X53582294Y-113944236D01*
X53746236Y-113780294D01*
X53875044Y-113587519D01*
X53963769Y-113373318D01*
X54009000Y-113145924D01*
X54009000Y-112914076D01*
X54195000Y-112914076D01*
X54195000Y-113145924D01*
X54240231Y-113373318D01*
X54328956Y-113587519D01*
X54457764Y-113780294D01*
X54621706Y-113944236D01*
X54814481Y-114073044D01*
X55028682Y-114161769D01*
X55256076Y-114207000D01*
X55487924Y-114207000D01*
X55715318Y-114161769D01*
X55929519Y-114073044D01*
X56122294Y-113944236D01*
X56286236Y-113780294D01*
X56415044Y-113587519D01*
X56503769Y-113373318D01*
X56549000Y-113145924D01*
X56549000Y-112914076D01*
X56735000Y-112914076D01*
X56735000Y-113145924D01*
X56780231Y-113373318D01*
X56868956Y-113587519D01*
X56997764Y-113780294D01*
X57161706Y-113944236D01*
X57354481Y-114073044D01*
X57568682Y-114161769D01*
X57796076Y-114207000D01*
X58027924Y-114207000D01*
X58255318Y-114161769D01*
X58469519Y-114073044D01*
X58662294Y-113944236D01*
X58826236Y-113780294D01*
X58955044Y-113587519D01*
X59043769Y-113373318D01*
X59089000Y-113145924D01*
X59089000Y-112914076D01*
X59043769Y-112686682D01*
X58955044Y-112472481D01*
X58826236Y-112279706D01*
X58662294Y-112115764D01*
X58469519Y-111986956D01*
X58255318Y-111898231D01*
X58027924Y-111853000D01*
X57796076Y-111853000D01*
X57568682Y-111898231D01*
X57354481Y-111986956D01*
X57161706Y-112115764D01*
X56997764Y-112279706D01*
X56868956Y-112472481D01*
X56780231Y-112686682D01*
X56735000Y-112914076D01*
X56549000Y-112914076D01*
X56503769Y-112686682D01*
X56415044Y-112472481D01*
X56286236Y-112279706D01*
X56122294Y-112115764D01*
X55929519Y-111986956D01*
X55715318Y-111898231D01*
X55487924Y-111853000D01*
X55256076Y-111853000D01*
X55028682Y-111898231D01*
X54814481Y-111986956D01*
X54621706Y-112115764D01*
X54457764Y-112279706D01*
X54328956Y-112472481D01*
X54240231Y-112686682D01*
X54195000Y-112914076D01*
X54009000Y-112914076D01*
X53963769Y-112686682D01*
X53875044Y-112472481D01*
X53746236Y-112279706D01*
X53582294Y-112115764D01*
X53389519Y-111986956D01*
X53175318Y-111898231D01*
X52947924Y-111853000D01*
X52716076Y-111853000D01*
X52488682Y-111898231D01*
X52274481Y-111986956D01*
X52081706Y-112115764D01*
X51917764Y-112279706D01*
X51788956Y-112472481D01*
X51700231Y-112686682D01*
X51655000Y-112914076D01*
X51469000Y-112914076D01*
X51423769Y-112686682D01*
X51335044Y-112472481D01*
X51206236Y-112279706D01*
X51042294Y-112115764D01*
X50849519Y-111986956D01*
X50635318Y-111898231D01*
X50407924Y-111853000D01*
X50176076Y-111853000D01*
X49948682Y-111898231D01*
X49734481Y-111986956D01*
X49541706Y-112115764D01*
X49377764Y-112279706D01*
X49248956Y-112472481D01*
X49160231Y-112686682D01*
X49115000Y-112914076D01*
X48929000Y-112914076D01*
X48883769Y-112686682D01*
X48795044Y-112472481D01*
X48666236Y-112279706D01*
X48502294Y-112115764D01*
X48309519Y-111986956D01*
X48095318Y-111898231D01*
X47867924Y-111853000D01*
X47636076Y-111853000D01*
X47408682Y-111898231D01*
X47194481Y-111986956D01*
X47001706Y-112115764D01*
X46837764Y-112279706D01*
X46708956Y-112472481D01*
X46620231Y-112686682D01*
X46575000Y-112914076D01*
X46389000Y-112914076D01*
X46343769Y-112686682D01*
X46255044Y-112472481D01*
X46126236Y-112279706D01*
X45962294Y-112115764D01*
X45769519Y-111986956D01*
X45555318Y-111898231D01*
X45327924Y-111853000D01*
X45096076Y-111853000D01*
X44868682Y-111898231D01*
X44654481Y-111986956D01*
X44461706Y-112115764D01*
X44297764Y-112279706D01*
X44168956Y-112472481D01*
X44158340Y-112498110D01*
X44160072Y-112180000D01*
X44147812Y-112055518D01*
X44111502Y-111935820D01*
X44052537Y-111825506D01*
X44011909Y-111776000D01*
X101684418Y-111776000D01*
X101684418Y-113776000D01*
X101690732Y-113840103D01*
X101709430Y-113901743D01*
X101739794Y-113958550D01*
X101780657Y-114008343D01*
X101830450Y-114049206D01*
X101887257Y-114079570D01*
X101948897Y-114098268D01*
X102013000Y-114104582D01*
X106013000Y-114104582D01*
X106077103Y-114098268D01*
X106138743Y-114079570D01*
X106195550Y-114049206D01*
X106245343Y-114008343D01*
X106286206Y-113958550D01*
X106316570Y-113901743D01*
X106335268Y-113840103D01*
X106341582Y-113776000D01*
X106341582Y-111776000D01*
X106335268Y-111711897D01*
X106316570Y-111650257D01*
X106286206Y-111593450D01*
X106245343Y-111543657D01*
X106195550Y-111502794D01*
X106138743Y-111472430D01*
X106077103Y-111453732D01*
X106013000Y-111447418D01*
X102013000Y-111447418D01*
X101948897Y-111453732D01*
X101887257Y-111472430D01*
X101830450Y-111502794D01*
X101780657Y-111543657D01*
X101739794Y-111593450D01*
X101709430Y-111650257D01*
X101690732Y-111711897D01*
X101684418Y-111776000D01*
X44011909Y-111776000D01*
X43973185Y-111728815D01*
X43876494Y-111649463D01*
X43766180Y-111590498D01*
X43646482Y-111554188D01*
X43522000Y-111541928D01*
X42957750Y-111545000D01*
X42799000Y-111703750D01*
X42545000Y-111703750D01*
X42386250Y-111545000D01*
X41822000Y-111541928D01*
X41697518Y-111554188D01*
X41577820Y-111590498D01*
X41467506Y-111649463D01*
X41370815Y-111728815D01*
X41291463Y-111825506D01*
X41232498Y-111935820D01*
X41196188Y-112055518D01*
X41183928Y-112180000D01*
X41076007Y-112180000D01*
X41084825Y-110374076D01*
X116933000Y-110374076D01*
X116933000Y-110605924D01*
X116978231Y-110833318D01*
X117066956Y-111047519D01*
X117195764Y-111240294D01*
X117359706Y-111404236D01*
X117552481Y-111533044D01*
X117766682Y-111621769D01*
X117994076Y-111667000D01*
X118225924Y-111667000D01*
X118453318Y-111621769D01*
X118667519Y-111533044D01*
X118860294Y-111404236D01*
X119024236Y-111240294D01*
X119153044Y-111047519D01*
X119241769Y-110833318D01*
X119287000Y-110605924D01*
X119287000Y-110374076D01*
X119241769Y-110146682D01*
X119153044Y-109932481D01*
X119024236Y-109739706D01*
X118860294Y-109575764D01*
X118667519Y-109446956D01*
X118453318Y-109358231D01*
X118225924Y-109313000D01*
X117994076Y-109313000D01*
X117766682Y-109358231D01*
X117552481Y-109446956D01*
X117359706Y-109575764D01*
X117195764Y-109739706D01*
X117066956Y-109932481D01*
X116978231Y-110146682D01*
X116933000Y-110374076D01*
X41084825Y-110374076D01*
X41108977Y-105428397D01*
X45273004Y-105428397D01*
X45273004Y-105571603D01*
X45300942Y-105712058D01*
X45355745Y-105844364D01*
X45435306Y-105963436D01*
X45536568Y-106064698D01*
X45655640Y-106144259D01*
X45787946Y-106199062D01*
X45928401Y-106227000D01*
X46071607Y-106227000D01*
X46085097Y-106224317D01*
X48114690Y-108253911D01*
X48128845Y-108271159D01*
X48197671Y-108327643D01*
X48276194Y-108369614D01*
X48341566Y-108389444D01*
X48361396Y-108395460D01*
X48450003Y-108404187D01*
X48472208Y-108402000D01*
X117023249Y-108402000D01*
X117066956Y-108507519D01*
X117195764Y-108700294D01*
X117359706Y-108864236D01*
X117552481Y-108993044D01*
X117766682Y-109081769D01*
X117994076Y-109127000D01*
X118225924Y-109127000D01*
X118453318Y-109081769D01*
X118667519Y-108993044D01*
X118860294Y-108864236D01*
X119024236Y-108700294D01*
X119153044Y-108507519D01*
X119241769Y-108293318D01*
X119287000Y-108065924D01*
X119287000Y-107834076D01*
X119241769Y-107606682D01*
X119153044Y-107392481D01*
X119024236Y-107199706D01*
X118860294Y-107035764D01*
X118667519Y-106906956D01*
X118502821Y-106838736D01*
X118741252Y-106754157D01*
X118991355Y-106605178D01*
X119207588Y-106410269D01*
X119381641Y-106176920D01*
X119506825Y-105914099D01*
X119551476Y-105766890D01*
X119430155Y-105537000D01*
X118237000Y-105537000D01*
X118237000Y-105557000D01*
X117983000Y-105557000D01*
X117983000Y-105537000D01*
X116789845Y-105537000D01*
X116668524Y-105766890D01*
X116713175Y-105914099D01*
X116838359Y-106176920D01*
X117012412Y-106410269D01*
X117228645Y-106605178D01*
X117478748Y-106754157D01*
X117717179Y-106838736D01*
X117552481Y-106906956D01*
X117359706Y-107035764D01*
X117195764Y-107199706D01*
X117066956Y-107392481D01*
X117023249Y-107498000D01*
X48637229Y-107498000D01*
X46724321Y-105585093D01*
X46727004Y-105571603D01*
X46727004Y-105428397D01*
X46699066Y-105287942D01*
X46644263Y-105155636D01*
X46575758Y-105053110D01*
X116668524Y-105053110D01*
X116789845Y-105283000D01*
X117983000Y-105283000D01*
X117983000Y-105263000D01*
X118237000Y-105263000D01*
X118237000Y-105283000D01*
X119430155Y-105283000D01*
X119551476Y-105053110D01*
X119506825Y-104905901D01*
X119381641Y-104643080D01*
X119207588Y-104409731D01*
X118991355Y-104214822D01*
X118741252Y-104065843D01*
X118502821Y-103981264D01*
X118667519Y-103913044D01*
X118860294Y-103784236D01*
X119024236Y-103620294D01*
X119153044Y-103427519D01*
X119241769Y-103213318D01*
X119287000Y-102985924D01*
X119287000Y-102754076D01*
X119241769Y-102526682D01*
X119153044Y-102312481D01*
X119024236Y-102119706D01*
X118860294Y-101955764D01*
X118667519Y-101826956D01*
X118453318Y-101738231D01*
X118225924Y-101693000D01*
X117994076Y-101693000D01*
X117766682Y-101738231D01*
X117552481Y-101826956D01*
X117359706Y-101955764D01*
X117195764Y-102119706D01*
X117066956Y-102312481D01*
X116978231Y-102526682D01*
X116933000Y-102754076D01*
X116933000Y-102985924D01*
X116978231Y-103213318D01*
X117066956Y-103427519D01*
X117195764Y-103620294D01*
X117359706Y-103784236D01*
X117552481Y-103913044D01*
X117717179Y-103981264D01*
X117478748Y-104065843D01*
X117228645Y-104214822D01*
X117012412Y-104409731D01*
X116838359Y-104643080D01*
X116713175Y-104905901D01*
X116668524Y-105053110D01*
X46575758Y-105053110D01*
X46564702Y-105036564D01*
X46463440Y-104935302D01*
X46344368Y-104855741D01*
X46212062Y-104800938D01*
X46071607Y-104773000D01*
X45928401Y-104773000D01*
X45787946Y-104800938D01*
X45655640Y-104855741D01*
X45536568Y-104935302D01*
X45435306Y-105036564D01*
X45355745Y-105155636D01*
X45300942Y-105287942D01*
X45273004Y-105428397D01*
X41108977Y-105428397D01*
X41187778Y-89292076D01*
X42003000Y-89292076D01*
X42003000Y-89523924D01*
X42048231Y-89751318D01*
X42136956Y-89965519D01*
X42204710Y-90066920D01*
X42235048Y-90123679D01*
X42338394Y-90249606D01*
X42353001Y-90261593D01*
X42353001Y-90891377D01*
X42349000Y-90932000D01*
X42364967Y-91094120D01*
X42412256Y-91250010D01*
X42489048Y-91393679D01*
X42566498Y-91488051D01*
X42592395Y-91519606D01*
X42623948Y-91545501D01*
X43788446Y-92710000D01*
X42588953Y-93909494D01*
X42557395Y-93935393D01*
X42531499Y-93966948D01*
X42454049Y-94061320D01*
X42426157Y-94113503D01*
X42377256Y-94204990D01*
X42329967Y-94360880D01*
X42318001Y-94482376D01*
X42318001Y-94482385D01*
X42314001Y-94522999D01*
X42318001Y-94563613D01*
X42318002Y-102104373D01*
X42314001Y-102144997D01*
X42329968Y-102307117D01*
X42377257Y-102463007D01*
X42454049Y-102606676D01*
X42531499Y-102701048D01*
X42557396Y-102732603D01*
X42588949Y-102758498D01*
X42988949Y-103158498D01*
X43083321Y-103235948D01*
X43226989Y-103312740D01*
X43382879Y-103360029D01*
X43544999Y-103375996D01*
X43707120Y-103360029D01*
X43863010Y-103312740D01*
X44006679Y-103235948D01*
X44132606Y-103132602D01*
X44235952Y-103006675D01*
X44312744Y-102863006D01*
X44360033Y-102707116D01*
X44376000Y-102544995D01*
X44360033Y-102382875D01*
X44312744Y-102226985D01*
X44235952Y-102083317D01*
X44158502Y-101988945D01*
X43972001Y-101802444D01*
X43972001Y-97428397D01*
X44273000Y-97428397D01*
X44273000Y-97571603D01*
X44300938Y-97712058D01*
X44355741Y-97844364D01*
X44435302Y-97963436D01*
X44536564Y-98064698D01*
X44655636Y-98144259D01*
X44787942Y-98199062D01*
X44928397Y-98227000D01*
X45071603Y-98227000D01*
X45085093Y-98224317D01*
X46164685Y-99303910D01*
X46178841Y-99321159D01*
X46247667Y-99377643D01*
X46326190Y-99419614D01*
X46377907Y-99435302D01*
X46411392Y-99445460D01*
X46499999Y-99454187D01*
X46522204Y-99452000D01*
X54019868Y-99452000D01*
X53935304Y-99536564D01*
X53855743Y-99655636D01*
X53800940Y-99787942D01*
X53773002Y-99928397D01*
X53773002Y-100071603D01*
X53800940Y-100212058D01*
X53855743Y-100344364D01*
X53935304Y-100463436D01*
X54036566Y-100564698D01*
X54155638Y-100644259D01*
X54287944Y-100699062D01*
X54428399Y-100727000D01*
X54571605Y-100727000D01*
X54602417Y-100720871D01*
X54656192Y-100749614D01*
X54741395Y-100775460D01*
X54807797Y-100782000D01*
X54807798Y-100782000D01*
X54830001Y-100784187D01*
X54852204Y-100782000D01*
X117023249Y-100782000D01*
X117066956Y-100887519D01*
X117195764Y-101080294D01*
X117359706Y-101244236D01*
X117552481Y-101373044D01*
X117766682Y-101461769D01*
X117994076Y-101507000D01*
X118225924Y-101507000D01*
X118453318Y-101461769D01*
X118667519Y-101373044D01*
X118860294Y-101244236D01*
X119024236Y-101080294D01*
X119153044Y-100887519D01*
X119241769Y-100673318D01*
X119287000Y-100445924D01*
X119287000Y-100214076D01*
X119241769Y-99986682D01*
X119153044Y-99772481D01*
X119024236Y-99579706D01*
X118860294Y-99415764D01*
X118667519Y-99286956D01*
X118453318Y-99198231D01*
X118225924Y-99153000D01*
X117994076Y-99153000D01*
X117766682Y-99198231D01*
X117552481Y-99286956D01*
X117359706Y-99415764D01*
X117195764Y-99579706D01*
X117066956Y-99772481D01*
X117023249Y-99878000D01*
X55216977Y-99878000D01*
X55199064Y-99787942D01*
X55144261Y-99655636D01*
X55064700Y-99536564D01*
X54980136Y-99452000D01*
X116877795Y-99452000D01*
X116900000Y-99454187D01*
X116922205Y-99452000D01*
X116988607Y-99445460D01*
X117073810Y-99419614D01*
X117152333Y-99377643D01*
X117221159Y-99321159D01*
X117235323Y-99303900D01*
X117661162Y-98878061D01*
X117766682Y-98921769D01*
X117994076Y-98967000D01*
X118225924Y-98967000D01*
X118453318Y-98921769D01*
X118667519Y-98833044D01*
X118860294Y-98704236D01*
X119024236Y-98540294D01*
X119153044Y-98347519D01*
X119241769Y-98133318D01*
X119287000Y-97905924D01*
X119287000Y-97674076D01*
X119241769Y-97446682D01*
X119153044Y-97232481D01*
X119024236Y-97039706D01*
X118860294Y-96875764D01*
X118667519Y-96746956D01*
X118453318Y-96658231D01*
X118225924Y-96613000D01*
X117994076Y-96613000D01*
X117766682Y-96658231D01*
X117552481Y-96746956D01*
X117359706Y-96875764D01*
X117195764Y-97039706D01*
X117066956Y-97232481D01*
X116978231Y-97446682D01*
X116933000Y-97674076D01*
X116933000Y-97905924D01*
X116978231Y-98133318D01*
X117021939Y-98238838D01*
X116712777Y-98548000D01*
X115091223Y-98548000D01*
X117428813Y-96210412D01*
X117552481Y-96293044D01*
X117766682Y-96381769D01*
X117994076Y-96427000D01*
X118225924Y-96427000D01*
X118453318Y-96381769D01*
X118667519Y-96293044D01*
X118860294Y-96164236D01*
X119024236Y-96000294D01*
X119153044Y-95807519D01*
X119241769Y-95593318D01*
X119287000Y-95365924D01*
X119287000Y-95134076D01*
X119241769Y-94906682D01*
X119153044Y-94692481D01*
X119024236Y-94499706D01*
X118860294Y-94335764D01*
X118667519Y-94206956D01*
X118453318Y-94118231D01*
X118225924Y-94073000D01*
X117994076Y-94073000D01*
X117766682Y-94118231D01*
X117552481Y-94206956D01*
X117359706Y-94335764D01*
X117195764Y-94499706D01*
X117066956Y-94692481D01*
X116978231Y-94906682D01*
X116933000Y-95134076D01*
X116933000Y-95365924D01*
X116943262Y-95417514D01*
X114312777Y-98048000D01*
X56777225Y-98048000D01*
X54657622Y-95928397D01*
X62273000Y-95928397D01*
X62273000Y-96071603D01*
X62300938Y-96212058D01*
X62355741Y-96344364D01*
X62435302Y-96463436D01*
X62536564Y-96564698D01*
X62655636Y-96644259D01*
X62787942Y-96699062D01*
X62928397Y-96727000D01*
X63071603Y-96727000D01*
X63212058Y-96699062D01*
X63344364Y-96644259D01*
X63463436Y-96564698D01*
X63564698Y-96463436D01*
X63572339Y-96452000D01*
X85587795Y-96452000D01*
X85610000Y-96454187D01*
X85632205Y-96452000D01*
X85698607Y-96445460D01*
X85783810Y-96419614D01*
X85862333Y-96377643D01*
X85931159Y-96321159D01*
X85945323Y-96303900D01*
X88210642Y-94038582D01*
X89900000Y-94038582D01*
X89964103Y-94032268D01*
X90025743Y-94013570D01*
X90082550Y-93983206D01*
X90132343Y-93942343D01*
X90173206Y-93892550D01*
X90198401Y-93845413D01*
X95544192Y-93845413D01*
X95639956Y-94109814D01*
X95929571Y-94250704D01*
X96241108Y-94332384D01*
X96562595Y-94351718D01*
X96881675Y-94307961D01*
X97186088Y-94202795D01*
X97360044Y-94109814D01*
X97455808Y-93845413D01*
X96500000Y-92889605D01*
X95544192Y-93845413D01*
X90198401Y-93845413D01*
X90203570Y-93835743D01*
X90222268Y-93774103D01*
X90228582Y-93710000D01*
X90228582Y-92772595D01*
X94858282Y-92772595D01*
X94902039Y-93091675D01*
X95007205Y-93396088D01*
X95100186Y-93570044D01*
X95364587Y-93665808D01*
X96320395Y-92710000D01*
X96679605Y-92710000D01*
X97635413Y-93665808D01*
X97899814Y-93570044D01*
X98040704Y-93280429D01*
X98122384Y-92968892D01*
X98141718Y-92647405D01*
X98097961Y-92328325D01*
X97992795Y-92023912D01*
X97899814Y-91849956D01*
X97635413Y-91754192D01*
X96679605Y-92710000D01*
X96320395Y-92710000D01*
X95364587Y-91754192D01*
X95100186Y-91849956D01*
X94959296Y-92139571D01*
X94877616Y-92451108D01*
X94858282Y-92772595D01*
X90228582Y-92772595D01*
X90228582Y-91710000D01*
X90222268Y-91645897D01*
X90203570Y-91584257D01*
X90173206Y-91527450D01*
X90132343Y-91477657D01*
X90082550Y-91436794D01*
X90025743Y-91406430D01*
X89964103Y-91387732D01*
X89900000Y-91381418D01*
X87900000Y-91381418D01*
X87835897Y-91387732D01*
X87774257Y-91406430D01*
X87717450Y-91436794D01*
X87667657Y-91477657D01*
X87626794Y-91527450D01*
X87596430Y-91584257D01*
X87577732Y-91645897D01*
X87571418Y-91710000D01*
X87571418Y-93399358D01*
X85422777Y-95548000D01*
X63572339Y-95548000D01*
X63564698Y-95536564D01*
X63463436Y-95435302D01*
X63344364Y-95355741D01*
X63212058Y-95300938D01*
X63071603Y-95273000D01*
X62928397Y-95273000D01*
X62787942Y-95300938D01*
X62655636Y-95355741D01*
X62536564Y-95435302D01*
X62435302Y-95536564D01*
X62355741Y-95655636D01*
X62300938Y-95787942D01*
X62273000Y-95928397D01*
X54657622Y-95928397D01*
X54064317Y-95335093D01*
X54067000Y-95321603D01*
X54067000Y-95178397D01*
X54039062Y-95037942D01*
X53984259Y-94905636D01*
X53904698Y-94786564D01*
X53803436Y-94685302D01*
X53684364Y-94605741D01*
X53552058Y-94550938D01*
X53411603Y-94523000D01*
X53268397Y-94523000D01*
X53127942Y-94550938D01*
X52995636Y-94605741D01*
X52876564Y-94685302D01*
X52775302Y-94786564D01*
X52695741Y-94905636D01*
X52640938Y-95037942D01*
X52613000Y-95178397D01*
X52613000Y-95321603D01*
X52640938Y-95462058D01*
X52695741Y-95594364D01*
X52775302Y-95713436D01*
X52876564Y-95814698D01*
X52995636Y-95894259D01*
X53127942Y-95949062D01*
X53268397Y-95977000D01*
X53411603Y-95977000D01*
X53425093Y-95974317D01*
X55998775Y-98548000D01*
X46687225Y-98548000D01*
X45724317Y-97585093D01*
X45727000Y-97571603D01*
X45727000Y-97428397D01*
X45699062Y-97287942D01*
X45644259Y-97155636D01*
X45564698Y-97036564D01*
X45463436Y-96935302D01*
X45344364Y-96855741D01*
X45212058Y-96800938D01*
X45071603Y-96773000D01*
X44928397Y-96773000D01*
X44787942Y-96800938D01*
X44655636Y-96855741D01*
X44536564Y-96935302D01*
X44435302Y-97036564D01*
X44355741Y-97155636D01*
X44300938Y-97287942D01*
X44273000Y-97428397D01*
X43972001Y-97428397D01*
X43972001Y-94865552D01*
X44958000Y-93879554D01*
X45134503Y-94056058D01*
X45160394Y-94087606D01*
X45191941Y-94113496D01*
X45191948Y-94113503D01*
X45286320Y-94190952D01*
X45316262Y-94206956D01*
X45429990Y-94267745D01*
X45585880Y-94315034D01*
X45707376Y-94327000D01*
X45707386Y-94327000D01*
X45748000Y-94331000D01*
X45788614Y-94327000D01*
X70289386Y-94327000D01*
X70330000Y-94331000D01*
X70370614Y-94327000D01*
X70370624Y-94327000D01*
X70492120Y-94315034D01*
X70648010Y-94267745D01*
X70791679Y-94190952D01*
X70917606Y-94087606D01*
X70943505Y-94056048D01*
X72749503Y-92250052D01*
X72826952Y-92155680D01*
X72903744Y-92012011D01*
X72951033Y-91856121D01*
X72967000Y-91694000D01*
X72951033Y-91531880D01*
X72903744Y-91375990D01*
X72826952Y-91232320D01*
X72742979Y-91130000D01*
X96066335Y-91130000D01*
X95813912Y-91217205D01*
X95639956Y-91310186D01*
X95544192Y-91574587D01*
X96500000Y-92530395D01*
X97455808Y-91574587D01*
X97360044Y-91310186D01*
X97070429Y-91169296D01*
X96920549Y-91130000D01*
X115890777Y-91130000D01*
X116931418Y-92170642D01*
X116931418Y-93560000D01*
X116937732Y-93624103D01*
X116956430Y-93685743D01*
X116986794Y-93742550D01*
X117027657Y-93792343D01*
X117077450Y-93833206D01*
X117134257Y-93863570D01*
X117195897Y-93882268D01*
X117260000Y-93888582D01*
X118960000Y-93888582D01*
X119024103Y-93882268D01*
X119085743Y-93863570D01*
X119142550Y-93833206D01*
X119192343Y-93792343D01*
X119233206Y-93742550D01*
X119263570Y-93685743D01*
X119282268Y-93624103D01*
X119288582Y-93560000D01*
X119288582Y-91860000D01*
X119282268Y-91795897D01*
X119263570Y-91734257D01*
X119233206Y-91677450D01*
X119192343Y-91627657D01*
X119142550Y-91586794D01*
X119085743Y-91556430D01*
X119024103Y-91537732D01*
X118960000Y-91531418D01*
X117570642Y-91531418D01*
X116413323Y-90374100D01*
X116399159Y-90356841D01*
X116330333Y-90300357D01*
X116251810Y-90258386D01*
X116166607Y-90232540D01*
X116100205Y-90226000D01*
X116078000Y-90223813D01*
X116055795Y-90226000D01*
X72007462Y-90226000D01*
X71985259Y-90223813D01*
X71963056Y-90226000D01*
X71963055Y-90226000D01*
X71896653Y-90232540D01*
X71811450Y-90258386D01*
X71732927Y-90300357D01*
X71664101Y-90356841D01*
X71649945Y-90374090D01*
X70274037Y-91750000D01*
X61338057Y-91750000D01*
X61418011Y-91725746D01*
X61561680Y-91648953D01*
X61687607Y-91545607D01*
X61713506Y-91514049D01*
X64564060Y-88663497D01*
X64595606Y-88637608D01*
X64621496Y-88606061D01*
X64621503Y-88606054D01*
X64698952Y-88511682D01*
X64775744Y-88368013D01*
X64775745Y-88368012D01*
X64823034Y-88212122D01*
X64835000Y-88090626D01*
X64835000Y-88090616D01*
X64839000Y-88050002D01*
X64835000Y-88009388D01*
X64835000Y-86065376D01*
X64823034Y-85943880D01*
X64775745Y-85787990D01*
X64698952Y-85644321D01*
X64595606Y-85518394D01*
X64469679Y-85415048D01*
X64326010Y-85338255D01*
X64170120Y-85290966D01*
X64008000Y-85274999D01*
X63845881Y-85290966D01*
X63689991Y-85338255D01*
X63546322Y-85415048D01*
X63420395Y-85518394D01*
X63317049Y-85644321D01*
X63240256Y-85787990D01*
X63192967Y-85943880D01*
X63181001Y-86065376D01*
X63181000Y-87707447D01*
X61175107Y-89713342D01*
X61175000Y-89693750D01*
X61016250Y-89535000D01*
X59817000Y-89535000D01*
X59817000Y-89555000D01*
X59563000Y-89555000D01*
X59563000Y-89535000D01*
X59543000Y-89535000D01*
X59543000Y-89281000D01*
X59563000Y-89281000D01*
X59563000Y-88081750D01*
X59817000Y-88081750D01*
X59817000Y-89281000D01*
X61016250Y-89281000D01*
X61175000Y-89122250D01*
X61178072Y-88558000D01*
X61165812Y-88433518D01*
X61129502Y-88313820D01*
X61070537Y-88203506D01*
X60991185Y-88106815D01*
X60894494Y-88027463D01*
X60784180Y-87968498D01*
X60664482Y-87932188D01*
X60540000Y-87919928D01*
X59975750Y-87923000D01*
X59817000Y-88081750D01*
X59563000Y-88081750D01*
X59404250Y-87923000D01*
X58840000Y-87919928D01*
X58715518Y-87932188D01*
X58595820Y-87968498D01*
X58485506Y-88027463D01*
X58388815Y-88106815D01*
X58309463Y-88203506D01*
X58250498Y-88313820D01*
X58214188Y-88433518D01*
X58201928Y-88558000D01*
X58203660Y-88876110D01*
X58193044Y-88850481D01*
X58064236Y-88657706D01*
X57900294Y-88493764D01*
X57707519Y-88364956D01*
X57493318Y-88276231D01*
X57265924Y-88231000D01*
X57034076Y-88231000D01*
X56806682Y-88276231D01*
X56592481Y-88364956D01*
X56399706Y-88493764D01*
X56235764Y-88657706D01*
X56106956Y-88850481D01*
X56018231Y-89064682D01*
X55973000Y-89292076D01*
X55973000Y-89523924D01*
X56018231Y-89751318D01*
X56106956Y-89965519D01*
X56235764Y-90158294D01*
X56323001Y-90245531D01*
X56323001Y-90569458D01*
X56319000Y-90610081D01*
X56334967Y-90772201D01*
X56382256Y-90928091D01*
X56459048Y-91071760D01*
X56509802Y-91133603D01*
X56562395Y-91197687D01*
X56593948Y-91223582D01*
X56884415Y-91514049D01*
X56910314Y-91545607D01*
X56982292Y-91604678D01*
X57036240Y-91648953D01*
X57089555Y-91677450D01*
X57179910Y-91725746D01*
X57259864Y-91750000D01*
X50225225Y-91750000D01*
X49622317Y-91147093D01*
X49625000Y-91133603D01*
X49625000Y-90990397D01*
X49597062Y-90849942D01*
X49559330Y-90758848D01*
X49595506Y-90788537D01*
X49705820Y-90847502D01*
X49825518Y-90883812D01*
X49950000Y-90896072D01*
X50514250Y-90893000D01*
X50673000Y-90734250D01*
X50673000Y-89535000D01*
X50927000Y-89535000D01*
X50927000Y-90734250D01*
X51085750Y-90893000D01*
X51650000Y-90896072D01*
X51774482Y-90883812D01*
X51894180Y-90847502D01*
X52004494Y-90788537D01*
X52101185Y-90709185D01*
X52180537Y-90612494D01*
X52239502Y-90502180D01*
X52275812Y-90382482D01*
X52288072Y-90258000D01*
X52285000Y-89693750D01*
X52126250Y-89535000D01*
X50927000Y-89535000D01*
X50673000Y-89535000D01*
X50653000Y-89535000D01*
X50653000Y-89292076D01*
X53433000Y-89292076D01*
X53433000Y-89523924D01*
X53478231Y-89751318D01*
X53566956Y-89965519D01*
X53695764Y-90158294D01*
X53859706Y-90322236D01*
X54052481Y-90451044D01*
X54266682Y-90539769D01*
X54494076Y-90585000D01*
X54725924Y-90585000D01*
X54953318Y-90539769D01*
X55167519Y-90451044D01*
X55360294Y-90322236D01*
X55524236Y-90158294D01*
X55653044Y-89965519D01*
X55741769Y-89751318D01*
X55787000Y-89523924D01*
X55787000Y-89292076D01*
X55741769Y-89064682D01*
X55653044Y-88850481D01*
X55524236Y-88657706D01*
X55360294Y-88493764D01*
X55167519Y-88364956D01*
X54953318Y-88276231D01*
X54725924Y-88231000D01*
X54494076Y-88231000D01*
X54266682Y-88276231D01*
X54052481Y-88364956D01*
X53859706Y-88493764D01*
X53695764Y-88657706D01*
X53566956Y-88850481D01*
X53478231Y-89064682D01*
X53433000Y-89292076D01*
X50653000Y-89292076D01*
X50653000Y-89281000D01*
X50673000Y-89281000D01*
X50673000Y-88081750D01*
X50927000Y-88081750D01*
X50927000Y-89281000D01*
X52126250Y-89281000D01*
X52285000Y-89122250D01*
X52288072Y-88558000D01*
X52275812Y-88433518D01*
X52239502Y-88313820D01*
X52180537Y-88203506D01*
X52101185Y-88106815D01*
X52004494Y-88027463D01*
X51894180Y-87968498D01*
X51774482Y-87932188D01*
X51650000Y-87919928D01*
X51085750Y-87923000D01*
X50927000Y-88081750D01*
X50673000Y-88081750D01*
X50514250Y-87923000D01*
X49950000Y-87919928D01*
X49825518Y-87932188D01*
X49705820Y-87968498D01*
X49595506Y-88027463D01*
X49498815Y-88106815D01*
X49419463Y-88203506D01*
X49360498Y-88313820D01*
X49324188Y-88433518D01*
X49311928Y-88558000D01*
X49313660Y-88876110D01*
X49303044Y-88850481D01*
X49174236Y-88657706D01*
X49010294Y-88493764D01*
X48817519Y-88364956D01*
X48603318Y-88276231D01*
X48375924Y-88231000D01*
X48144076Y-88231000D01*
X47916682Y-88276231D01*
X47702481Y-88364956D01*
X47509706Y-88493764D01*
X47345764Y-88657706D01*
X47216956Y-88850481D01*
X47128231Y-89064682D01*
X47083000Y-89292076D01*
X47083000Y-89523924D01*
X47128231Y-89751318D01*
X47216956Y-89965519D01*
X47345764Y-90158294D01*
X47509706Y-90322236D01*
X47702481Y-90451044D01*
X47916682Y-90539769D01*
X48144076Y-90585000D01*
X48346866Y-90585000D01*
X48333302Y-90598564D01*
X48253741Y-90717636D01*
X48198938Y-90849942D01*
X48171000Y-90990397D01*
X48171000Y-91133603D01*
X48198938Y-91274058D01*
X48253741Y-91406364D01*
X48333302Y-91525436D01*
X48434564Y-91626698D01*
X48553636Y-91706259D01*
X48685942Y-91761062D01*
X48826397Y-91789000D01*
X48969603Y-91789000D01*
X48983093Y-91786317D01*
X49702685Y-92505910D01*
X49716841Y-92523159D01*
X49785667Y-92579643D01*
X49864190Y-92621614D01*
X49949393Y-92647460D01*
X50015795Y-92654000D01*
X50015796Y-92654000D01*
X50037999Y-92656187D01*
X50060202Y-92654000D01*
X70006447Y-92654000D01*
X69987447Y-92673000D01*
X46090554Y-92673000D01*
X45571512Y-92153958D01*
X45571503Y-92153948D01*
X45571497Y-92153942D01*
X45545606Y-92122394D01*
X45514057Y-92096502D01*
X44007000Y-90589447D01*
X44007000Y-90245530D01*
X44094236Y-90158294D01*
X44223044Y-89965519D01*
X44311769Y-89751318D01*
X44357000Y-89523924D01*
X44357000Y-89292076D01*
X44543000Y-89292076D01*
X44543000Y-89523924D01*
X44588231Y-89751318D01*
X44676956Y-89965519D01*
X44805764Y-90158294D01*
X44969706Y-90322236D01*
X45162481Y-90451044D01*
X45376682Y-90539769D01*
X45604076Y-90585000D01*
X45835924Y-90585000D01*
X46063318Y-90539769D01*
X46277519Y-90451044D01*
X46470294Y-90322236D01*
X46634236Y-90158294D01*
X46763044Y-89965519D01*
X46851769Y-89751318D01*
X46897000Y-89523924D01*
X46897000Y-89292076D01*
X46851769Y-89064682D01*
X46763044Y-88850481D01*
X46634236Y-88657706D01*
X46470294Y-88493764D01*
X46277519Y-88364956D01*
X46063318Y-88276231D01*
X45835924Y-88231000D01*
X45604076Y-88231000D01*
X45376682Y-88276231D01*
X45162481Y-88364956D01*
X44969706Y-88493764D01*
X44805764Y-88657706D01*
X44676956Y-88850481D01*
X44588231Y-89064682D01*
X44543000Y-89292076D01*
X44357000Y-89292076D01*
X44311769Y-89064682D01*
X44223044Y-88850481D01*
X44094236Y-88657706D01*
X43930294Y-88493764D01*
X43737519Y-88364956D01*
X43523318Y-88276231D01*
X43295924Y-88231000D01*
X43064076Y-88231000D01*
X42836682Y-88276231D01*
X42622481Y-88364956D01*
X42429706Y-88493764D01*
X42265764Y-88657706D01*
X42136956Y-88850481D01*
X42048231Y-89064682D01*
X42003000Y-89292076D01*
X41187778Y-89292076D01*
X41232381Y-80158652D01*
X117037027Y-80099797D01*
X116767605Y-80279819D01*
X116279819Y-80767605D01*
X115896568Y-81341181D01*
X115632580Y-81978504D01*
X115498000Y-82655083D01*
X115498000Y-83344917D01*
X115632580Y-84021496D01*
X115896568Y-84658819D01*
X116279819Y-85232395D01*
X116767605Y-85720181D01*
X117341181Y-86103432D01*
X117978504Y-86367420D01*
X118655083Y-86502000D01*
X119344917Y-86502000D01*
X120021496Y-86367420D01*
X120658819Y-86103432D01*
X121232395Y-85720181D01*
X121720181Y-85232395D01*
X122103432Y-84658819D01*
X122367420Y-84021496D01*
X122502000Y-83344917D01*
X122502000Y-82655083D01*
X122367420Y-81978504D01*
X122103432Y-81341181D01*
X121720181Y-80767605D01*
X121232395Y-80279819D01*
X120958417Y-80096753D01*
X122648001Y-80095441D01*
X122648001Y-80982708D01*
G37*
%TD.AperFunction*%
%TD*%
M02*
