M48
; DRILL file {KiCad (5.1.9)-1} date 08/19/21 10:12:07
; FORMAT={-:-/ absolute / inch / decimal}
; #@! TF.CreationDate,2021-08-19T10:12:07-05:00
; #@! TF.GenerationSoftware,Kicad,Pcbnew,(5.1.9)-1
; #@! TF.FileFunction,Plated,1,2,PTH
FMAT,2
INCH
T1C0.0157
T2C0.0295
T3C0.0315
T4C0.0394
T5C0.0433
T6C0.0512
%
G90
G05
T1
X4.0157Y-2.5591
X4.0157Y-2.6378
X4.0157Y-2.6378
X4.0157Y-2.874
X4.0157Y-2.9528
X4.0157Y-3.0315
X4.0157Y-3.1102
X4.0157Y-3.3465
X4.0157Y-3.4252
X4.0157Y-3.5039
X4.0551Y-2.5984
X4.0551Y-2.9134
X4.0551Y-2.9921
X4.0551Y-3.0709
X4.0551Y-3.3858
X4.0551Y-3.4646
X4.0945Y-2.5591
X4.0945Y-2.6378
X4.0945Y-2.874
X4.0945Y-2.9528
X4.0945Y-3.0315
X4.0945Y-3.1102
X4.0945Y-3.3465
X4.0945Y-3.4252
X4.0945Y-3.5039
X4.1339Y-2.5984
X4.1339Y-2.6772
X4.1339Y-2.9134
X4.1339Y-2.9921
X4.1339Y-3.0709
X4.1339Y-3.1496
X4.1339Y-3.3858
X4.1339Y-3.4646
X4.1732Y-2.5591
X4.1732Y-2.6378
X4.1732Y-2.7165
X4.1732Y-2.9528
X4.1732Y-3.0315
X4.1732Y-3.1102
X4.1732Y-3.189
X4.1732Y-3.2677
X4.1732Y-3.4252
X4.1732Y-3.5039
X4.2126Y-2.7953
X4.2126Y-2.9921
X4.2126Y-3.0709
X4.2126Y-3.1496
X4.2126Y-3.2283
X4.2126Y-3.3071
X4.2126Y-3.4646
X4.252Y-2.5591
X4.252Y-2.8346
X4.252Y-3.0315
X4.252Y-3.1102
X4.252Y-3.189
X4.252Y-3.2677
X4.252Y-3.3465
X4.252Y-3.5039
X4.2913Y-2.7953
X4.2913Y-2.874
X4.2913Y-2.874
X4.2913Y-3.0709
X4.2913Y-3.1496
X4.2913Y-3.2283
X4.2913Y-3.3071
X4.2913Y-3.3858
X4.3307Y-2.5591
X4.3307Y-2.8346
X4.3307Y-2.9134
X4.3307Y-3.1102
X4.3307Y-3.189
X4.3307Y-3.2677
X4.3307Y-3.3465
X4.3307Y-3.4252
X4.3701Y-2.7953
X4.3701Y-2.874
X4.3701Y-2.9528
X4.3701Y-3.1496
X4.3701Y-3.2283
X4.3701Y-3.3071
X4.3701Y-3.3858
X4.4094Y-2.5591
X4.4094Y-2.6378
X4.4094Y-2.7165
X4.4094Y-2.8346
X4.4094Y-2.9134
X4.4094Y-2.9921
X4.4094Y-3.189
X4.4094Y-3.2677
X4.4094Y-3.3465
X4.4094Y-3.4252
X4.4488Y-2.5984
X4.4488Y-2.6772
X4.4488Y-2.874
X4.4488Y-2.9528
X4.4488Y-3.1496
X4.4488Y-3.3071
X4.4488Y-3.3858
X4.4882Y-2.5591
X4.4882Y-2.6378
X4.4882Y-2.9134
X4.4882Y-2.9921
X4.4882Y-3.3465
X4.4882Y-3.4252
X4.5276Y-2.5984
X4.5276Y-2.874
X4.5276Y-2.9528
X4.5276Y-3.3858
X4.5669Y-2.5591
X4.5669Y-2.9134
X4.5669Y-2.9921
X4.5669Y-3.3465
X4.5669Y-3.4252
X4.6063Y-2.874
X4.6063Y-2.9528
X4.6063Y-3.1496
X4.6063Y-3.3071
X4.6063Y-3.3858
X4.6457Y-2.5591
X4.6457Y-2.8346
X4.6457Y-2.9134
X4.6457Y-2.9921
X4.6457Y-3.189
X4.6457Y-3.2677
X4.6457Y-3.3465
X4.6457Y-3.4252
X4.685Y-2.7953
X4.685Y-2.874
X4.685Y-2.9528
X4.685Y-3.1496
X4.685Y-3.2283
X4.685Y-3.3071
X4.685Y-3.3858
X4.7244Y-2.5591
X4.7244Y-2.8346
X4.7244Y-2.9134
X4.7244Y-2.9921
X4.7244Y-3.189
X4.7244Y-3.2677
X4.7244Y-3.4252
X4.7638Y-2.874
X4.7638Y-2.9528
X4.7638Y-3.1496
X4.7638Y-3.2283
X4.8031Y-2.5591
X4.8031Y-2.9134
X4.8031Y-2.9921
X4.8031Y-3.189
X4.8031Y-3.2677
X4.8031Y-3.4252
X4.8425Y-2.7165
X4.8425Y-2.9528
X4.8425Y-3.1496
X4.8425Y-3.2283
X4.8819Y-2.5591
X4.8819Y-2.7559
X4.8819Y-2.9921
X4.8819Y-3.189
X4.8819Y-3.2677
X4.8819Y-3.4252
X4.9213Y-2.7953
X4.9213Y-3.1496
X4.9213Y-3.2283
X4.9606Y-2.5591
X4.9606Y-2.8346
X4.9606Y-2.9921
X4.9606Y-3.189
X4.9606Y-3.2677
X4.9606Y-3.4252
X5.0Y-2.5984
X5.0Y-2.874
X5.0394Y-2.5591
X5.0394Y-2.6378
X5.0394Y-2.9921
X5.0787Y-2.5984
X5.0787Y-3.0315
X5.1181Y-2.5591
X5.1181Y-2.6378
X5.1181Y-2.9921
X5.1181Y-3.0709
X5.1575Y-2.5984
X5.1575Y-2.6772
X5.1575Y-2.7559
X5.1575Y-3.0315
X5.1575Y-3.1102
X5.1575Y-3.189
X5.1575Y-3.2677
X5.1575Y-3.3465
X5.1969Y-2.5591
X5.1969Y-2.6378
X5.1969Y-2.7165
X5.2362Y-2.5984
X5.2362Y-2.6772
X5.2362Y-2.7559
X5.2756Y-2.5591
X5.2756Y-2.6378
X5.2756Y-2.7165
X5.2756Y-3.5039
X5.315Y-2.5984
X5.315Y-2.6772
X5.315Y-2.7559
X5.315Y-2.8346
X5.315Y-2.9134
X5.315Y-2.9921
X5.315Y-3.0709
X5.315Y-3.1496
X5.315Y-3.2283
X5.315Y-3.3071
X5.315Y-3.3858
X5.315Y-3.4646
X5.3543Y-2.5591
X5.3543Y-2.6378
X5.3543Y-2.7165
X5.3543Y-2.7953
X5.3543Y-2.874
X5.3543Y-2.9528
X5.3543Y-3.0315
X5.3543Y-3.1102
X5.3543Y-3.189
X5.3543Y-3.2677
X5.3543Y-3.3465
X5.3543Y-3.4252
X5.3543Y-3.5039
X5.3937Y-2.5984
X5.3937Y-2.6772
X5.3937Y-2.7559
X5.3937Y-2.8346
X5.3937Y-2.9134
X5.3937Y-2.9921
X5.3937Y-3.0709
X5.3937Y-3.1496
X5.3937Y-3.2283
X5.3937Y-3.3071
X5.3937Y-3.3858
X5.3937Y-3.4646
X5.4331Y-2.5591
X5.4331Y-2.6378
X5.4331Y-2.7165
X5.4331Y-2.7953
X5.4331Y-2.874
X5.4331Y-2.9528
X5.4331Y-3.0315
X5.4331Y-3.1102
X5.4331Y-3.189
X5.4331Y-3.2677
X5.4331Y-3.3465
X5.4331Y-3.4252
X5.4331Y-3.5039
T2
X4.9894Y-3.3358
X5.0394Y-3.2858
X5.0394Y-3.3858
T3
X4.7638Y-2.7465
X4.7638Y-3.3465
T4
X5.2362Y-2.8315
X5.2362Y-2.9315
X5.2362Y-3.0315
X5.2362Y-3.1315
X5.2362Y-3.2315
X5.2362Y-3.3315
T5
X5.0394Y-2.7559
X5.0394Y-3.1559
T6
X4.0551Y-2.7559
X4.0551Y-3.2362
X4.2913Y-2.6772
X4.5276Y-2.7559
X4.5276Y-3.2362
T0
M30
